<svg width="193" height="181" viewBox="0 0 193 181" fill="none" xmlns="http://www.w3.org/2000/svg">
<path d="M96.5 180.197C149.795 180.197 193 155.252 193 124.482C193 93.7112 149.795 68.7667 96.5 68.7667C43.2045 68.7667 0 93.7112 0 124.482C0 155.252 43.2045 180.197 96.5 180.197Z" fill="#F0F0F0"/>
<path d="M76.5315 166.7C94.9098 166.7 109.808 158.099 109.808 147.49C109.808 136.88 94.9098 128.279 76.5315 128.279C58.1533 128.279 43.2548 136.88 43.2548 147.49C43.2548 158.099 58.1533 166.7 76.5315 166.7Z" fill="#E0E0E0"/>
<path d="M95.4268 0.156997C96.1338 0.31432 96.8151 0.570816 97.4503 0.918871C98.0585 1.24586 98.6036 1.67861 99.0601 2.19685C99.4967 2.69537 99.8209 3.28215 100.01 3.91722C100.204 4.59702 100.218 5.31526 100.051 6.00213C99.9415 6.54671 99.7257 7.06442 99.4164 7.52588C99.134 7.92049 98.7976 8.27347 98.417 8.57448C98.0432 8.8647 97.6443 9.12103 97.225 9.34045L96.0453 9.96715C95.69 10.1525 95.3526 10.3705 95.0377 10.6184C94.7527 10.837 94.5343 11.1306 94.4069 11.4663C94.3445 11.6197 94.241 11.7529 94.1079 11.8514C94.0449 11.9003 93.9716 11.9342 93.8935 11.9506C93.8154 11.9669 93.7346 11.9652 93.6573 11.9456L91.9206 11.5605C91.8369 11.543 91.7576 11.509 91.6873 11.4604C91.617 11.4119 91.557 11.3499 91.5109 11.2779C91.4619 11.211 91.4293 11.1335 91.4158 11.0517C91.4023 10.9698 91.4082 10.886 91.4331 10.8069C91.5729 10.269 91.8195 9.76473 92.1581 9.32407C92.4671 8.93427 92.825 8.58596 93.2231 8.28775C93.611 8.00385 94.022 7.75311 94.4519 7.53817C94.8615 7.32927 95.2712 7.12856 95.6275 6.92785C95.959 6.74967 96.2707 6.53685 96.5573 6.29295C96.8088 6.08241 96.9832 5.79422 97.053 5.47373C97.1181 5.19544 97.1149 4.9055 97.0436 4.62873C96.9722 4.35196 96.8349 4.09658 96.6434 3.88445C96.1644 3.3615 95.5242 3.01397 94.8247 2.89729C93.5303 2.61056 92.438 3.04611 91.5478 4.20394C91.4619 4.33033 91.3536 4.43998 91.2283 4.52754C91.0869 4.59762 90.9236 4.60939 90.7736 4.5603L88.9263 4.15069C88.7945 4.12523 88.6782 4.04866 88.6027 3.9377C88.5624 3.87841 88.5353 3.81115 88.5233 3.74047C88.5113 3.66979 88.5146 3.59736 88.5331 3.52809C88.6901 2.95891 88.9824 2.43614 89.3851 2.00434C89.8392 1.50357 90.3787 1.08749 90.9784 0.775509C91.6342 0.432418 92.341 0.197289 93.0716 0.0791715C93.8542 -0.0481395 94.6542 -0.0217054 95.4268 0.156997ZM93.4648 13.3382C93.6273 13.3764 93.7684 13.4766 93.8579 13.6175C93.9475 13.7583 93.9784 13.9286 93.944 14.0919L93.5016 16.099C93.4867 16.1831 93.4541 16.263 93.4061 16.3336C93.3581 16.4042 93.2958 16.4638 93.2231 16.5086C93.1546 16.5559 93.0769 16.5883 92.9951 16.6039C92.9132 16.6194 92.8291 16.6176 92.748 16.5987L90.7655 16.1441C90.6812 16.1299 90.6009 16.0976 90.5302 16.0495C90.4595 16.0015 90.4 15.9387 90.3558 15.8655C90.3099 15.7964 90.2786 15.7185 90.2638 15.6368C90.2491 15.5551 90.2511 15.4713 90.2698 15.3904L90.7163 13.3833C90.7545 13.2206 90.8545 13.0791 90.9952 12.9889C91.1359 12.8987 91.3062 12.8668 91.47 12.9L93.4648 13.3382Z" fill="#A30000"/>
<path d="M97.6141 19.3718C98.1073 19.2927 98.6092 19.283 99.1051 19.3431C99.5788 19.3994 100.039 19.538 100.465 19.7527C100.871 19.9632 101.228 20.2562 101.514 20.6129C101.77 20.962 101.951 21.3611 102.044 21.7844C102.138 22.2077 102.141 22.6459 102.054 23.0706C101.976 23.3971 101.851 23.7104 101.682 24.0004C101.519 24.2825 101.329 24.5485 101.116 24.795C100.907 25.0408 100.707 25.2743 100.522 25.4996C100.342 25.7094 100.181 25.9357 100.043 26.1754C99.9133 26.3855 99.8478 26.629 99.8547 26.8758C99.8511 26.9912 99.8187 27.1039 99.7605 27.2035C99.7308 27.2495 99.6918 27.2886 99.6459 27.3182C99.6 27.3479 99.5483 27.3674 99.4942 27.3756L98.2654 27.5722C98.208 27.5826 98.149 27.5815 98.0921 27.5688C98.0351 27.5561 97.9812 27.5322 97.9336 27.4985C97.8852 27.468 97.8447 27.4265 97.8155 27.3774C97.7863 27.3283 97.7692 27.2729 97.7657 27.2158C97.7142 26.8347 97.7421 26.447 97.8476 26.0771C97.9439 25.7497 98.0815 25.4358 98.2572 25.1432C98.4294 24.8623 98.6269 24.5977 98.847 24.3526C99.0641 24.1069 99.2566 23.8775 99.4451 23.6563C99.6133 23.4588 99.7589 23.2431 99.8793 23.0132C99.9859 22.8154 100.025 22.5881 99.9898 22.366C99.959 22.1706 99.8815 21.9855 99.7638 21.8265C99.6462 21.6675 99.4918 21.5392 99.314 21.4526C98.8737 21.2399 98.3752 21.1794 97.8967 21.2806C97.4635 21.3439 97.0605 21.5397 96.743 21.8411C96.4255 22.1425 96.209 22.5348 96.1231 22.9641C96.0991 23.0673 96.0576 23.1657 96.0002 23.2549C95.9272 23.3326 95.828 23.3808 95.7217 23.3901L94.4273 23.599C94.3364 23.6164 94.2422 23.5972 94.1652 23.5457C94.1258 23.5186 94.0926 23.4834 94.0678 23.4424C94.0431 23.4015 94.0274 23.3557 94.0218 23.3081C93.9833 22.9017 94.0467 22.492 94.2062 22.1162C94.3681 21.6788 94.6067 21.2738 94.9107 20.9201C95.2439 20.5328 95.6365 20.201 96.074 19.9371C96.546 19.6508 97.069 19.4588 97.6141 19.3718ZM99.7277 28.3218C99.7841 28.3128 99.8417 28.3151 99.8972 28.3284C99.9528 28.3418 100.005 28.366 100.051 28.3996C100.1 28.4313 100.141 28.4729 100.172 28.5216C100.203 28.5703 100.223 28.6251 100.232 28.6822L100.461 30.0872C100.479 30.2012 100.451 30.3175 100.383 30.4111C100.316 30.5046 100.214 30.5678 100.1 30.5869L98.7282 30.8122C98.6143 30.8298 98.4981 30.8019 98.4047 30.7344C98.3571 30.7022 98.3169 30.6605 98.2866 30.6118C98.2562 30.5631 98.2365 30.5086 98.2285 30.4517L97.9991 29.0468C97.9887 28.9904 97.9903 28.9325 98.0037 28.8767C98.0171 28.821 98.0421 28.7687 98.077 28.7232C98.1091 28.6757 98.1509 28.6354 98.1996 28.6051C98.2483 28.5748 98.3028 28.555 98.3596 28.5471L99.7277 28.3218Z" fill="#A30000"/>
<g opacity="0.2">
<path d="M97.6141 19.3718C98.1073 19.2927 98.6092 19.283 99.1051 19.3431C99.5788 19.3994 100.039 19.538 100.465 19.7527C100.871 19.9632 101.228 20.2562 101.514 20.6129C101.77 20.962 101.951 21.3611 102.044 21.7844C102.138 22.2077 102.141 22.6459 102.054 23.0706C101.976 23.3971 101.851 23.7104 101.682 24.0004C101.519 24.2825 101.329 24.5485 101.116 24.795C100.907 25.0408 100.707 25.2743 100.522 25.4996C100.342 25.7094 100.181 25.9357 100.043 26.1754C99.9133 26.3855 99.8478 26.629 99.8547 26.8758C99.8511 26.9912 99.8187 27.1039 99.7605 27.2035C99.7308 27.2495 99.6918 27.2886 99.6459 27.3182C99.6 27.3479 99.5483 27.3674 99.4942 27.3756L98.2654 27.5722C98.208 27.5826 98.149 27.5815 98.0921 27.5688C98.0351 27.5561 97.9812 27.5322 97.9336 27.4985C97.8852 27.468 97.8447 27.4265 97.8155 27.3774C97.7863 27.3283 97.7692 27.2729 97.7657 27.2158C97.7142 26.8347 97.7421 26.447 97.8476 26.0771C97.9439 25.7497 98.0815 25.4358 98.2572 25.1432C98.4294 24.8623 98.6269 24.5977 98.847 24.3526C99.0641 24.1069 99.2566 23.8775 99.4451 23.6563C99.6133 23.4588 99.7589 23.2431 99.8793 23.0132C99.9859 22.8154 100.025 22.5881 99.9898 22.366C99.959 22.1706 99.8815 21.9855 99.7638 21.8265C99.6462 21.6675 99.4918 21.5392 99.314 21.4526C98.8737 21.2399 98.3752 21.1794 97.8967 21.2806C97.4635 21.3439 97.0605 21.5397 96.743 21.8411C96.4255 22.1425 96.209 22.5348 96.1231 22.9641C96.0991 23.0673 96.0576 23.1657 96.0002 23.2549C95.9272 23.3326 95.828 23.3808 95.7217 23.3901L94.4273 23.599C94.3364 23.6164 94.2422 23.5972 94.1652 23.5457C94.1258 23.5186 94.0926 23.4834 94.0678 23.4424C94.0431 23.4015 94.0274 23.3557 94.0218 23.3081C93.9833 22.9017 94.0467 22.492 94.2062 22.1162C94.3681 21.6788 94.6067 21.2738 94.9107 20.9201C95.2439 20.5328 95.6365 20.201 96.074 19.9371C96.546 19.6508 97.069 19.4588 97.6141 19.3718ZM99.7277 28.3218C99.7841 28.3128 99.8417 28.3151 99.8972 28.3284C99.9528 28.3418 100.005 28.366 100.051 28.3996C100.1 28.4313 100.141 28.4729 100.172 28.5216C100.203 28.5703 100.223 28.6251 100.232 28.6822L100.461 30.0872C100.479 30.2012 100.451 30.3175 100.383 30.4111C100.316 30.5046 100.214 30.5678 100.1 30.5869L98.7282 30.8122C98.6143 30.8298 98.4981 30.8019 98.4047 30.7344C98.3571 30.7022 98.3169 30.6605 98.2866 30.6118C98.2562 30.5631 98.2365 30.5086 98.2285 30.4517L97.9991 29.0468C97.9887 28.9904 97.9903 28.9325 98.0037 28.8767C98.0171 28.821 98.0421 28.7687 98.077 28.7232C98.1091 28.6757 98.1509 28.6354 98.1996 28.6051C98.2483 28.5748 98.3028 28.555 98.3596 28.5471L99.7277 28.3218Z" fill="black"/>
</g>
<path d="M109.198 21.5796C109.254 21.6184 109.301 21.6682 109.337 21.726C109.373 21.7837 109.397 21.8482 109.407 21.9155C109.42 21.9821 109.419 22.0507 109.404 22.117C109.389 22.1833 109.361 22.2458 109.321 22.3005L108.346 23.6727C108.307 23.7286 108.257 23.7759 108.2 23.8118C108.142 23.8477 108.077 23.8715 108.01 23.8816C107.943 23.8946 107.875 23.8937 107.809 23.8789C107.742 23.8641 107.68 23.8357 107.625 23.7956L106.281 22.8412C106.226 22.8029 106.178 22.7531 106.143 22.6952C106.108 22.6373 106.085 22.5726 106.077 22.5053C106.064 22.4387 106.065 22.3701 106.079 22.3038C106.094 22.2375 106.123 22.175 106.163 22.1203L107.15 20.7481C107.23 20.6369 107.35 20.5616 107.485 20.5386C107.62 20.5156 107.759 20.5467 107.871 20.6252L109.198 21.5796ZM114.867 12.2856C115.357 12.6289 115.793 13.043 116.161 13.5144C116.52 13.9529 116.798 14.4523 116.98 14.989C117.15 15.5032 117.208 16.0481 117.148 16.5865C117.079 17.1606 116.862 17.7068 116.518 18.1716C116.262 18.5475 115.933 18.8679 115.551 19.1137C115.214 19.3247 114.849 19.4848 114.465 19.5889C114.092 19.6865 113.711 19.7522 113.327 19.7855L112.237 19.8838C111.911 19.9099 111.587 19.9661 111.271 20.0518C110.979 20.118 110.712 20.2657 110.5 20.4777C110.405 20.5746 110.284 20.6428 110.152 20.6744C110.089 20.6924 110.023 20.6951 109.959 20.6823C109.895 20.6695 109.835 20.6415 109.784 20.6006L108.596 19.7568C108.482 19.6758 108.404 19.5539 108.379 19.4169C108.363 19.3504 108.364 19.2813 108.38 19.2151C108.397 19.149 108.428 19.0876 108.473 19.0359C108.75 18.6759 109.097 18.375 109.493 18.1512C109.849 17.9566 110.229 17.8093 110.623 17.7129C111.004 17.6206 111.392 17.5616 111.783 17.5368C112.168 17.5122 112.528 17.4835 112.864 17.4507C113.171 17.4236 113.475 17.3632 113.769 17.2705C114.027 17.1848 114.248 17.0163 114.4 16.7913C114.537 16.6013 114.626 16.381 114.659 16.1492C114.693 15.9175 114.67 15.681 114.592 15.46C114.399 14.9141 114.028 14.4485 113.54 14.137C112.655 13.5062 111.69 13.4857 110.644 14.0755C110.539 14.1425 110.422 14.1897 110.3 14.2148C110.236 14.2192 110.172 14.211 110.112 14.1906C110.051 14.1703 109.995 14.1381 109.947 14.096L108.686 13.199C108.64 13.1687 108.601 13.1295 108.571 13.0837C108.541 13.038 108.52 12.9866 108.51 12.9327C108.5 12.877 108.502 12.8198 108.515 12.7648C108.529 12.7098 108.553 12.6582 108.588 12.6132C108.885 12.2319 109.272 11.9294 109.714 11.7326C110.216 11.5051 110.754 11.3665 111.303 11.323C111.908 11.2724 112.517 11.3209 113.106 11.4663C113.741 11.6195 114.34 11.898 114.867 12.2856Z" fill="#A30000"/>
<g opacity="0.6">
<path d="M109.198 21.5796C109.254 21.6184 109.301 21.6682 109.337 21.726C109.373 21.7837 109.397 21.8482 109.407 21.9155C109.42 21.9821 109.419 22.0507 109.404 22.117C109.389 22.1833 109.361 22.2458 109.321 22.3005L108.346 23.6727C108.307 23.7286 108.257 23.7759 108.2 23.8118C108.142 23.8477 108.077 23.8715 108.01 23.8816C107.943 23.8946 107.875 23.8937 107.809 23.8789C107.742 23.8641 107.68 23.8357 107.625 23.7956L106.281 22.8412C106.226 22.8029 106.178 22.7531 106.143 22.6952C106.108 22.6373 106.085 22.5726 106.077 22.5053C106.064 22.4387 106.065 22.3701 106.079 22.3038C106.094 22.2375 106.123 22.175 106.163 22.1203L107.15 20.7481C107.23 20.6369 107.35 20.5616 107.485 20.5386C107.62 20.5156 107.759 20.5467 107.871 20.6252L109.198 21.5796ZM114.867 12.2856C115.357 12.6289 115.793 13.043 116.161 13.5144C116.52 13.9529 116.798 14.4523 116.98 14.989C117.15 15.5032 117.208 16.0481 117.148 16.5865C117.079 17.1606 116.862 17.7068 116.518 18.1716C116.262 18.5475 115.933 18.8679 115.551 19.1137C115.214 19.3247 114.849 19.4848 114.465 19.5889C114.092 19.6865 113.711 19.7522 113.327 19.7855L112.237 19.8838C111.911 19.9099 111.587 19.9661 111.271 20.0518C110.979 20.118 110.712 20.2657 110.5 20.4777C110.405 20.5746 110.284 20.6428 110.152 20.6744C110.089 20.6924 110.023 20.6951 109.959 20.6823C109.895 20.6695 109.835 20.6415 109.784 20.6006L108.596 19.7568C108.482 19.6758 108.404 19.5539 108.379 19.4169C108.363 19.3504 108.364 19.2813 108.38 19.2151C108.397 19.149 108.428 19.0876 108.473 19.0359C108.75 18.6759 109.097 18.375 109.493 18.1512C109.849 17.9566 110.229 17.8093 110.623 17.7129C111.004 17.6206 111.392 17.5616 111.783 17.5368C112.168 17.5122 112.528 17.4835 112.864 17.4507C113.171 17.4236 113.475 17.3632 113.769 17.2705C114.027 17.1848 114.248 17.0163 114.4 16.7913C114.537 16.6013 114.626 16.381 114.659 16.1492C114.693 15.9175 114.67 15.681 114.592 15.46C114.399 14.9141 114.028 14.4485 113.54 14.137C112.655 13.5062 111.69 13.4857 110.644 14.0755C110.539 14.1425 110.422 14.1897 110.3 14.2148C110.236 14.2192 110.172 14.211 110.112 14.1906C110.051 14.1703 109.995 14.1381 109.947 14.096L108.686 13.199C108.64 13.1687 108.601 13.1295 108.571 13.0837C108.541 13.038 108.52 12.9866 108.51 12.9327C108.5 12.877 108.502 12.8198 108.515 12.7648C108.529 12.7098 108.553 12.6582 108.588 12.6132C108.885 12.2319 109.272 11.9294 109.714 11.7326C110.216 11.5051 110.754 11.3665 111.303 11.323C111.908 11.2724 112.517 11.3209 113.106 11.4663C113.741 11.6195 114.34 11.898 114.867 12.2856Z" fill="white"/>
</g>
<path d="M78.6942 57.8383H64.1408V22.5791C64.1408 19.5166 65.3574 16.5796 67.5228 14.4142C69.6883 12.2487 72.6253 11.0322 75.6877 11.0322H77.0312C80.0937 11.0322 83.0307 12.2487 85.1961 14.4142C87.3616 16.5796 88.5781 19.5166 88.5781 22.5791V47.9749C88.5727 50.5927 87.529 53.1014 85.676 54.9506C83.823 56.7998 81.3121 57.8383 78.6942 57.8383Z" fill="#263238"/>
<path d="M62.7236 142.722C62.4661 144.183 62.3291 145.662 62.3139 147.145C62.2607 149.833 61.7692 150.787 61.7036 152.991C61.6258 155.51 62.0641 156.452 63.084 157.869C64.1039 159.286 66.7705 160.568 67.9256 158.176C69.0807 155.784 68.9128 154.215 68.5482 151.745C68.1755 149.189 68.1386 147.776 67.9092 145.831C67.7208 144.114 67.4996 142.808 67.4996 142.808L62.7236 142.722Z" fill="#263238"/>
<path d="M70.3505 124.875L61.5029 124.715C61.634 130.622 62.572 137.18 62.7318 142.738C62.7645 143.783 62.7072 150.844 63.1004 152.978C63.6943 156.206 67.5201 155.768 67.7249 153.839C67.9297 151.909 67.4791 143.664 67.4914 142.812C67.4546 139.256 69.1299 133.256 69.9941 126.874C70.031 126.567 70.3095 125.182 70.3505 124.875Z" fill="#FFA8A7"/>
<path d="M81.7172 138.126C81.7172 138.126 81.369 137.937 81.3076 138.31C81.2215 138.753 81.0905 139.666 80.898 140.395C80.644 141.407 80.431 143.074 80.5825 143.901C80.7341 144.729 82.6593 145.786 83.9086 146.171C85.4483 146.646 86.8525 147.481 88.0047 148.608C89.2335 149.771 91.9083 150.869 93.7392 150.857C95.8897 150.857 97.3888 150.14 98.0975 148.989C98.8061 147.838 97.4503 147.698 94.9926 146.121L93.0879 144.893C89.1925 142.349 87.763 140.989 86.6694 138.445L81.7172 138.126Z" fill="#263238"/>
<path d="M86.7021 136.549C86.6366 134.722 87.8982 119.194 87.8982 119.194L79.4971 123.024C81.2953 133.764 81.6803 136.299 81.709 138.056C81.6721 138.203 81.657 138.355 81.6639 138.507C81.6639 140.592 84.0274 141.718 85.8624 143.111C87.4224 144.333 89.0847 145.418 90.831 146.355C92.1663 147.023 94.878 147.084 95.2138 146.228C92.9774 144.52 89.7251 141.964 87.9473 140.014C87.079 139.097 86.7677 138.38 86.7021 136.549Z" fill="#FFA8A7"/>
<path d="M65.128 67.2388C61.9003 74.321 61.9003 79.8016 62.4369 88.8417C62.912 97.1363 63.7025 104.448 63.7025 104.448C63.5797 105.918 61.5357 108.79 61.2695 115.294C61.0237 121.373 61.6791 129.102 61.6791 129.102C61.6791 129.102 66.2708 131.646 69.6665 129.078C69.6665 129.078 72.9434 113.435 73.9018 105.824C74.7211 99.1843 76.1956 90.7013 76.1956 90.7013L79.2964 105.779C78.6272 107.918 78.142 110.111 77.8464 112.333C77.4122 116.81 79.919 125.6 79.919 125.6C79.919 125.6 84.6623 127.013 87.5582 124.445C87.5582 124.445 88.6396 110.154 89.0451 104.763C89.5858 97.5418 88.4471 77.9952 87.5582 67.6443L65.128 67.2388Z" fill="#455A64"/>
<path d="M76.2038 90.689L77.4777 79.3264C77.4777 79.3264 83.1877 78.5646 85.7764 76.1315C85.0355 77.2907 84.0484 78.2726 82.8853 79.0074C81.7222 79.7422 80.4116 80.2119 79.0465 80.3832L77.2033 90.9553L79.2964 105.779L76.2038 90.689Z" fill="#263238"/>
<path d="M99.3263 64.4453C99.5622 62.3718 99.6662 60.2854 99.6376 58.1987C99.5106 56.3964 99.1871 56.1015 96.668 52.9107C93.2682 48.5975 90.3641 44.7185 87.292 40.864C85.0965 38.1115 82.7863 37.6896 80.5416 37.8125C78.9687 37.8985 82.0408 45.464 83.585 49.941L92.4039 59.4358C92.6771 59.8105 92.8025 60.2728 92.7562 60.7342L92.2237 68.8117L94.8657 72.3508C94.8657 72.3508 98.8676 68.9018 99.3263 64.4453Z" fill="#FFA8A7"/>
<path d="M72.0381 38.0582C70.33 38.177 67.2252 38.4678 67.2252 38.4678C65.4352 39.4673 64.9805 40.2906 64.6487 42.6663C64.5054 43.6822 65.3328 46.3815 66.0414 50.2195L67.3849 57.3345L67.2375 60.8653C66.5411 63.0198 64.9641 65.6946 63.5715 69.6391C70.412 73.4567 76.1465 73.6001 81.3485 72.916C85.3136 72.404 87.4149 71.4455 88.1153 70.4952C87.9678 66.5998 87.7057 64.1913 87.6238 60.1198C87.5951 58.4117 87.6975 56.6832 87.7671 54.717C90.4255 52.5297 90.4583 48.8924 88.996 46.5248C85.6249 41.0647 82.3439 37.6281 80.173 37.8043L72.0381 38.0582Z" fill="#8E98A8"/>
<path opacity="0.6" d="M72.0381 38.0582C70.33 38.177 67.2252 38.4678 67.2252 38.4678C65.4352 39.4673 64.9805 40.2906 64.6487 42.6663C64.5054 43.6822 65.3328 46.3815 66.0414 50.2195L67.3849 57.3345L67.2375 60.8653C66.5411 63.0198 64.9641 65.6946 63.5715 69.6391C70.412 73.4567 76.1465 73.6001 81.3485 72.916C85.3136 72.404 87.4149 71.4455 88.1153 70.4952C87.9678 66.5998 87.7057 64.1913 87.6238 60.1198C87.5951 58.4117 87.6975 56.6832 87.7671 54.717C90.4255 52.5297 90.4583 48.8924 88.996 46.5248C85.6249 41.0647 82.3439 37.6281 80.173 37.8043L72.0381 38.0582Z" fill="white"/>
<path opacity="0.1" d="M82.4709 54.7703C82.4709 54.7703 79.3496 57.1952 75.7819 55.9295C74.7801 55.6138 73.8767 55.0449 73.1591 54.2778C72.4415 53.5107 71.9341 52.5714 71.6858 51.5508C71.6858 51.5508 71.309 55.6264 75.8024 57.015C80.1566 58.3544 82.4709 54.7703 82.4709 54.7703Z" fill="black"/>
<path d="M86.7062 26.8717C86.5711 32.7865 84.6582 34.2447 83.6915 34.6543C82.7248 35.0639 80.8734 34.8182 79.0711 34.5192V38.091C79.0711 38.091 81.1519 40.2701 80.9963 41.8962C80.8406 43.5224 77.7194 43.7067 75.3928 42.1133C74.109 41.2315 72.9479 40.1833 71.9398 38.9962C71.7462 38.7672 71.6403 38.4768 71.6408 38.177V29.8209C71.6408 29.8209 70.6536 30.8654 68.9087 29.6694C68.5322 29.4291 68.2098 29.1131 67.962 28.7415C67.7142 28.3699 67.5465 27.9508 67.4694 27.5108C67.3924 27.0709 67.4077 26.6197 67.5145 26.186C67.6212 25.7523 67.817 25.3456 68.0895 24.9916C68.8513 24.0946 70.7847 24.0331 71.7104 25.4012C72.2347 26.4212 72.3043 27.4493 72.8901 27.0397C74.4466 25.9173 73.611 23.3532 75.4911 22.1244C76.1081 21.8023 76.749 21.5285 77.4081 21.3051C80.7628 20.1459 83.671 19.1711 84.3715 16.8773C85.6904 17.6309 86.8701 19.8961 86.7062 26.8717Z" fill="#FFA8A7"/>
<path d="M80.091 32.1557C80.5209 32.1557 80.8693 31.8073 80.8693 31.3774C80.8693 30.9476 80.5209 30.5992 80.091 30.5992C79.6612 30.5992 79.3128 30.9476 79.3128 31.3774C79.3128 31.8073 79.6612 32.1557 80.091 32.1557Z" fill="#B16668"/>
<path d="M79.5749 25.9747C79.5747 26.135 79.5275 26.2916 79.4392 26.4253C79.3509 26.559 79.2253 26.6639 79.0779 26.7269C78.9306 26.7899 78.7681 26.8084 78.6104 26.7799C78.4527 26.7515 78.3068 26.6774 78.1907 26.5669C78.0747 26.4564 77.9936 26.3143 77.9575 26.1582C77.9215 26.0021 77.9319 25.8388 77.9877 25.6886C78.0435 25.5383 78.1421 25.4078 78.2713 25.313C78.4005 25.2183 78.5547 25.1635 78.7148 25.1555C78.8257 25.1499 78.9367 25.167 79.0408 25.2057C79.145 25.2444 79.2402 25.3038 79.3207 25.3805C79.4012 25.4571 79.4652 25.5493 79.5089 25.6515C79.5526 25.7536 79.5751 25.8636 79.5749 25.9747Z" fill="#263238"/>
<path d="M85.7805 26.0566C85.7889 26.1569 85.7772 26.2577 85.7462 26.3534C85.7152 26.4491 85.6655 26.5376 85.5999 26.6139C85.5343 26.6901 85.4542 26.7526 85.3643 26.7975C85.2743 26.8425 85.1763 26.8691 85.076 26.8759C84.9747 26.8852 84.8727 26.8729 84.7765 26.8398C84.6804 26.8067 84.5924 26.7535 84.5184 26.6837C84.4445 26.614 84.3861 26.5293 84.3474 26.4353C84.3086 26.3413 84.2903 26.2402 84.2936 26.1386C84.2831 26.0376 84.2932 25.9355 84.3235 25.8387C84.3538 25.7418 84.4035 25.6521 84.4696 25.5751C84.5358 25.4981 84.617 25.4354 84.7082 25.3909C84.7994 25.3464 84.8988 25.321 85.0002 25.3162C85.1016 25.3115 85.2029 25.3275 85.2979 25.3633C85.3929 25.3991 85.4796 25.4539 85.5526 25.5244C85.6257 25.5948 85.6836 25.6795 85.7228 25.7731C85.762 25.8668 85.7816 25.9674 85.7805 26.0689V26.0566Z" fill="#263238"/>
<path d="M78.5222 28.0801C77.8157 28.0801 77.1381 27.7997 76.6381 27.3005C76.1382 26.8014 75.8567 26.1242 75.8557 25.4177C75.8557 23.6072 77.7235 23.6072 78.5222 23.6072C79.3209 23.6072 81.1847 23.6072 81.1847 25.4177C81.1836 26.1234 80.9027 26.8 80.4037 27.2991C79.9046 27.7982 79.228 28.079 78.5222 28.0801ZM78.5222 24.025C76.8838 24.025 76.2775 24.4346 76.2775 25.4177C76.2775 26.0151 76.5149 26.5882 76.9374 27.0107C77.3599 27.4332 77.9329 27.6705 78.5304 27.6705C79.1279 27.6705 79.7009 27.4332 80.1234 27.0107C80.5459 26.5882 80.7833 26.0151 80.7833 25.4177C80.7669 24.4141 80.1361 24.025 78.5222 24.025Z" fill="#455A64"/>
<path d="M85.2849 28.0801C84.5784 28.0801 83.9007 27.7997 83.4008 27.3005C82.9008 26.8014 82.6194 26.1242 82.6183 25.4177C82.6183 23.6072 84.4861 23.6072 85.2849 23.6072C86.0836 23.6072 87.9473 23.6072 87.9473 25.4177C87.9463 26.1234 87.6654 26.8 87.1663 27.2991C86.6673 27.7982 85.9907 28.079 85.2849 28.0801ZM85.2849 24.025C83.671 24.025 83.0402 24.4346 83.0402 25.4177C83.0402 26.0151 83.2776 26.5882 83.7001 27.0107C84.1226 27.4332 84.6956 27.6705 85.2931 27.6705C85.8906 27.6705 86.4636 27.4332 86.8861 27.0107C87.3086 26.5882 87.5459 26.0151 87.5459 25.4177C87.5295 24.4141 86.8987 24.025 85.2849 24.025Z" fill="#455A64"/>
<path d="M81.5984 24.5574L81.7295 29.5342L84.3469 28.7232L81.5984 24.5574Z" fill="#F28F8F"/>
<path d="M79.067 34.5315C77.1664 34.2816 73.2546 33.1593 72.6443 31.611C72.89 32.3935 73.3687 33.0823 74.0165 33.5853C75.1839 34.5888 79.067 35.7153 79.067 35.7153V34.5315Z" fill="#F28F8F"/>
<path d="M79.1612 22.1408L77.4245 23.2017C77.2876 22.9633 77.2478 22.6813 77.3134 22.4143C77.379 22.1473 77.5449 21.9159 77.7767 21.768C77.8913 21.6985 78.0188 21.6529 78.1515 21.6341C78.2842 21.6152 78.4193 21.6234 78.5487 21.6583C78.6781 21.6931 78.7991 21.7539 78.9044 21.8368C79.0097 21.9197 79.097 22.0231 79.1612 22.1408Z" fill="#263238"/>
<path d="M86.227 23.3204L84.2936 22.6446C84.331 22.5164 84.3943 22.3973 84.4794 22.2945C84.5646 22.1917 84.6698 22.1074 84.7888 22.0468C84.9077 21.9862 85.0378 21.9506 85.171 21.9421C85.3042 21.9336 85.4377 21.9524 85.5634 21.9974C85.8227 22.0906 86.0362 22.2799 86.1598 22.5262C86.2833 22.7725 86.3074 23.0569 86.227 23.3204Z" fill="#263238"/>
<path d="M80.9758 25.6306C80.948 25.6306 80.9205 25.6251 80.8949 25.6143C80.8693 25.6036 80.8461 25.5878 80.8266 25.568C80.8072 25.5481 80.7919 25.5246 80.7816 25.4988C80.7713 25.473 80.7663 25.4454 80.7669 25.4176C80.7669 25.0776 81.4387 24.8564 82.0449 24.8564C82.6511 24.8564 83.0402 25.0776 83.0402 25.4176C83.0275 25.4621 83.0006 25.5013 82.9637 25.5291C82.9267 25.557 82.8817 25.5721 82.8354 25.5721C82.7891 25.5721 82.7441 25.557 82.7071 25.5291C82.6702 25.5013 82.6433 25.4621 82.6306 25.4176C82.6306 25.3766 82.4217 25.2742 82.0572 25.2742C81.7636 25.268 81.4717 25.3181 81.197 25.4217C81.197 25.4502 81.1912 25.4784 81.18 25.5046C81.1687 25.5308 81.1522 25.5544 81.1315 25.5739C81.1108 25.5935 81.0863 25.6086 81.0595 25.6184C81.0327 25.6281 81.0042 25.6323 80.9758 25.6306Z" fill="#455A64"/>
<path d="M76.0728 25.4504H76.0482L71.3663 25.0408C71.1476 24.824 70.887 24.6539 70.6004 24.5411L76.0973 25.049C76.1524 25.0562 76.2026 25.0846 76.237 25.1282C76.2714 25.1718 76.2875 25.2272 76.2817 25.2825C76.2721 25.3305 76.2459 25.3737 76.2077 25.4044C76.1695 25.4351 76.1217 25.4514 76.0728 25.4504Z" fill="#455A64"/>
<path d="M56.8497 30.333C58.3817 28.2849 59.4262 26.7407 60.823 25.008C61.6176 24.0127 62.1255 23.3 62.871 22.28C63.3953 21.5755 63.6902 20.9816 64.2883 20.7645C64.9344 20.4997 65.5166 20.1004 65.9963 19.593C66.2912 19.2668 66.5648 18.922 66.8156 18.5608C67.6935 17.3791 68.7363 16.3294 69.9122 15.4437C71.141 14.5179 72.5132 13.8052 73.7789 12.9245C74.5326 12.3962 75.3395 11.5196 74.422 10.7004C74.1406 10.4634 73.8039 10.3013 73.4431 10.2293C71.2107 9.74598 69.2691 10.5119 67.0859 11.069C66.1376 11.3057 65.2101 11.6194 64.3128 12.007C63.8715 12.1816 63.4576 12.4189 63.084 12.7116C62.5617 13.2382 62.1336 13.8506 61.8183 14.522C60.8639 16.226 58.8159 17.7498 57.3822 19.0974C55.7069 20.6744 54.2078 22.1203 52.2949 23.857C50.5745 25.4258 48.891 26.8677 47.314 28.5798C46.0074 29.993 46.4948 31.0989 46.6668 31.484C47.7318 33.6713 48.9238 34.4577 50.3533 35.8136C52.811 38.1606 61.3104 44.9151 64.1244 47.1475C64.729 47.6223 65.2039 48.2423 65.5048 48.9497L66.0455 50.199C69.2568 50.7889 71.3991 45.9678 68.7407 40.1636C68.3005 39.225 67.628 38.4144 66.7869 37.8084C63.4281 35.363 56.8497 30.333 56.8497 30.333Z" fill="#FFA8A7"/>
<path d="M56.8498 30.3329C55.8276 31.5904 54.4655 32.5274 52.9257 33.0323C52.9257 33.0323 54.9737 33.5566 57.7796 31.0375L56.8498 30.3329Z" fill="#F28F8F"/>
<path d="M98.4907 60.173L97.9664 59.7225C97.888 59.6709 97.7987 59.6384 97.7054 59.6277C97.6122 59.617 97.5178 59.6285 97.4298 59.661L91.7403 61.2094C91.4537 61.3049 91.1912 61.4613 90.9706 61.6677C90.75 61.8741 90.5766 62.1258 90.4623 62.4054L86.3662 74.2145C86.3169 74.3107 86.2976 74.4195 86.3107 74.5268C86.3239 74.6342 86.3689 74.7351 86.44 74.8166L86.9807 75.2836C87.0594 75.3378 87.1501 75.3721 87.245 75.3835C87.3399 75.3949 87.4361 75.3831 87.5254 75.3491L93.2231 73.8008C93.5097 73.7052 93.7723 73.5489 93.9929 73.3424C94.2134 73.136 94.3868 72.8843 94.5011 72.6047C95.3203 70.2822 97.778 63.1181 98.5972 60.7956C98.6955 60.5048 98.6464 60.2836 98.4907 60.173Z" fill="#455A64"/>
<path d="M86.9028 74.6691L90.9989 62.8601C91.1128 62.5806 91.286 62.3293 91.5067 62.1234C91.7274 61.9176 91.9902 61.7622 92.2769 61.6681L97.9623 60.1198C98.4907 59.9764 98.7815 60.2795 98.5931 60.7956C97.7739 63.1181 95.3162 70.2822 94.497 72.6047C94.3827 72.8843 94.2093 73.136 93.9888 73.3424C93.7682 73.5489 93.5056 73.7052 93.219 73.8008L87.5336 75.3655C87.0093 75.4884 86.7267 75.1852 86.9028 74.6691Z" fill="#8E98A8"/>
<path d="M91.6584 61.9958C91.3627 62.2198 91.1333 62.52 90.9949 62.8642L86.8988 74.6692C86.8519 74.7629 86.8323 74.868 86.8425 74.9723C86.8526 75.0767 86.892 75.176 86.9561 75.259L86.4482 74.8248C86.3754 74.7443 86.329 74.6435 86.3151 74.5359C86.3012 74.4283 86.3205 74.319 86.3704 74.2227L90.4665 62.4136C90.596 62.0926 90.8062 61.8104 91.0768 61.5944L91.6584 61.9958Z" fill="#37474F"/>
<path d="M96.9301 65.5553C96.5205 66.7555 95.0991 67.5583 92.748 68.1154C90.3968 68.6725 89.0984 71.167 89.4711 71.9248C89.8439 72.6826 93.645 73.3912 95.1647 73.1741C96.6843 72.957 98.2081 70.7615 98.6709 70.0815C99.1338 69.4016 99.6663 64.6583 99.1789 64.007C98.6914 63.3557 97.6633 63.4581 97.6633 63.4581L96.9301 65.5553Z" fill="#F28F8F"/>
</svg>
