<svg width="1577" height="1175" viewBox="0 0 1577 1175" fill="none" xmlns="http://www.w3.org/2000/svg">
<path d="M1576.92 1032.57H0V1033.36H1576.92V1032.57Z" fill="#EBEBEB"/>
<path d="M1418.92 1083.31H1314.46V1084.1H1418.92V1083.31Z" fill="#EBEBEB"/>
<path d="M1044.62 1091.89H1017.21V1092.68H1044.62V1091.89Z" fill="#EBEBEB"/>
<path d="M1311.31 1054.05H1250.78V1054.84H1311.31V1054.05Z" fill="#EBEBEB"/>
<path d="M301.665 1059.35H165.451V1060.13H301.665V1059.35Z" fill="#EBEBEB"/>
<path d="M349.73 1059.35H329.766V1060.13H349.73V1059.35Z" fill="#EBEBEB"/>
<path d="M710.088 1072.65H414.636V1073.44H710.088V1072.65Z" fill="#EBEBEB"/>
<path d="M747.461 891.907H138.485C133.715 891.899 129.142 889.998 125.772 886.622C122.401 883.246 120.508 878.67 120.508 873.899V17.8508C120.55 13.1075 122.461 8.57208 125.827 5.22976C129.193 1.88744 133.742 0.00812553 138.485 0H747.461C752.237 0 756.818 1.89731 760.195 5.27456C763.572 8.6518 765.47 13.2323 765.47 18.0085V873.899C765.47 878.675 763.572 883.256 760.195 886.633C756.818 890.01 752.237 891.907 747.461 891.907ZM138.485 0.630772C133.924 0.639126 129.552 2.45705 126.329 5.68552C123.107 8.91399 121.297 13.2892 121.297 17.8508V873.899C121.297 878.461 123.107 882.836 126.329 886.064C129.552 889.293 133.924 891.111 138.485 891.119H747.461C752.026 891.111 756.401 889.294 759.628 886.066C762.856 882.839 764.673 878.464 764.681 873.899V17.8508C764.673 13.2863 762.856 8.91117 759.628 5.6836C756.401 2.45603 752.026 0.639108 747.461 0.630772H138.485Z" fill="#EBEBEB"/>
<path d="M1429.67 891.907H820.662C815.889 891.899 811.313 889.999 807.938 886.624C804.562 883.248 802.662 878.673 802.654 873.899V17.8508C802.704 13.1046 804.622 8.56924 807.993 5.22779C811.364 1.88634 815.916 0.00803691 820.662 0H1429.67C1434.41 0.0164142 1438.95 1.8994 1442.31 5.24083C1445.67 8.58227 1447.57 13.1129 1447.62 17.8508V873.899C1447.62 878.664 1445.73 883.235 1442.36 886.611C1439 889.986 1434.44 891.891 1429.67 891.907ZM820.662 0.630772C816.098 0.639108 811.723 2.45603 808.495 5.6836C805.268 8.91117 803.451 13.2863 803.442 17.8508V873.899C803.451 878.464 805.268 882.839 808.495 886.066C811.723 889.294 816.098 891.111 820.662 891.119H1429.67C1434.23 891.111 1438.61 889.294 1441.84 886.066C1445.06 882.839 1446.88 878.464 1446.89 873.899V17.8508C1446.88 13.2863 1445.06 8.91117 1441.84 5.6836C1438.61 2.45603 1434.23 0.639108 1429.67 0.630772H820.662Z" fill="#EBEBEB"/>
<path d="M913.637 375.497L1348.17 375.497V90.9254L913.637 90.9254V375.497Z" fill="#E6E6E6"/>
<path d="M900.36 375.497L1341.96 375.497V90.9254L900.36 90.9254V375.497Z" fill="#F0F0F0"/>
<path d="M913.637 431.32L1348.17 431.32V375.465L913.637 375.465V431.32Z" fill="#E6E6E6"/>
<path d="M878.315 431.32L1319.92 431.32V375.465L878.315 375.465V431.32Z" fill="#F0F0F0"/>
<path d="M1323.42 356.952V109.501L918.936 109.501V356.952H1323.42Z" fill="#FAFAFA"/>
<path d="M1232.21 356.921L1180.55 109.501H1099.94L1151.6 356.921H1232.21Z" fill="white"/>
<path d="M1314.84 338.471C1315.01 338.471 1315.19 338.435 1315.35 338.367C1315.52 338.298 1315.66 338.198 1315.79 338.072C1315.91 337.945 1316.01 337.796 1316.07 337.631C1316.14 337.467 1316.17 337.291 1316.16 337.115V121.581C1316.16 121.229 1316.02 120.893 1315.77 120.644C1315.53 120.396 1315.19 120.256 1314.84 120.256C1314.66 120.252 1314.49 120.283 1314.33 120.348C1314.16 120.413 1314.02 120.511 1313.89 120.634C1313.77 120.758 1313.67 120.906 1313.61 121.069C1313.54 121.231 1313.51 121.406 1313.51 121.581V337.115C1313.51 337.291 1313.54 337.467 1313.61 337.631C1313.67 337.796 1313.77 337.945 1313.89 338.072C1314.01 338.198 1314.16 338.298 1314.32 338.367C1314.49 338.435 1314.66 338.471 1314.84 338.471Z" fill="#F0F0F0"/>
<path d="M1134.28 356.921L1082.62 109.501H1051.18L1102.87 356.921H1134.28Z" fill="white"/>
<path d="M921.301 356.952V109.501H918.936V356.952H921.301Z" fill="#E6E6E6"/>
<path opacity="0.6" d="M896.008 137.476H1330.54L1332.25 116.692H897.711L896.008 137.476Z" fill="#EBEBEB"/>
<path opacity="0.6" d="M896.008 171.538H1330.54L1332.25 150.785H897.711L896.008 171.538Z" fill="#EBEBEB"/>
<path opacity="0.6" d="M896.008 205.599H1330.54L1332.25 184.847H897.711L896.008 205.599Z" fill="#EBEBEB"/>
<path opacity="0.6" d="M896.008 239.692H1330.54L1332.25 218.908H897.711L896.008 239.692Z" fill="#EBEBEB"/>
<path opacity="0.6" d="M896.008 273.754H1330.54L1332.25 252.97H897.711L896.008 273.754Z" fill="#EBEBEB"/>
<path opacity="0.6" d="M896.008 307.815H1330.54L1332.25 287.031H897.711L896.008 307.815Z" fill="#EBEBEB"/>
<path d="M1285.79 825.614H1194.68V843.591H1285.79V825.614Z" fill="#E6E6E6"/>
<path d="M1022.82 1032.57H1039.63V619.194H1022.82V1032.57Z" fill="#E6E6E6"/>
<path d="M964.541 843.591H1194.65V825.614H964.541V843.591Z" fill="#F5F5F5"/>
<path d="M1285.79 923.919H1194.68V941.896H1285.79V923.919Z" fill="#E6E6E6"/>
<path d="M964.541 941.864H1194.65V923.888H964.541V941.864Z" fill="#F5F5F5"/>
<path d="M1285.79 629.034H1194.68V647.011H1285.79V629.034Z" fill="#E6E6E6"/>
<path d="M964.541 646.98H1194.65V629.003H964.541V646.98Z" fill="#F5F5F5"/>
<path d="M1285.79 727.308H1194.68V745.285H1285.79V727.308Z" fill="#E6E6E6"/>
<path d="M964.541 745.285H1194.65V727.308H964.541V745.285Z" fill="#F5F5F5"/>
<path d="M1252.96 1032.57H1269.77V619.194H1252.96V1032.57Z" fill="#E6E6E6"/>
<path d="M1177.84 1032.57H1194.65V619.194H1177.84V1032.57Z" fill="#F5F5F5"/>
<path d="M964.541 1032.57H981.351V619.194H964.541V1032.57Z" fill="#F5F5F5"/>
<path d="M206.199 1032.57H378.335L378.335 698.608H206.199L206.199 1032.57Z" fill="#E6E6E6"/>
<path d="M252.15 1032.57H206.167V986.46H300.341L252.15 1032.57Z" fill="#FAFAFA"/>
<path d="M675.49 1032.57H847.627V698.608H675.49V1032.57Z" fill="#E6E6E6"/>
<path d="M206.198 1016.67L715.639 1016.67V698.577H206.198L206.198 1016.67Z" fill="#FAFAFA"/>
<path d="M669.656 1032.57H715.608V986.46H621.465L669.656 1032.57Z" fill="#FAFAFA"/>
<path d="M241.837 896.733H679.969V817.13H241.837V896.733Z" fill="#F0F0F0"/>
<path d="M241.837 993.335H679.969V913.732H241.837V993.335Z" fill="#F0F0F0"/>
<path d="M596.708 825.645H325.13C321.299 825.645 317.625 824.123 314.916 821.415C312.207 818.706 310.685 815.032 310.685 811.201V810.223H611.121V811.201C611.121 815.026 609.603 818.695 606.901 821.403C604.199 824.111 600.533 825.637 596.708 825.645Z" fill="#FAFAFA"/>
<path d="M241.837 800.099H679.969V720.496H241.837V800.099Z" fill="#F0F0F0"/>
<path d="M596.708 729.011H325.13C321.299 729.011 317.625 727.49 314.916 724.781C312.207 722.072 310.685 718.398 310.685 714.567V713.589H611.121V714.567C611.121 718.392 609.603 722.062 606.901 724.77C604.199 727.478 600.533 729.003 596.708 729.011Z" fill="#FAFAFA"/>
<path d="M596.708 922.279H325.13C321.299 922.279 317.625 920.757 314.916 918.048C312.207 915.339 310.685 911.665 310.685 907.834V906.857H611.121V907.834C611.121 911.66 609.603 915.329 606.901 918.037C604.199 920.745 600.533 922.271 596.708 922.279Z" fill="#FAFAFA"/>
<path d="M233.605 375.497L668.142 375.497V90.9254L233.605 90.9254L233.605 375.497Z" fill="#E6E6E6"/>
<path d="M220.359 375.497L661.961 375.497V90.9254L220.359 90.9254L220.359 375.497Z" fill="#F0F0F0"/>
<path d="M233.605 431.32L668.142 431.32V375.465L233.605 375.465V431.32Z" fill="#E6E6E6"/>
<path d="M198.251 431.32L639.852 431.32V375.465L198.251 375.465V431.32Z" fill="#F0F0F0"/>
<path d="M643.385 356.952V109.501L238.904 109.501V356.952H643.385Z" fill="#FAFAFA"/>
<path d="M552.175 356.921L500.515 109.501H419.903L471.563 356.921H552.175Z" fill="white"/>
<path d="M634.775 338.471C634.951 338.471 635.126 338.435 635.289 338.367C635.452 338.298 635.599 338.198 635.723 338.072C635.846 337.945 635.943 337.796 636.008 337.631C636.072 337.467 636.104 337.291 636.099 337.115V121.581C636.104 121.406 636.072 121.231 636.007 121.069C635.942 120.906 635.845 120.758 635.721 120.634C635.597 120.511 635.449 120.413 635.287 120.348C635.124 120.283 634.95 120.252 634.775 120.256C634.423 120.256 634.086 120.396 633.838 120.644C633.59 120.893 633.45 121.229 633.45 121.581V337.115C633.446 337.291 633.477 337.467 633.542 337.631C633.606 337.796 633.703 337.945 633.827 338.072C633.95 338.198 634.098 338.298 634.26 338.367C634.423 338.435 634.598 338.471 634.775 338.471Z" fill="#F0F0F0"/>
<path d="M454.248 356.921L402.588 109.501H371.145L422.805 356.921H454.248Z" fill="white"/>
<path d="M241.269 356.952L241.269 109.501H238.904L238.904 356.952H241.269Z" fill="#E6E6E6"/>
<path opacity="0.6" d="M215.944 137.476H650.481L652.184 116.692H217.647L215.944 137.476Z" fill="#EBEBEB"/>
<path opacity="0.6" d="M215.944 149.208H650.481L652.184 128.425H217.647L215.944 149.208Z" fill="#EBEBEB"/>
<path opacity="0.6" d="M215.944 160.909H650.481L652.184 140.157H217.647L215.944 160.909Z" fill="#EBEBEB"/>
<path opacity="0.6" d="M215.944 172.641H650.481L652.184 151.858H217.647L215.944 172.641Z" fill="#EBEBEB"/>
<path opacity="0.6" d="M215.944 184.342H650.481L652.184 163.59H217.647L215.944 184.342Z" fill="#EBEBEB"/>
<path opacity="0.6" d="M215.944 196.075H650.481L652.184 175.291H217.647L215.944 196.075Z" fill="#EBEBEB"/>
<path d="M302.832 688.39H317.845V520.952H302.832V688.39Z" fill="#F5F5F5"/>
<path d="M304.725 688.295H308.982V520.857H304.725V688.295Z" fill="#FAFAFA"/>
<path d="M310.748 688.295H312.42V520.857H310.748V688.295Z" fill="#FAFAFA"/>
<path d="M365.941 698.608H254.799C254.799 694.895 256.275 691.333 258.901 688.707C261.527 686.081 265.089 684.605 268.802 684.605H351.906C355.62 684.605 359.182 686.081 361.808 688.707C364.434 691.333 365.909 694.895 365.909 698.608H365.941Z" fill="#F0F0F0"/>
<path d="M283.342 624.903C284.485 624.895 285.579 624.437 286.388 623.628C287.196 622.82 287.654 621.726 287.662 620.582V510.923C287.662 509.777 287.207 508.678 286.397 507.868C285.587 507.057 284.487 506.602 283.342 506.602C282.771 506.598 282.206 506.707 281.678 506.922C281.151 507.137 280.67 507.455 280.266 507.857C279.861 508.258 279.54 508.736 279.321 509.262C279.102 509.789 278.989 510.353 278.989 510.923V620.708C279.03 621.835 279.507 622.902 280.318 623.685C281.13 624.467 282.214 624.904 283.342 624.903Z" fill="#F0F0F0"/>
<path d="M243.067 560.754H377.578L362.093 466.769H258.552L243.067 560.754Z" fill="#E0E0E0"/>
<path d="M788.462 1175C1126.18 1175 1399.96 1159.01 1399.96 1139.3C1399.96 1119.58 1126.18 1103.59 788.462 1103.59C450.74 1103.59 176.962 1119.58 176.962 1139.3C176.962 1159.01 450.74 1175 788.462 1175Z" fill="#F5F5F5"/>
<path d="M328.374 464.748L325.229 464.974L329.418 523.138L332.564 522.912L328.374 464.748Z" fill="#263238"/>
<path d="M334.701 552.938L331.556 553.164L333.133 575.058L336.278 574.832L334.701 552.938Z" fill="#263238"/>
<path d="M1065.09 820.504H389.658C382.139 820.369 374.937 817.456 369.44 812.325C363.942 807.194 360.539 800.21 359.886 792.719L326.707 331.848C326.398 328.293 326.838 324.714 327.997 321.34C329.156 317.965 331.009 314.871 333.436 312.257C335.863 309.642 338.811 307.565 342.09 306.159C345.369 304.753 348.907 304.05 352.474 304.094H1027.9C1035.42 304.228 1042.61 307.138 1048.11 312.262C1053.61 317.386 1057.01 324.362 1057.67 331.848L1090.85 792.719C1091.16 796.275 1090.72 799.856 1089.56 803.232C1088.4 806.607 1086.55 809.703 1084.12 812.32C1081.7 814.937 1078.75 817.018 1075.47 818.427C1072.19 819.837 1068.65 820.544 1065.09 820.504Z" fill="#263238"/>
<path d="M1067.67 820.504H392.244C384.725 820.369 377.523 817.455 372.026 812.325C366.528 807.194 363.125 800.21 362.471 792.719L329.293 331.848C328.984 328.293 329.424 324.714 330.583 321.34C331.742 317.965 333.594 314.871 336.022 312.257C338.449 309.642 341.397 307.565 344.676 306.159C347.955 304.753 351.493 304.05 355.06 304.094H1030.49C1038 304.228 1045.2 307.138 1050.7 312.262C1056.19 317.386 1059.6 324.362 1060.26 331.848L1093.44 792.719C1093.75 796.276 1093.32 799.859 1092.16 803.237C1091 806.615 1089.15 809.713 1086.72 812.331C1084.29 814.949 1081.34 817.029 1078.06 818.437C1074.78 819.845 1071.24 820.549 1067.67 820.504Z" fill="#263238"/>
<path opacity="0.5" d="M1067.67 820.504H392.244C384.725 820.369 377.523 817.455 372.026 812.325C366.528 807.194 363.125 800.21 362.471 792.719L329.293 331.848C328.984 328.293 329.424 324.714 330.583 321.34C331.742 317.965 333.594 314.871 336.022 312.257C338.449 309.642 341.397 307.565 344.676 306.159C347.955 304.753 351.493 304.05 355.06 304.094H1030.49C1038 304.228 1045.2 307.138 1050.7 312.262C1056.19 317.386 1059.6 324.362 1060.26 331.848L1093.44 792.719C1093.75 796.276 1093.32 799.859 1092.16 803.237C1091 806.615 1089.15 809.713 1086.72 812.331C1084.29 814.949 1081.34 817.029 1078.06 818.437C1074.78 819.845 1071.24 820.549 1067.67 820.504Z" fill="white"/>
<path d="M1031.5 317.971H356.07H353.799C336.547 319.39 340.08 345.661 357.489 345.661H1034.05C1051.49 345.661 1051.24 319.39 1033.77 317.971H1031.5Z" fill="#263238"/>
<path d="M373.668 331.848C373.734 332.661 373.629 333.479 373.36 334.249C373.091 335.019 372.663 335.724 372.104 336.318C371.545 336.912 370.868 337.383 370.116 337.699C369.364 338.016 368.554 338.171 367.739 338.155C366.025 338.131 364.38 337.473 363.122 336.309C361.864 335.144 361.082 333.555 360.926 331.848C360.86 331.037 360.965 330.222 361.232 329.454C361.5 328.686 361.925 327.983 362.48 327.389C363.035 326.795 363.709 326.324 364.457 326.005C365.205 325.687 366.011 325.528 366.824 325.54C368.544 325.556 370.196 326.211 371.461 327.376C372.725 328.541 373.512 330.135 373.668 331.848Z" fill="#FAFAFA"/>
<path d="M395.335 331.848C395.401 332.661 395.296 333.479 395.026 334.249C394.757 335.019 394.329 335.724 393.77 336.318C393.212 336.912 392.535 337.383 391.783 337.699C391.031 338.016 390.221 338.171 389.405 338.155C387.691 338.131 386.047 337.473 384.789 336.309C383.531 335.144 382.749 333.555 382.593 331.848C382.527 331.037 382.631 330.222 382.899 329.454C383.166 328.686 383.591 327.983 384.146 327.389C384.702 326.795 385.375 326.324 386.123 326.005C386.871 325.687 387.678 325.528 388.491 325.54C390.21 325.556 391.863 326.211 393.127 327.376C394.392 328.541 395.178 330.135 395.335 331.848Z" fill="#FAFAFA"/>
<path d="M416.97 331.848C417.036 332.658 416.932 333.473 416.664 334.241C416.397 335.009 415.972 335.712 415.416 336.306C414.861 336.9 414.188 337.371 413.44 337.69C412.692 338.008 411.885 338.167 411.072 338.155C409.356 338.138 407.708 337.483 406.448 336.317C405.189 335.151 404.409 333.558 404.26 331.848C404.189 331.036 404.29 330.219 404.555 329.449C404.821 328.679 405.246 327.974 405.802 327.379C406.358 326.784 407.034 326.312 407.784 325.996C408.535 325.679 409.343 325.524 410.158 325.54C411.872 325.564 413.516 326.222 414.774 327.387C416.032 328.551 416.814 330.14 416.97 331.848Z" fill="#FAFAFA"/>
<path d="M1049.76 774.521H403.692C400.963 774.476 398.348 773.418 396.355 771.553C394.362 769.688 393.133 767.149 392.906 764.429L365.625 385.432C365.504 384.131 365.66 382.819 366.085 381.584C366.509 380.349 367.191 379.218 368.086 378.266C368.981 377.315 370.068 376.564 371.275 376.065C372.482 375.566 373.781 375.329 375.087 375.371H1021.31C1024.04 375.408 1026.65 376.459 1028.64 378.319C1030.64 380.179 1031.87 382.714 1032.1 385.432L1059.41 764.429C1059.53 765.746 1059.36 767.074 1058.92 768.322C1058.49 769.57 1057.79 770.711 1056.87 771.667C1055.96 772.623 1054.85 773.372 1053.62 773.864C1052.4 774.357 1051.08 774.581 1049.76 774.521Z" fill="white"/>
<path d="M777.518 630.138L766.984 484.052L735.13 464.877H647.421L659.343 630.138H777.518Z" fill="white"/>
<path d="M777.518 631.652H659.343C658.952 631.661 658.573 631.518 658.285 631.254C657.997 630.989 657.822 630.623 657.798 630.233L645.908 464.971C645.893 464.764 645.921 464.556 645.992 464.36C646.063 464.164 646.174 463.986 646.318 463.836C646.457 463.68 646.627 463.555 646.817 463.468C647.007 463.381 647.213 463.335 647.422 463.331H735.13C735.407 463.341 735.677 463.417 735.918 463.552L767.772 482.728C767.987 482.85 768.168 483.024 768.3 483.233C768.432 483.442 768.51 483.68 768.529 483.926L779 630.012C779.022 630.225 778.997 630.44 778.926 630.641C778.855 630.843 778.74 631.027 778.59 631.179C778.453 631.327 778.287 631.445 778.103 631.526C777.918 631.607 777.719 631.65 777.518 631.652ZM660.825 628.498H775.846L765.502 484.841L734.846 466.391H649.062L660.825 628.498Z" fill="#263238"/>
<path d="M766.984 484.052L735.13 464.877L746.831 490.297L766.984 484.052Z" fill="#EBEBEB"/>
<path d="M746.831 491.811C746.54 491.809 746.255 491.725 746.01 491.569C745.764 491.413 745.568 491.191 745.443 490.928L733.742 465.508C733.606 465.209 733.566 464.875 733.628 464.553C733.69 464.231 733.852 463.936 734.089 463.71C734.34 463.496 734.651 463.366 734.979 463.337C735.307 463.309 735.635 463.384 735.918 463.552L767.772 482.728C768.029 482.882 768.237 483.106 768.371 483.374C768.505 483.642 768.56 483.943 768.529 484.241C768.489 484.532 768.366 484.805 768.176 485.028C767.986 485.251 767.737 485.416 767.457 485.503L747.272 491.811H746.831ZM738.599 468.725L747.651 488.436L763.42 483.611L738.599 468.725Z" fill="#263238"/>
<path d="M697 539.308C697.047 540.165 696.919 541.022 696.623 541.828C696.328 542.634 695.871 543.371 695.28 543.994C694.69 544.617 693.978 545.113 693.189 545.451C692.4 545.79 691.551 545.964 690.693 545.962C688.892 545.93 687.167 545.232 685.851 544.003C684.535 542.774 683.72 541.102 683.565 539.308C683.484 538.442 683.588 537.568 683.871 536.746C684.154 535.923 684.609 535.17 685.206 534.537C685.803 533.905 686.528 533.407 687.333 533.076C688.137 532.746 689.003 532.591 689.873 532.621C691.676 532.661 693.401 533.366 694.716 534.6C696.032 535.834 696.845 537.511 697 539.308Z" fill="#263238"/>
<path d="M740.208 539.308C740.284 540.171 740.176 541.041 739.891 541.86C739.606 542.679 739.15 543.427 738.554 544.057C737.957 544.686 737.234 545.181 736.432 545.51C735.63 545.838 734.767 545.992 733.9 545.962C732.096 545.931 730.368 545.234 729.046 544.006C727.725 542.777 726.904 541.104 726.741 539.308C726.689 538.448 726.814 537.587 727.108 536.777C727.402 535.968 727.858 535.227 728.449 534.601C729.04 533.974 729.753 533.475 730.544 533.135C731.335 532.795 732.187 532.62 733.049 532.621C734.859 532.647 736.596 533.346 737.92 534.582C739.243 535.818 740.059 537.503 740.208 539.308Z" fill="#263238"/>
<path d="M752.444 582.641C752.061 582.635 751.694 582.486 751.414 582.224C751.134 581.961 750.962 581.604 750.931 581.222C750.142 570.467 733.301 561.731 713.4 561.731C700.185 561.731 688.327 565.674 682.461 571.981C681.256 573.144 680.312 574.549 679.692 576.104C679.072 577.659 678.79 579.329 678.865 581.001C678.88 581.208 678.853 581.416 678.787 581.613C678.722 581.81 678.618 581.992 678.481 582.149C678.206 582.465 677.817 582.659 677.399 582.689C676.981 582.718 676.568 582.58 676.251 582.305C675.935 582.03 675.741 581.64 675.711 581.222C675.618 579.131 675.962 577.044 676.722 575.094C677.483 573.144 678.642 571.375 680.127 569.9C686.434 562.993 699.271 558.672 713.305 558.672C735.161 558.672 752.981 568.481 753.864 581.001C753.877 581.2 753.85 581.4 753.785 581.588C753.721 581.777 753.62 581.951 753.488 582.1C753.356 582.25 753.196 582.372 753.017 582.459C752.838 582.547 752.643 582.598 752.444 582.61V582.641Z" fill="#263238"/>
<path d="M672.306 525.809C671.921 525.801 671.552 525.656 671.265 525.399C670.978 525.11 670.817 524.719 670.817 524.311C670.817 523.903 670.978 523.512 671.265 523.223L677.983 516.001C678.271 515.723 678.655 515.568 679.055 515.568C679.455 515.568 679.839 515.723 680.127 516.001C680.268 516.141 680.38 516.308 680.457 516.492C680.533 516.676 680.572 516.874 680.572 517.073C680.572 517.272 680.533 517.47 680.457 517.654C680.38 517.838 680.268 518.005 680.127 518.145L673.41 525.368C673.265 525.512 673.092 525.625 672.903 525.701C672.713 525.777 672.51 525.814 672.306 525.809Z" fill="#263238"/>
<path d="M749.291 525.809C748.908 525.791 748.542 525.647 748.25 525.399L740.523 518.177C740.377 518.036 740.261 517.867 740.182 517.68C740.103 517.493 740.062 517.292 740.062 517.089C740.062 516.886 740.103 516.685 740.182 516.498C740.261 516.311 740.377 516.142 740.523 516.001C740.811 515.723 741.196 515.568 741.596 515.568C741.996 515.568 742.38 515.723 742.668 516.001L750.395 523.223C750.536 523.364 750.648 523.531 750.724 523.715C750.801 523.899 750.84 524.096 750.84 524.295C750.84 524.495 750.801 524.692 750.724 524.876C750.648 525.06 750.536 525.227 750.395 525.368C750.095 525.648 749.701 525.805 749.291 525.809Z" fill="#263238"/>
<path d="M637.897 662.781H645.025L655.306 676.468L654.329 662.781H661.519L663.285 687.507H656L645.782 673.914L646.759 687.507H639.569L637.897 662.781Z" fill="#263238"/>
<path d="M666.502 675.144C666.259 673.464 666.375 671.753 666.842 670.122C667.31 668.49 668.119 666.977 669.215 665.682C670.413 664.504 671.848 663.593 673.425 663.011C675.002 662.43 676.684 662.19 678.361 662.307C681.915 662.115 685.406 663.301 688.106 665.619C690.58 668.082 692.014 671.402 692.112 674.891C692.372 677.298 692.047 679.733 691.165 681.987C690.349 683.803 688.98 685.315 687.255 686.308C685.184 687.418 682.853 687.952 680.505 687.854C678.093 687.93 675.692 687.478 673.472 686.529C671.528 685.595 669.888 684.13 668.742 682.303C667.389 680.15 666.617 677.684 666.502 675.144ZM674.166 675.144C674.136 677.079 674.758 678.967 675.932 680.505C676.425 681.048 677.03 681.476 677.706 681.759C678.382 682.042 679.111 682.174 679.843 682.145C680.542 682.194 681.243 682.073 681.885 681.793C682.528 681.513 683.093 681.082 683.533 680.537C684.439 678.814 684.739 676.837 684.385 674.923C684.398 673.068 683.775 671.264 682.619 669.814C682.113 669.281 681.5 668.862 680.821 668.585C680.141 668.308 679.41 668.178 678.676 668.205C677.99 668.175 677.307 668.309 676.682 668.594C676.057 668.879 675.508 669.308 675.081 669.845C674.158 671.47 673.834 673.368 674.166 675.207V675.144Z" fill="#263238"/>
<path d="M706.935 662.781H718.288C720.16 662.721 722.025 663.032 723.776 663.695C725.162 664.276 726.393 665.172 727.372 666.313C728.365 667.471 729.125 668.809 729.611 670.255C730.122 671.808 730.44 673.418 730.557 675.049C730.799 677.11 730.638 679.199 730.084 681.199C729.649 682.584 728.88 683.841 727.845 684.857C726.981 685.772 725.894 686.446 724.691 686.813C723.224 687.238 721.708 687.471 720.181 687.507H708.858L706.935 662.781ZM714.977 668.394L715.955 681.893H717.815C718.966 681.968 720.119 681.785 721.19 681.357C721.896 680.948 722.416 680.281 722.641 679.496C723.002 678.096 723.087 676.639 722.893 675.207C722.953 673.283 722.364 671.394 721.221 669.845C720.636 669.316 719.947 668.913 719.197 668.663C718.448 668.414 717.656 668.322 716.869 668.394H714.977Z" fill="#263238"/>
<path d="M748.881 683.407H740.208L739.293 687.507H731.503L739.009 662.781H747.461L758.531 687.507H750.521L748.881 683.407ZM746.894 678.077L743.551 669.183L741.469 678.077H746.894Z" fill="#263238"/>
<path d="M754.936 662.781H778.148L778.59 668.899H770.8L772.125 687.507H764.492L763.168 668.899H755.378L754.936 662.781Z" fill="#263238"/>
<path d="M795.936 683.407H787.263L786.349 687.507H778.559L786.065 662.781H794.391L805.429 687.507H797.45L795.936 683.407ZM793.949 678.077L790.575 669.183L788.462 678.077H793.949Z" fill="#263238"/>
<path d="M1115.48 372.406C1118.29 370.987 1121.79 369.252 1124.76 367.455C1127.72 365.657 1131.06 363.922 1134.22 362.03C1140.37 358.214 1146.61 354.461 1152.51 350.298C1164.36 342.193 1175.46 333.053 1185.69 322.985C1186.98 321.787 1188.12 320.462 1189.35 319.169L1191.14 317.245L1192.03 316.299L1192.47 315.795C1192.03 316.646 1192.47 316.394 1192.47 315.574C1192.75 314.448 1192.9 313.295 1192.94 312.136C1192.87 305.43 1192.1 298.75 1190.64 292.204C1187.83 278.075 1183.58 263.504 1179.38 249.248L1191.62 243.887C1199.34 257.564 1205.79 271.922 1210.89 286.779C1213.75 294.808 1215.57 303.171 1216.31 311.663C1216.51 314.303 1216.42 316.957 1216.06 319.579C1215.59 323.288 1214.28 326.838 1212.21 329.955L1211.68 330.681L1211.27 331.185L1210.79 331.785L1209.82 332.983L1207.86 335.348C1206.57 336.894 1205.31 338.502 1203.92 339.985C1193.13 351.953 1181.1 362.737 1168.03 372.154C1161.72 376.822 1155.03 381.3 1148.19 385.368C1144.81 387.418 1141.38 389.374 1137.88 391.298C1134.38 393.222 1130.97 394.988 1126.93 396.88L1115.48 372.406Z" fill="#FFB573"/>
<path d="M1087.41 1113.88C1089.78 1113.82 1092.12 1113.5 1094.42 1112.93C1094.53 1112.89 1094.64 1112.83 1094.72 1112.74C1094.8 1112.65 1094.86 1112.54 1094.89 1112.42C1094.9 1112.3 1094.89 1112.18 1094.84 1112.07C1094.79 1111.96 1094.71 1111.86 1094.61 1111.79C1093.69 1111.19 1085.68 1106.02 1082.59 1107.41C1082.25 1107.57 1081.95 1107.82 1081.74 1108.13C1081.52 1108.44 1081.39 1108.8 1081.36 1109.18C1081.24 1109.77 1081.27 1110.39 1081.45 1110.97C1081.63 1111.55 1081.96 1112.07 1082.4 1112.49C1083.85 1113.54 1085.63 1114.03 1087.41 1113.88ZM1092.62 1112.05C1088.05 1112.96 1084.58 1112.8 1083.16 1111.57C1082.87 1111.28 1082.67 1110.92 1082.56 1110.53C1082.45 1110.14 1082.44 1109.73 1082.53 1109.33C1082.54 1109.17 1082.59 1109.01 1082.69 1108.87C1082.78 1108.73 1082.91 1108.62 1083.06 1108.55C1084.73 1107.82 1089.37 1110.15 1092.62 1112.05Z" fill="#263238"/>
<path d="M1094.38 1112.93H1094.7C1094.79 1112.87 1094.87 1112.79 1094.92 1112.7C1094.98 1112.61 1095.01 1112.5 1095.02 1112.39C1095.02 1112.05 1095.02 1104.45 1092.11 1101.92C1091.77 1101.59 1091.35 1101.34 1090.89 1101.19C1090.43 1101.04 1089.94 1101 1089.46 1101.07C1088.97 1101.07 1088.49 1101.25 1088.1 1101.56C1087.72 1101.88 1087.45 1102.32 1087.35 1102.81C1086.75 1105.96 1091.55 1111.48 1094.07 1112.93C1094.17 1112.96 1094.28 1112.96 1094.38 1112.93ZM1089.87 1102.24C1090.39 1102.24 1090.88 1102.43 1091.26 1102.77C1092.93 1105.23 1093.79 1108.14 1093.72 1111.1C1091.2 1109.08 1088.2 1104.79 1088.58 1102.99C1088.58 1102.71 1088.8 1102.33 1089.59 1102.24H1089.87Z" fill="#263238"/>
<path d="M1091.92 293.528C1088.77 309.298 1082.46 340.836 1093.34 351.401C1093.34 351.401 1089.05 367.171 1059.94 367.171C1027.9 367.171 1044.65 351.401 1044.65 351.401C1062.12 347.238 1061.65 334.276 1058.62 322.071L1091.92 293.528Z" fill="#FFB573"/>
<path d="M1038.5 357.709C1033.48 358.403 1037.77 345.378 1039.79 344.022C1044.52 340.868 1105.58 336.484 1105.17 344.022C1104.92 347.175 1103.4 353.483 1100.76 355.565C1098.11 357.646 1082.4 351.149 1038.5 357.709Z" fill="#263238"/>
<path d="M1048.46 353.231C1044.46 354.587 1044.84 341.467 1046.19 339.89C1049.35 336.232 1098.77 323.553 1100.22 330.712C1100.79 333.866 1101.07 340.174 1099.37 342.413C1097.66 344.652 1083.16 340.962 1048.46 353.231Z" fill="#263238"/>
<path d="M1030.08 265.27C1029.88 265.279 1029.68 265.24 1029.5 265.158C1029.32 265.076 1029.16 264.952 1029.04 264.797C1028.07 263.556 1026.83 262.558 1025.41 261.884C1024 261.211 1022.44 260.879 1020.87 260.918C1020.7 260.94 1020.54 260.928 1020.38 260.884C1020.22 260.84 1020.07 260.764 1019.94 260.661C1019.81 260.558 1019.7 260.43 1019.62 260.284C1019.55 260.139 1019.5 259.979 1019.48 259.814C1019.45 259.489 1019.55 259.166 1019.76 258.914C1019.97 258.661 1020.26 258.497 1020.58 258.458C1022.57 258.356 1024.55 258.737 1026.36 259.566C1028.16 260.395 1029.74 261.649 1030.96 263.22C1031.17 263.476 1031.27 263.805 1031.24 264.135C1031.22 264.466 1031.06 264.772 1030.8 264.986C1030.59 265.14 1030.34 265.238 1030.08 265.27Z" fill="#263238"/>
<path d="M1023.96 280.692C1022.53 285.724 1020.41 290.532 1017.65 294.979C1018.81 295.644 1020.1 296.048 1021.43 296.162C1022.75 296.277 1024.09 296.099 1025.35 295.642L1023.96 280.692Z" fill="#FF5652"/>
<path d="M1025.5 276.876C1025.73 278.989 1024.75 280.818 1023.36 280.945C1021.97 281.071 1020.68 279.494 1020.49 277.349C1020.3 275.205 1021.25 273.407 1022.6 273.281C1023.96 273.155 1025.28 274.732 1025.5 276.876Z" fill="#263238"/>
<path d="M1023.23 273.344L1018 272.366C1018 272.366 1020.99 276.088 1023.23 273.344Z" fill="#263238"/>
<path d="M1124.98 1112.33H1098.55L1100.63 1051.15H1127.06L1124.98 1112.33Z" fill="#FFB573"/>
<path d="M1096.47 1109.27H1126.14C1126.66 1109.26 1127.15 1109.43 1127.54 1109.77C1127.93 1110.1 1128.19 1110.56 1128.26 1111.07L1131.63 1134.53C1131.7 1135.13 1131.64 1135.73 1131.46 1136.3C1131.27 1136.86 1130.97 1137.39 1130.57 1137.83C1130.18 1138.28 1129.69 1138.63 1129.14 1138.87C1128.59 1139.11 1128 1139.24 1127.41 1139.23C1117.06 1139.07 1112.08 1138.44 1099.02 1138.44C1090.98 1138.44 1079.25 1139.3 1068.18 1139.3C1057.11 1139.3 1056.48 1128.32 1061.11 1127.34C1081.8 1122.86 1085.08 1116.75 1092.05 1110.88C1093.29 1109.85 1094.85 1109.28 1096.47 1109.27Z" fill="#263238"/>
<g opacity="0.2">
<path d="M1127.06 1051.15H1100.63L1099.56 1082.68H1125.99L1127.06 1051.15Z" fill="black"/>
</g>
<path d="M1019.86 387.923C1003.69 381.635 987.845 374.53 972.394 366.635C956.434 358.836 941.231 349.577 926.978 338.975C923.171 335.993 919.567 332.758 916.192 329.293C915.309 328.347 914.426 327.464 913.575 326.36C912.575 325.232 911.648 324.042 910.799 322.796C908.473 319.408 907.021 315.496 906.573 311.411C906.225 307.537 906.753 303.635 908.118 299.994C909.212 297.067 910.709 294.307 912.565 291.794C915.612 287.628 919.208 283.893 923.257 280.692C930.403 275.002 938.118 270.066 946.28 265.964C950.191 263.882 954.165 262.022 958.202 260.287C962.238 258.552 966.212 256.912 970.533 255.43L976.115 267.572C962.365 276.245 948.109 285.802 937.638 296.462C935.295 298.836 933.232 301.471 931.488 304.315C929.975 306.806 930.006 308.667 930.258 308.509C930.511 308.352 930.258 308.509 930.7 308.825L931.962 310.181C932.435 310.749 933.097 311.316 933.696 311.915C936.368 314.374 939.202 316.65 942.18 318.728C948.69 323.337 955.473 327.55 962.491 331.343C969.587 335.317 976.904 339.07 984.347 342.665C999.233 349.793 1014.62 356.637 1029.73 362.882L1019.86 387.923Z" fill="#FFB573"/>
<path d="M984 259.088L988.352 249.627L968.42 242.846C968.42 242.846 962.112 261.485 969.587 270.064C972.71 269.572 975.663 268.312 978.179 266.396C980.695 264.48 982.695 261.969 984 259.088Z" fill="#FFB573"/>
<path d="M988.258 229.158L972.394 224.554L968.42 242.72L988.258 249.627V229.158Z" fill="#FFB573"/>
<path d="M1193.26 250.542L1195.56 228.465L1175.12 233.385C1175.12 233.385 1174.81 254.137 1185.63 257.417L1193.26 250.542Z" fill="#FFB573"/>
<path d="M1185.72 212.916L1172.38 219.129L1175.12 233.227L1195.56 228.402L1185.72 212.916Z" fill="#FFB573"/>
<path d="M1096.09 262.558C1097.07 288.766 1098.01 299.836 1086.18 314.502C1068.37 336.578 1035.98 332.005 1027.21 306.617C1019.32 283.783 1019.07 244.77 1043.54 231.902C1048.93 229.041 1054.95 227.603 1061.04 227.723C1067.13 227.843 1073.09 229.518 1078.36 232.589C1083.62 235.66 1088.01 240.025 1091.12 245.27C1094.22 250.515 1095.93 256.466 1096.09 262.558Z" fill="#FFB573"/>
<path d="M1084.67 314.47C1110.41 303.337 1127.31 279.778 1120.18 243.256C1113.34 208.217 1089.69 204.748 1079.91 212.002C1070.13 219.255 1045.75 208.438 1031.12 220.738C1005.89 242.089 1029.73 264.892 1042.22 278.674C1049.66 294.001 1059.44 325.351 1084.67 314.47Z" fill="#263238"/>
<path d="M1073.98 236.98C1077.12 241.007 1081.37 244.027 1086.2 245.667C1091.04 247.306 1096.25 247.494 1101.19 246.206C1106.13 244.919 1110.59 242.212 1114.01 238.421C1117.43 234.63 1119.67 229.92 1120.44 224.873C1121.22 219.826 1120.5 214.662 1118.37 210.02C1116.24 205.377 1112.81 201.459 1108.48 198.748C1104.15 196.037 1099.12 194.653 1094.02 194.767C1088.91 194.88 1083.95 196.486 1079.75 199.386C1074 203.607 1070.16 209.939 1069.08 216.988C1068 224.038 1069.76 231.229 1073.98 236.98Z" fill="#263238"/>
<path d="M1080.67 214.462C1076.98 193.331 1096.94 177.057 1123.68 184.91C1150.43 192.763 1136.3 216.448 1130.78 235.372C1125.26 254.295 1139.71 272.335 1145.7 257.922C1151.69 243.508 1141.6 238.998 1141.6 238.998C1141.6 238.998 1169.98 246.347 1143.62 278.358C1117.25 310.37 1093.38 275.015 1099.84 254.168C1105.08 237.422 1084.17 234.425 1080.67 214.462Z" fill="#263238"/>
<path d="M1053.95 222.441C1041.75 216.133 1021.09 210.929 1009.33 230.735C1003.77 240.197 1005.92 252.812 1005.92 252.812L1041.84 255.178L1053.95 222.441Z" fill="#263238"/>
<path d="M1001.69 246.568C1001.48 246.552 1001.28 246.454 1001.14 246.295C1001 246.136 1000.93 245.929 1000.94 245.716C1000.94 245.18 1001.85 232.502 1009.51 224.554C1028.03 205.315 1049.73 221.4 1055.91 226.604C1056.04 226.745 1056.12 226.929 1056.12 227.123C1056.13 227.317 1056.06 227.505 1055.94 227.654C1055.81 227.802 1055.64 227.899 1055.45 227.926C1055.26 227.954 1055.06 227.91 1054.9 227.802C1048.94 222.693 1028.19 207.397 1010.74 225.626C1003.49 233.164 1002.61 245.685 1002.61 245.811C1002.6 245.923 1002.58 246.034 1002.53 246.135C1002.48 246.236 1002.41 246.325 1002.32 246.397C1002.24 246.469 1002.13 246.521 1002.03 246.55C1001.92 246.58 1001.8 246.586 1001.69 246.568Z" fill="#263238"/>
<path d="M1046.6 277.538C1046.46 282.5 1044.63 287.264 1041.4 291.037C1037.05 296.146 1031.94 293.623 1030.9 287.883C1029.86 282.805 1030.9 274.006 1036.39 270.947C1041.87 267.888 1046.67 271.798 1046.6 277.538Z" fill="#FFB573"/>
<path d="M1040.93 517.609C1040.93 517.609 1042.63 701.005 1058.53 803.19C1071.39 885.726 1095.14 1076.6 1095.14 1076.6H1131.19C1131.19 1076.6 1134.69 892.317 1128.04 810.696C1111.54 604.119 1154.15 565.485 1119.77 517.609H1040.93Z" fill="#263238"/>
<path opacity="0.1" d="M1040.93 517.609C1040.93 517.609 1042.63 701.005 1058.53 803.19C1071.39 885.726 1095.14 1076.6 1095.14 1076.6H1131.19C1131.19 1076.6 1134.69 892.317 1128.04 810.696C1111.54 604.119 1154.15 565.485 1119.77 517.609H1040.93Z" fill="white"/>
<path opacity="0.3" d="M1059.88 600.808C1072.5 656.158 1062.44 743.33 1055.53 781.712C1048.21 723.429 1044.52 647.895 1042.69 592.482C1049.22 581.948 1055.4 581.254 1059.88 600.808Z" fill="black"/>
<path d="M1090.22 1077.29H1136.11L1138.51 1061.21L1089.97 1059.57L1090.22 1077.29Z" fill="#263238"/>
<path d="M1103.31 362.692C1107.63 354.114 1130.84 348.721 1143.52 348.752L1152.98 390.888C1152.98 390.888 1127.75 428.387 1117.22 424.413C1104.82 419.84 1094.07 381.205 1103.31 362.692Z" fill="#263238"/>
<path opacity="0.4" d="M1103.31 362.692C1107.63 354.114 1130.84 348.721 1143.52 348.752L1152.98 390.888C1152.98 390.888 1127.75 428.387 1117.22 424.413C1104.82 419.84 1094.07 381.205 1103.31 362.692Z" fill="black"/>
<path d="M1076.57 1066.98C1076.62 1066.89 1076.65 1066.78 1076.65 1066.68C1076.65 1066.57 1076.62 1066.47 1076.57 1066.38C1076.51 1066.26 1076.41 1066.16 1076.29 1066.1C1076.17 1066.03 1076.04 1066.01 1075.9 1066.03C1074.58 1066.25 1062.91 1068.08 1061.33 1071.42C1061.16 1071.73 1061.08 1072.07 1061.08 1072.42C1061.08 1072.77 1061.16 1073.11 1061.33 1073.41C1061.6 1073.91 1061.99 1074.33 1062.46 1074.65C1062.94 1074.96 1063.48 1075.15 1064.04 1075.21C1067.86 1075.59 1073.51 1070.29 1076.34 1067.07L1076.57 1066.98ZM1062.56 1071.83C1063.63 1070.07 1069.69 1068.43 1074.29 1067.58C1070.13 1071.8 1066.47 1074.17 1064.33 1073.88C1063.96 1073.85 1063.6 1073.72 1063.29 1073.51C1062.99 1073.3 1062.73 1073.02 1062.56 1072.69C1062.49 1072.57 1062.46 1072.43 1062.46 1072.29C1062.46 1072.15 1062.49 1072.02 1062.56 1071.9C1062.56 1071.9 1062.53 1071.87 1062.56 1071.83Z" fill="#263238"/>
<path d="M1076.57 1066.98C1076.62 1066.89 1076.65 1066.78 1076.65 1066.68C1076.65 1066.57 1076.62 1066.47 1076.57 1066.38C1076.38 1066.16 1071.71 1060.76 1067.39 1060.48C1066.77 1060.43 1066.14 1060.5 1065.55 1060.71C1064.96 1060.91 1064.41 1061.23 1063.95 1061.65C1062.66 1062.81 1062.78 1063.82 1063.1 1064.45C1064.45 1067.17 1072.84 1068.11 1076.22 1067.39C1076.31 1067.35 1076.38 1067.3 1076.44 1067.23C1076.5 1067.15 1076.55 1067.07 1076.57 1066.98ZM1064.23 1063C1064.37 1062.79 1064.54 1062.6 1064.74 1062.44C1065.07 1062.12 1065.46 1061.88 1065.89 1061.74C1066.32 1061.59 1066.78 1061.54 1067.23 1061.58C1070.16 1062.31 1072.8 1063.93 1074.77 1066.22C1071.01 1066.54 1064.96 1065.4 1064.14 1063.76C1064.09 1063.64 1064.07 1063.5 1064.08 1063.37C1064.1 1063.24 1064.15 1063.11 1064.23 1063Z" fill="#263238"/>
<path d="M1104.1 1055.78L1079.94 1066.54L1069.19 1044.11L1055.12 1014.78L1053.45 1011.38L1077.61 1000.62L1079.47 1004.47L1093.09 1032.88L1104.1 1055.78Z" fill="#FFB573"/>
<path opacity="0.2" d="M1093.09 1032.88L1069.19 1044.11L1055.12 1014.78L1079.47 1004.47L1093.09 1032.88Z" fill="black"/>
<path d="M1012.61 517.609C1012.61 517.609 935.431 709.615 956.341 799.815C975.264 881.468 1058.84 1036.1 1058.84 1036.1L1091.23 1019.89C1091.23 1019.89 1039.54 833.214 1033.96 792.656C1023.04 713.81 1093.15 602.384 1093.15 517.609H1012.61Z" fill="#263238"/>
<path opacity="0.1" d="M1012.61 517.609C1012.61 517.609 935.431 709.615 956.341 799.815C975.264 881.468 1058.84 1036.1 1058.84 1036.1L1091.23 1019.89C1091.23 1019.89 1039.54 833.214 1033.96 792.656C1023.04 713.81 1093.15 602.384 1093.15 517.609H1012.61Z" fill="white"/>
<path d="M1075.65 1063.16L1099.62 1045.72C1100.02 1045.4 1100.53 1045.25 1101.04 1045.28C1101.56 1045.32 1102.04 1045.54 1102.4 1045.91L1118.95 1062.91C1119.35 1063.35 1119.66 1063.88 1119.84 1064.45C1120.03 1065.01 1120.09 1065.62 1120.03 1066.21C1119.97 1066.81 1119.78 1067.38 1119.48 1067.9C1119.18 1068.42 1118.78 1068.87 1118.29 1069.22C1109.81 1075.15 1105.42 1077.61 1094.89 1085.27C1088.39 1090 1075.46 1100.44 1066.5 1106.97C1057.55 1113.5 1050.74 1104.98 1053.89 1101.48C1068.02 1085.71 1070.98 1075.93 1073.19 1067.07C1073.53 1065.52 1074.4 1064.14 1075.65 1063.16Z" fill="#263238"/>
<path d="M1056.76 1042.95L1098.48 1023.86L1093.15 1006.87L1048.46 1027.24L1056.76 1042.95Z" fill="#263238"/>
<path d="M1033.07 360.674C1029.64 351.717 999.485 341.751 984.347 338.597L977.692 388.175C977.692 388.175 1002.42 423.688 1013.24 420.755C1026.04 417.285 1040.52 379.881 1033.07 360.674Z" fill="#263238"/>
<path opacity="0.4" d="M1033.07 360.674C1029.64 351.717 999.485 341.751 984.347 338.597L977.692 388.175C977.692 388.175 1002.42 423.688 1013.24 420.755C1026.04 417.285 1040.52 379.881 1033.07 360.674Z" fill="black"/>
<path d="M999.99 358.182C999.99 358.182 987.374 362.598 1012.61 517.609H1119.84C1118.04 473.96 1117.98 447.026 1138.76 357.394C1123.73 354.294 1108.5 352.291 1093.19 351.402C1076.98 350.233 1060.7 350.233 1044.49 351.402C1023.71 353.231 999.99 358.182 999.99 358.182Z" fill="#263238"/>
<path opacity="0.4" d="M999.99 358.182C999.99 358.182 987.374 362.598 1012.61 517.609H1119.84C1118.04 473.96 1117.98 447.026 1138.76 357.394C1123.73 354.294 1108.5 352.291 1093.19 351.402C1076.98 350.233 1060.7 350.233 1044.49 351.402C1023.71 353.231 999.99 358.182 999.99 358.182Z" fill="black"/>
<path d="M1121.51 511.333L1126.33 520.795C1126.71 521.552 1125.83 522.308 1124.6 522.308H1012.07C1011.09 522.308 1010.3 521.835 1010.24 521.205L1009.26 511.743C1009.26 511.081 1010.05 510.513 1011.09 510.513H1119.62C1119.98 510.456 1120.35 510.503 1120.68 510.648C1121.02 510.793 1121.3 511.031 1121.51 511.333Z" fill="#263238"/>
<path opacity="0.3" d="M1121.51 511.333L1126.33 520.795C1126.71 521.552 1125.83 522.308 1124.6 522.308H1012.07C1011.09 522.308 1010.3 521.835 1010.24 521.205L1009.26 511.743C1009.26 511.081 1010.05 510.513 1011.09 510.513H1119.62C1119.98 510.456 1120.35 510.503 1120.68 510.648C1121.02 510.793 1121.3 511.031 1121.51 511.333Z" fill="white"/>
<path d="M1107 523.538H1109.9C1110.5 523.538 1110.94 523.223 1110.88 522.876L1109.52 510.261C1109.52 509.882 1108.99 509.598 1108.42 509.598H1105.49C1104.92 509.598 1104.48 509.882 1104.51 510.261L1105.86 522.876C1105.83 523.16 1106.34 523.538 1107 523.538Z" fill="#263238"/>
<path d="M1036.39 523.538H1039.29C1039.85 523.538 1040.3 523.223 1040.26 522.876L1038.91 510.261C1038.91 509.882 1038.37 509.598 1037.77 509.598H1034.87C1034.27 509.598 1033.86 509.882 1033.89 510.261L1035.25 522.876C1035.28 523.16 1035.79 523.538 1036.39 523.538Z" fill="#263238"/>
</svg>
