<svg width="182" height="182" viewBox="0 0 182 182" fill="none" xmlns="http://www.w3.org/2000/svg">
<path d="M130.843 148.02C130.843 148.02 120.178 133.775 106.868 123.934C93.5578 114.093 82.1422 110.033 79.0054 110.974C75.8686 111.915 73.1193 114.941 73.1193 114.941L35.9265 152.288C35.9265 152.288 23.656 161.975 22.3029 162.824C20.9498 163.673 14.6146 167.622 10.7336 168.839C6.85255 170.057 0.49896 169.866 0.468207 171.047C0.437454 172.228 1.29239 173.139 3.18678 173.938C6.70816 175.324 10.4298 176.134 14.2087 176.337C17.0911 176.386 19.958 176.77 22.7519 177.481C24.0743 177.813 27.8692 179.554 28.7979 178.096C29.7267 176.638 31.0122 168.255 31.332 167.375C31.6518 166.496 43.4425 157.977 51.6967 153.936C59.9508 149.895 70.0563 143.247 72.9655 140.079C75.8747 136.911 80.1556 132.016 80.1556 132.016C80.1556 132.016 93.3855 144.532 97.9431 150.437C102.501 156.341 109.82 163.654 123.093 169.817C136.366 175.98 141.25 170.955 142.16 165.949C143.07 160.942 130.843 148.02 130.843 148.02Z" fill="white"/>
<path d="M27.4141 178.976C26.1478 178.871 24.9041 178.579 23.7237 178.108C23.2993 177.967 22.9364 177.844 22.6842 177.776C19.9114 177.077 17.0678 176.697 14.2087 176.644C10.3908 176.447 6.63054 175.629 3.07608 174.221C1.05253 173.372 0.12378 172.376 0.166835 171.035C0.166835 170.156 1.69834 169.934 4.83516 169.565C6.79864 169.395 8.74348 169.053 10.6475 168.544C13.1077 167.769 17.2102 165.647 22.143 162.566C23.4715 161.735 35.619 152.14 35.742 152.048L72.904 114.708C73.0086 114.591 75.7394 111.632 78.9193 110.661C82.0992 109.689 93.6008 113.736 107.046 123.663C120.061 133.307 130.683 147.269 131.077 147.792C131.728 148.481 143.341 160.917 142.443 165.979C142.264 167.225 141.796 168.411 141.076 169.443C140.356 170.474 139.405 171.323 138.297 171.921C134.748 173.766 129.594 173.151 122.964 170.076C112.231 165.087 103.965 158.722 97.6971 150.603C93.5393 145.215 81.9577 134.131 80.174 132.434C79.276 133.461 75.6964 137.533 73.1869 140.264C70.167 143.56 59.9877 150.197 51.832 154.195C43.5225 158.26 32.1008 166.564 31.6211 167.474C31.5288 167.726 31.3074 168.864 31.0552 170.18C30.4894 173.151 29.7144 177.216 29.0563 178.244C28.8677 178.496 28.6178 178.695 28.3303 178.823C28.0429 178.951 27.7275 179.004 27.4141 178.976ZM80.1371 111.147C79.7842 111.139 79.432 111.182 79.0915 111.276C76.0777 112.18 73.3776 115.126 73.3469 115.151L36.1418 152.503C35.6128 152.922 23.8405 162.24 22.4628 163.082C17.487 166.195 13.3538 168.341 10.8259 169.135C8.88554 169.653 6.90366 170.001 4.90282 170.174C3.35901 170.359 0.78805 170.666 0.775749 171.054C0.744996 172.093 1.55072 172.899 3.3098 173.655C6.79431 175.032 10.4794 175.834 14.221 176.029C17.126 176.08 20.0153 176.466 22.8319 177.18C23.1148 177.253 23.49 177.376 23.9205 177.524C25.4213 178.035 27.9307 178.889 28.5458 177.936C29.1608 176.983 29.9358 172.843 30.4586 170.088C30.7661 168.489 30.9445 167.572 31.0737 167.277C31.4919 166.145 43.6148 157.571 51.5921 153.666C59.5695 149.76 69.841 143.062 72.7687 139.876C75.6964 136.69 79.9096 131.88 79.9526 131.813C79.9794 131.781 80.0124 131.756 80.0494 131.738C80.0864 131.72 80.1268 131.71 80.1679 131.708C80.2094 131.704 80.2513 131.709 80.2906 131.723C80.33 131.736 80.3658 131.759 80.3955 131.788C80.5308 131.917 93.6992 144.397 98.2322 150.24C104.438 158.279 112.631 164.589 123.278 169.528C129.625 172.481 134.742 173.12 138.039 171.373C139.056 170.811 139.931 170.022 140.594 169.067C141.258 168.113 141.692 167.018 141.865 165.869C142.713 161.071 130.794 148.327 130.646 148.198C130.541 148.05 119.852 133.898 106.732 124.21C94.6587 115.249 84.2027 111.147 80.1371 111.147Z" fill="#263238"/>
<path d="M106.868 123.934C93.5516 114.093 82.1422 110.033 79.0054 110.974C75.8686 111.915 73.1193 114.941 73.1193 114.941L36.3632 151.845C37.1628 154.078 38.9772 156.956 43.1289 158.845C45.9013 157.056 48.7652 155.414 51.709 153.924C59.9631 149.877 70.0686 143.228 72.9778 140.061C75.8871 136.893 80.1679 131.997 80.1679 131.997C80.1679 131.997 93.3979 144.514 97.9555 150.418C102.513 156.323 114.864 172.85 129.016 176.571C155.064 183.429 154.178 170.149 155.064 165.143C155.95 160.136 130.855 148.001 130.855 148.001C130.855 148.001 120.178 133.775 106.868 123.934Z" fill="#263238"/>
<path d="M141.502 178.809C137.245 178.701 133.018 178.055 128.924 176.884C115.122 173.255 103.233 157.817 98.1707 151.218L97.7156 150.603C93.5578 145.215 81.9762 134.131 80.1925 132.434C79.2945 133.461 75.7148 137.533 73.2054 140.264C70.1854 143.56 60.0062 150.197 51.8505 154.195C48.9157 155.673 46.06 157.303 43.295 159.078C43.2506 159.103 43.2009 159.115 43.1504 159.115C43.0999 159.115 43.0502 159.103 43.0059 159.078C38.7005 157.122 36.8553 154.096 36.0926 151.907C36.0734 151.852 36.0702 151.793 36.0833 151.736C36.0963 151.68 36.1251 151.628 36.1664 151.587L72.9225 114.683C73.027 114.566 75.7579 111.608 78.9378 110.636C82.1176 109.664 93.6193 113.711 107.065 123.638C119.821 133.092 130.283 146.703 131.052 147.724C133.937 149.12 156.269 160.124 155.365 165.167C155.285 165.604 155.224 166.102 155.156 166.637C154.781 169.565 154.215 173.975 150.346 176.589C148.169 178.059 145.235 178.809 141.502 178.809ZM80.1556 131.708C80.2326 131.709 80.3066 131.738 80.3647 131.788C80.5 131.917 93.6685 144.397 98.2015 150.24L98.6628 150.855C103.7 157.399 115.497 172.727 129.096 176.306C138.937 178.902 145.998 178.846 150.008 176.14C153.643 173.68 154.166 169.602 154.547 166.625C154.621 166.072 154.683 165.567 154.763 165.124C155.458 161.206 137.645 151.655 130.72 148.309C130.678 148.285 130.64 148.254 130.609 148.216C130.505 148.069 119.815 133.916 106.696 124.229C93.4102 114.388 82.1361 110.409 79.1038 111.313C76.0716 112.217 73.3899 115.163 73.3592 115.188L36.72 151.925C37.2943 153.387 38.1533 154.721 39.2471 155.849C40.341 156.976 41.6479 157.875 43.092 158.494C45.83 156.74 48.6569 155.128 51.5614 153.666C59.5203 149.766 69.8103 143.062 72.7379 139.876C75.6656 136.69 79.8788 131.88 79.9219 131.813C79.9487 131.781 79.9817 131.756 80.0187 131.738C80.0557 131.72 80.096 131.71 80.1372 131.708H80.1556Z" fill="#263238"/>
<path d="M0.468238 171.047C0.431335 172.228 1.29242 173.139 3.18681 173.938C6.70819 175.324 10.4298 176.134 14.2087 176.337C17.0911 176.386 19.9581 176.77 22.7519 177.481C24.0743 177.813 27.8692 179.554 28.798 178.096C29.5975 176.866 30.6432 170.475 31.1475 168.157C27.0943 168.286 22.4874 166.521 22.4874 166.521C22.4874 166.521 22.8134 165.493 22.3029 162.83C20.9436 163.679 14.6147 167.628 10.7336 168.846C6.85258 170.063 0.498991 169.867 0.468238 171.047Z" fill="white"/>
<path d="M27.4141 178.976C26.1478 178.871 24.9041 178.579 23.7237 178.108C23.2993 177.967 22.9364 177.844 22.6842 177.776C19.9114 177.077 17.0678 176.697 14.2087 176.644C10.3908 176.447 6.63054 175.629 3.07608 174.221C1.05253 173.372 0.12378 172.376 0.166835 171.035C0.166835 170.156 1.69834 169.934 4.83516 169.565C6.79865 169.395 8.74349 169.053 10.6475 168.544C13.1077 167.769 17.2102 165.647 22.143 162.566C22.1878 162.543 22.2373 162.531 22.2875 162.531C22.3378 162.531 22.3873 162.543 22.4321 162.566C22.4782 162.586 22.5186 162.618 22.5497 162.657C22.5808 162.697 22.6016 162.744 22.6104 162.793C22.8824 163.96 22.9613 165.163 22.8442 166.354C23.8406 166.705 27.7277 167.997 31.1413 167.88C31.1876 167.878 31.2337 167.886 31.2763 167.904C31.3189 167.922 31.3569 167.95 31.3874 167.984C31.418 168.02 31.4396 168.063 31.4503 168.109C31.461 168.155 31.4605 168.203 31.4489 168.249C31.3443 168.753 31.2151 169.442 31.0614 170.229C30.4955 173.2 29.7205 177.266 29.0624 178.293C28.8678 178.537 28.6145 178.727 28.3262 178.847C28.038 178.966 27.7241 179.01 27.4141 178.976ZM0.775749 171.054C0.744996 172.093 1.55072 172.899 3.3098 173.655C6.79454 175.032 10.4795 175.833 14.221 176.029C17.126 176.08 20.0153 176.466 22.8319 177.18C23.1148 177.253 23.49 177.376 23.9205 177.524C25.4213 178.035 27.9307 178.889 28.5458 177.936C29.1608 176.983 29.9358 172.843 30.4586 170.094C30.5755 169.479 30.68 168.925 30.7723 168.476C27.9053 168.373 25.0732 167.812 22.3829 166.816C22.3091 166.788 22.2488 166.733 22.2145 166.662C22.1801 166.591 22.1744 166.51 22.1983 166.434C22.1983 166.434 22.4567 165.536 22.0876 163.322C17.284 166.305 13.2984 168.36 10.832 169.135C8.89169 169.653 6.90981 170.001 4.90896 170.174C3.36516 170.359 0.794197 170.666 0.781896 171.054H0.775749Z" fill="#263238"/>
<path d="M176.591 93.359C173.067 90.2099 165.145 82.6692 159.609 73.2342C154.074 63.7992 155.587 60.7854 151.435 53.3616C147.283 45.9378 141.25 42.2905 133.069 43.9265C126.433 45.2551 123.025 49.2407 121.998 50.6922C121.758 51.0182 121.518 51.3073 121.26 51.6394C120.067 53.0356 116.29 58.2144 113.467 70.3434C110.066 84.9327 110.195 92.0981 115.349 95.4933C120.504 98.8884 124.157 97.3815 125.664 99.0176C127.171 100.654 127.675 102.665 126.421 102.665C126.07 102.677 125.722 102.616 125.397 102.485C125.072 102.355 124.777 102.159 124.532 101.908C124.532 101.908 127.423 106.312 130.191 105.051C132.959 103.79 136.102 99.2697 134.09 93.2298C132.079 87.1899 126.673 81.0332 125.787 79.9015C124.901 78.7698 123.148 65.6874 123.148 65.6874C123.148 65.6874 123.278 61.2836 128.18 62.7966C133.082 64.3097 139.749 67.0713 141.889 71.4751C144.03 75.879 151.952 85.8122 158.865 88.826C165.778 91.8398 168.552 94.6137 171.068 102.038C173.583 109.461 173.583 111.842 173.583 111.842C173.583 111.842 178.738 109.455 179.734 104.049C180.73 98.6424 180.109 96.502 176.591 93.359ZM115.841 93.605C113.455 90.9664 114.962 86.1874 114.962 86.1874C114.205 92.9531 122.004 96.7541 122.004 96.7541C122.004 96.7541 118.234 96.2559 115.841 93.605Z" fill="#263238"/>
<path d="M173.571 112.149C173.531 112.151 173.491 112.144 173.453 112.13C173.415 112.115 173.381 112.093 173.352 112.065C173.323 112.037 173.301 112.003 173.285 111.966C173.27 111.928 173.263 111.888 173.264 111.848C173.264 111.848 173.221 109.388 170.76 102.136C168.3 94.8844 165.748 92.1719 158.73 89.1089C151.712 86.0459 143.698 75.9589 141.6 71.6043C139.503 67.2497 133.112 64.6356 128.069 63.0857C126.593 62.6305 125.436 62.692 124.637 63.264C124.282 63.5659 123.993 63.9372 123.786 64.3549C123.58 64.7727 123.461 65.2282 123.437 65.6935C124.114 70.6694 125.412 78.9358 126.015 79.7108L126.457 80.2643C128.124 82.3002 132.559 87.7127 134.367 93.1314C136.434 99.3374 133.229 104 130.302 105.334C127.374 106.669 124.379 102.259 124.256 102.074C124.217 102.009 124.205 101.932 124.22 101.857C124.236 101.783 124.278 101.717 124.339 101.672C124.4 101.628 124.475 101.607 124.551 101.614C124.626 101.621 124.696 101.656 124.748 101.712C124.964 101.927 125.223 102.095 125.508 102.206C125.792 102.317 126.097 102.369 126.402 102.357C126.642 102.357 126.722 102.259 126.759 102.173C126.974 101.681 126.488 100.383 125.418 99.2267C124.858 98.6116 123.917 98.4948 122.613 98.3287C119.954 98.1045 117.394 97.2186 115.165 95.7516C110.078 92.3995 109.549 85.7322 113.147 70.2696C116.001 58.0053 119.913 52.7527 121.008 51.4364C121.236 51.1719 121.463 50.8767 121.728 50.5138C122.896 48.8839 126.341 44.9783 133.008 43.6251C140.961 42.0383 147.253 45.2612 151.7 53.2139C153.19 55.9006 154.329 58.7678 155.089 61.7449C156.126 65.7322 157.732 69.5497 159.855 73.0804C165.176 82.1095 172.772 89.4903 176.794 93.1253C180.392 96.3421 181.056 98.5993 180.035 104.104C179.014 109.609 173.916 112.026 173.7 112.1C173.661 112.126 173.617 112.142 173.571 112.149ZM126.304 62.1692C126.969 62.1815 127.628 62.2935 128.26 62.5014C133.408 64.0882 140.001 66.9052 142.154 71.3398C144.214 75.5899 151.995 85.4862 158.976 88.5615C166.19 91.7045 168.847 94.583 171.345 101.951C173.257 107.592 173.725 110.341 173.842 111.362C175.072 110.679 178.627 108.287 179.433 103.981C180.417 98.6793 179.82 96.6373 176.357 93.5743C172.286 89.9393 164.671 82.5032 159.32 73.3757C157.162 69.8025 155.53 65.9372 154.473 61.8986C153.729 58.9659 152.609 56.1419 151.14 53.4969C146.834 45.8086 140.77 42.6841 133.106 44.2217C126.66 45.5072 123.339 49.2899 122.207 50.8583C121.937 51.2396 121.697 51.5471 121.457 51.8239C120.356 53.1155 116.536 58.2636 113.726 70.3988C110.201 85.5539 110.65 92.0489 115.485 95.2226C117.639 96.6288 120.111 97.4745 122.675 97.6829C124.053 97.8613 125.135 98.0027 125.855 98.7715C127.042 100.063 127.651 101.576 127.3 102.382C127.223 102.558 127.094 102.705 126.93 102.804C126.766 102.903 126.575 102.949 126.384 102.936C126.141 102.936 125.9 102.909 125.664 102.856C126.685 103.993 128.407 105.47 130.025 104.738C132.75 103.508 135.708 99.1283 133.764 93.2913C131.993 87.9772 127.614 82.6262 125.965 80.6149C125.762 80.3689 125.609 80.1782 125.51 80.0491C124.606 78.8866 122.988 67.0405 122.81 65.6935C122.824 65.1246 122.961 64.5654 123.21 64.0539C123.46 63.5424 123.816 63.0905 124.256 62.7289C124.861 62.329 125.579 62.1329 126.304 62.1692ZM121.998 97.0617H121.955C121.801 97.0617 118.043 96.5143 115.608 93.8203C113.147 91.0833 114.599 86.3042 114.661 86.1013C114.683 86.0283 114.733 85.9665 114.799 85.9278C114.864 85.8892 114.942 85.8764 115.017 85.8922C115.092 85.9096 115.158 85.9534 115.203 86.0155C115.248 86.0776 115.27 86.1539 115.263 86.2305C114.538 92.7193 122.029 96.4466 122.134 96.4835C122.199 96.5154 122.251 96.5693 122.28 96.6357C122.309 96.7022 122.314 96.7768 122.293 96.8464C122.274 96.9081 122.236 96.9622 122.184 97.0008C122.132 97.0395 122.069 97.0608 122.004 97.0617H121.998ZM116.063 93.4021C117.172 94.5627 118.549 95.4329 120.073 95.9361C118.228 94.6568 115.571 92.2827 114.808 88.9613C114.741 90.419 114.95 92.1719 116.038 93.4021H116.063Z" fill="#263238"/>
<path d="M131.396 149.151C131.396 149.151 114.697 146.193 110.558 147.675C106.419 149.157 95.6305 166.89 93.7054 168.956C91.7802 171.023 89.7136 171.915 87.9422 171.915C86.1709 171.915 79.8111 170.734 76.1146 171.472C72.4181 172.21 67.8359 174.578 68.2849 176.792C68.7339 179.006 70.7943 180.046 77.5969 181.098C84.3995 182.149 91.6388 179.621 93.5577 178.582C95.4767 177.542 97.6971 176.072 98.2876 175.777C98.878 175.482 104.198 174.295 107.157 172.376C109.353 170.865 111.428 169.185 113.363 167.351C113.363 167.351 125.928 173.114 130.658 175.63C135.388 178.145 142.781 179.769 146.92 179.769C151.06 179.769 160.077 178.582 162.297 177.549C164.517 176.515 168.651 172.524 168.651 167.948C168.651 163.371 169.143 156.969 167.636 156.692C166.129 156.415 164.806 157.012 163.33 156.864C161.854 156.716 153.717 152.134 151.644 151.242C149.571 150.351 131.396 149.151 131.396 149.151Z" fill="#263238"/>
<path d="M80.9859 181.657C79.8351 181.662 78.6855 181.578 77.5477 181.405C70.7021 180.366 68.4694 179.308 67.9835 176.878C67.4976 174.449 72.4366 171.921 76.0531 171.195C78.7164 170.66 82.7512 171.109 85.4205 171.404C86.5461 171.533 87.4379 171.632 87.9423 171.632C89.7874 171.632 91.7679 170.617 93.4778 168.772C94.0129 168.194 95.323 166.311 96.9468 163.851C101.111 157.701 107.403 148.475 110.447 147.386C114.587 145.904 130.535 148.69 131.427 148.844C132.387 148.905 149.682 150.074 151.767 150.935C152.511 151.261 154.006 152.036 155.74 152.94C158.576 154.416 162.463 156.44 163.355 156.532C163.993 156.571 164.633 156.534 165.262 156.421C166.061 156.269 166.88 156.251 167.685 156.366C169.057 156.612 169.093 159.829 168.989 165.087C168.989 166.059 168.952 167.025 168.952 167.923C168.952 172.696 164.647 176.78 162.414 177.807C160.181 178.834 151.134 180.058 146.914 180.058C142.806 180.058 135.364 178.459 130.511 175.882C126.156 173.569 115.005 168.427 113.418 167.695C111.516 169.492 109.476 171.137 107.317 172.616C105.078 174.073 101.529 175.076 99.6223 175.654C99.0441 175.826 98.5459 175.968 98.4229 176.036C98.1953 176.146 97.6971 176.454 97.0636 176.847C96.1287 177.426 94.8556 178.213 93.6992 178.834C91.8233 179.904 86.5338 181.657 80.9859 181.657ZM79.1038 171.564C78.1227 171.548 77.1423 171.626 76.1762 171.798C72.3566 172.56 68.2111 174.873 68.5863 176.755C69.0045 178.865 71.1203 179.83 77.64 180.802C84.2826 181.811 91.5281 179.338 93.4102 178.342C94.5542 177.727 95.8212 176.946 96.7438 176.374C97.4142 175.956 97.9001 175.654 98.1523 175.531C98.5784 175.366 99.0138 175.227 99.4562 175.113C101.332 174.572 104.826 173.557 106.991 172.148C109.165 170.645 111.222 168.978 113.141 167.16C113.186 167.118 113.241 167.09 113.301 167.079C113.361 167.068 113.423 167.075 113.48 167.099C113.609 167.16 126.107 172.899 130.794 175.39C135.48 177.881 142.873 179.492 146.908 179.492C151.078 179.492 159.978 178.317 162.149 177.303C164.321 176.288 168.331 172.474 168.331 167.972C168.331 167.074 168.331 166.127 168.368 165.124C168.429 161.963 168.521 157.19 167.568 157.018C166.826 156.915 166.071 156.936 165.335 157.079C164.66 157.2 163.972 157.238 163.287 157.19C162.352 157.098 159.314 155.548 155.445 153.53C153.729 152.639 152.247 151.864 151.515 151.55C149.916 150.867 137.639 149.914 131.366 149.508H131.335C131.169 149.508 114.667 146.586 110.65 148.019C107.796 149.034 101.32 158.562 97.4511 164.251C95.7966 166.711 94.4865 168.606 93.9207 169.221C92.0755 171.195 89.9658 172.296 87.93 172.296C87.3949 172.296 86.4846 172.191 85.3406 172.068C83.2721 171.789 81.1903 171.621 79.1038 171.564Z" fill="#263238"/>
<path d="M105.533 153.272C105.457 153.272 105.383 153.246 105.324 153.198C105.267 153.14 105.235 153.062 105.235 152.98C105.235 152.898 105.267 152.82 105.324 152.762C106.909 150.897 108.601 149.127 110.392 147.46C112.28 145.941 124.754 147.331 126.174 147.497C126.255 147.506 126.329 147.547 126.379 147.61C126.43 147.673 126.454 147.754 126.445 147.835C126.434 147.916 126.392 147.99 126.328 148.04C126.264 148.091 126.182 148.114 126.101 148.106C120.645 147.491 112.053 146.912 110.773 147.94C109.004 149.577 107.338 151.323 105.785 153.168C105.755 153.204 105.716 153.233 105.672 153.251C105.628 153.269 105.58 153.276 105.533 153.272Z" fill="white"/>
<path d="M102.913 156.28C102.855 156.279 102.798 156.262 102.749 156.231C102.7 156.199 102.661 156.154 102.636 156.102C102.612 156.049 102.603 155.99 102.611 155.932C102.618 155.875 102.642 155.82 102.679 155.775C102.679 155.775 103.294 155.031 104.229 153.979C104.283 153.917 104.359 153.879 104.441 153.874C104.523 153.868 104.604 153.895 104.666 153.949C104.728 154.003 104.766 154.079 104.772 154.161C104.777 154.243 104.75 154.323 104.697 154.385C103.78 155.431 103.147 156.175 103.147 156.175C103.117 156.208 103.081 156.234 103.041 156.252C103 156.27 102.957 156.279 102.913 156.28Z" fill="white"/>
<path d="M93.2564 169.448C91.4665 171.189 89.566 171.958 87.9422 171.958C86.1647 171.958 79.8111 170.777 76.1146 171.515C72.4181 172.253 67.8359 174.621 68.2849 176.835C68.7339 179.049 70.7943 180.089 77.5969 181.141C84.3995 182.192 91.6388 179.664 93.5577 178.625C95.4767 177.586 97.5803 176.165 98.2384 175.845C96.9863 175.214 95.8899 174.313 95.0284 173.207C94.1668 172.1 93.5616 170.817 93.2564 169.448Z" fill="white"/>
<path d="M80.9859 181.657C79.8351 181.662 78.6855 181.578 77.5477 181.405C70.7021 180.366 68.4694 179.308 67.9835 176.878C67.4976 174.449 72.4366 171.921 76.0531 171.195C78.7164 170.66 82.7512 171.109 85.4205 171.404C86.5461 171.533 87.4379 171.632 87.9423 171.632C89.6275 171.632 91.4358 170.771 93.0411 169.208C93.081 169.171 93.1296 169.145 93.1823 169.132C93.235 169.12 93.2901 169.12 93.3425 169.135C93.394 169.149 93.4409 169.176 93.4787 169.214C93.5164 169.251 93.5437 169.298 93.5578 169.35C93.9822 171.01 95.1754 174.024 98.3676 175.531C98.4196 175.556 98.4634 175.596 98.4941 175.645C98.5248 175.694 98.541 175.75 98.541 175.808C98.541 175.866 98.5248 175.922 98.4941 175.971C98.4634 176.02 98.4196 176.06 98.3676 176.085C98.1215 176.214 97.648 176.503 97.0513 176.872C96.1226 177.45 94.8494 178.237 93.6931 178.859C91.8233 179.904 86.5338 181.657 80.9859 181.657ZM79.1038 171.564C78.1227 171.548 77.1423 171.626 76.1762 171.798C72.3566 172.56 68.2111 174.873 68.5863 176.755C69.0045 178.865 71.1203 179.83 77.64 180.802C84.2826 181.811 91.5281 179.338 93.4102 178.342C94.5542 177.727 95.8151 176.946 96.7438 176.374C97.0698 176.171 97.3589 175.993 97.5926 175.851C95.3933 174.565 93.7807 172.474 93.0965 170.02C91.7109 171.375 89.8776 172.176 87.9423 172.271C87.4072 172.271 86.4969 172.167 85.3529 172.044C83.2799 171.772 81.1939 171.612 79.1038 171.564Z" fill="#263238"/>
<path d="M88.3851 175.045C87.6716 173.883 88.4651 172.585 89.2093 171.792C88.7937 171.887 88.3687 171.937 87.9422 171.939C86.1647 171.939 79.8111 170.758 76.1146 171.496C72.4181 172.234 67.8359 174.602 68.2849 176.817C68.7339 179.031 70.7943 180.07 77.5969 181.122C84.3995 182.174 91.6388 179.646 93.5577 178.607C93.853 178.453 94.1728 178.281 94.4557 178.108C92.586 177.832 89.4184 176.718 88.3851 175.045Z" fill="white"/>
<path d="M80.9859 181.657C79.8351 181.662 78.6855 181.578 77.5477 181.405C70.7021 180.366 68.4694 179.308 67.9835 176.878C67.4976 174.449 72.4366 171.921 76.0531 171.195C78.7164 170.66 82.7512 171.109 85.4205 171.404C86.5461 171.533 87.4379 171.632 87.9423 171.632C88.3461 171.629 88.7483 171.582 89.1416 171.49C89.2055 171.476 89.2721 171.483 89.3319 171.51C89.3916 171.536 89.4413 171.581 89.4738 171.638C89.5076 171.693 89.5224 171.758 89.5157 171.823C89.509 171.887 89.4813 171.947 89.4369 171.995C88.7419 172.77 88.0407 173.895 88.6496 174.879C89.6091 176.448 92.709 177.536 94.4988 177.782C94.5621 177.791 94.621 177.82 94.6673 177.864C94.7136 177.908 94.745 177.966 94.7572 178.028C94.7687 178.091 94.7608 178.156 94.7344 178.215C94.708 178.273 94.6645 178.322 94.6095 178.354C94.302 178.533 93.9945 178.699 93.7054 178.859C91.8233 179.904 86.5338 181.657 80.9859 181.657ZM79.1038 171.564C78.1227 171.548 77.1423 171.626 76.1762 171.798C72.3566 172.56 68.2111 174.873 68.5863 176.755C69.0045 178.865 71.1203 179.831 77.64 180.802C84.2826 181.811 91.5281 179.338 93.4102 178.342L93.5639 178.262C91.6203 177.825 89.0555 176.749 88.1206 175.23C87.5855 174.356 87.7086 173.335 88.4712 172.247C88.295 172.256 88.1185 172.256 87.9423 172.247C87.4072 172.247 86.4969 172.142 85.3529 172.019C83.2795 171.756 81.1935 171.604 79.1038 171.564Z" fill="#263238"/>
<path d="M133.955 88.0756C133.955 88.0756 122.38 88.1986 121.125 92.6025C119.87 97.0063 120.996 118.638 120.873 125.816C120.75 132.994 120.75 137.637 121.629 139.402C122.509 141.168 127.663 144.434 128.044 144.557C128.426 144.68 127.915 148.579 127.915 148.579C127.915 148.579 136.846 149.711 141.877 149.84C146.908 149.969 151.435 151.851 156.085 155.499C160.735 159.146 163.761 161.532 163.761 161.532L166.652 158.389C166.652 158.389 167.783 169.079 169.044 173.987C170.305 178.896 174.58 179.142 175.81 179.142C177.04 179.142 181.216 179.019 181.216 179.019C181.216 179.019 177.194 171.595 175.429 166.564C173.663 161.532 172.538 157.258 172.538 157.258C172.538 157.258 173.417 155.874 173.417 152.86C173.417 149.846 172.802 148.081 172.919 145.061C173.036 142.041 178.455 128.836 176.185 114.123C173.916 99.4112 174.678 95.2534 169.143 92.3626C163.607 89.4718 151.533 87.7066 148.138 87.4421C144.743 87.1776 133.955 88.0756 133.955 88.0756Z" fill="#5B88D9"/>
<path d="M175.847 179.437C174.131 179.437 170.004 178.914 168.755 174.049C167.691 169.891 166.707 161.514 166.43 159.084L164.001 161.729C163.949 161.787 163.877 161.823 163.799 161.83C163.721 161.837 163.644 161.814 163.583 161.766C163.583 161.766 160.563 159.374 155.913 155.726C151.263 152.079 146.736 150.258 141.883 150.135C136.889 150.012 127.977 148.905 127.891 148.874C127.811 148.862 127.738 148.82 127.688 148.758C127.662 148.726 127.643 148.69 127.632 148.651C127.621 148.611 127.619 148.57 127.626 148.53C127.824 147.294 127.9 146.041 127.854 144.79C127.017 144.354 122.269 141.328 121.365 139.526C120.461 137.723 120.454 132.889 120.577 125.797C120.614 123.534 120.534 119.887 120.436 115.661C120.227 106.712 119.969 95.5732 120.842 92.5164C122.14 87.9772 133.328 87.7742 133.949 87.7681C134.57 87.7619 144.842 86.8947 148.2 87.153C151.195 87.3744 163.576 89.0966 169.321 92.0735C173.885 94.4538 174.309 97.7013 175.472 106.38C175.761 108.588 176.087 111.091 176.548 114.056C178.258 125.195 175.576 135.583 174.137 141.119C173.751 142.398 173.465 143.706 173.282 145.03C173.237 146.406 173.316 147.783 173.516 149.145C173.68 150.369 173.768 151.601 173.78 152.835C173.848 154.362 173.556 155.884 172.925 157.276C173.122 158.008 174.205 161.944 175.779 166.441C177.508 171.392 181.499 178.773 181.542 178.846C181.568 178.892 181.582 178.944 181.582 178.997C181.582 179.05 181.568 179.102 181.542 179.148C181.517 179.193 181.481 179.231 181.436 179.258C181.392 179.285 181.342 179.3 181.29 179.302C181.21 179.289 177.077 179.437 175.847 179.437ZM166.652 158.07C166.684 158.064 166.718 158.064 166.75 158.07C166.806 158.088 166.856 158.122 166.893 158.168C166.93 158.214 166.953 158.269 166.959 158.328C166.959 158.433 168.103 169.055 169.34 173.877C170.44 178.182 173.879 178.797 175.835 178.797C176.813 178.797 179.599 178.723 180.755 178.686C179.863 177.013 176.69 170.924 175.183 166.631C173.442 161.649 172.298 157.344 172.286 157.301C172.275 157.26 172.273 157.218 172.279 157.177C172.285 157.136 172.3 157.096 172.323 157.061C172.323 157.061 173.153 155.695 173.153 152.823C173.14 151.619 173.052 150.418 172.888 149.225C172.689 147.83 172.611 146.42 172.655 145.012C172.835 143.643 173.127 142.292 173.528 140.971C174.955 135.435 177.618 125.145 175.927 114.13C175.472 111.165 175.14 108.656 174.844 106.441C173.706 97.7567 173.319 94.8351 169.044 92.5963C163.404 89.6502 151.134 87.9465 148.132 87.725C144.799 87.479 134.072 88.3401 133.986 88.3401C133.875 88.3401 122.632 88.5123 121.451 92.6455C120.602 95.604 120.836 106.694 121.069 115.606C121.168 119.837 121.248 123.491 121.211 125.767C121.094 132.532 121.076 137.49 121.931 139.206C122.786 140.922 127.694 144.022 128.173 144.212C128.395 144.286 128.789 144.409 128.29 148.259C129.902 148.456 137.479 149.366 141.914 149.489C146.908 149.613 151.484 151.433 156.306 155.216C160.224 158.291 162.98 160.456 163.755 161.077L166.455 158.137C166.511 158.093 166.58 158.07 166.652 158.07Z" fill="#263238"/>
<path d="M125.775 79.9015C125.446 79.1968 125.218 78.4493 125.098 77.6811C122.46 73.2711 120.073 68.7196 119.446 66.5546C118.492 63.2763 119.224 57.0396 119.723 53.7614C118.019 56.4676 115.485 61.5972 113.455 70.368C110.054 84.9573 110.183 92.1227 115.337 95.5179C120.491 98.913 124.145 97.4061 125.652 99.0422C127.159 100.678 127.663 102.689 126.408 102.689C126.058 102.701 125.71 102.64 125.384 102.51C125.059 102.38 124.765 102.183 124.52 101.933C124.52 101.933 127.411 106.337 130.179 105.076C132.946 103.815 136.089 99.2943 134.078 93.2544C132.067 87.2145 126.642 81.0332 125.775 79.9015ZM115.841 93.605C113.455 90.9664 114.962 86.1874 114.962 86.1874C114.205 92.9531 122.004 96.7541 122.004 96.7541C122.004 96.7541 118.234 96.2559 115.841 93.605Z" fill="#263238"/>
<path d="M129.133 105.586C126.605 105.586 124.372 102.24 124.262 102.074C124.224 102.009 124.211 101.932 124.226 101.857C124.242 101.783 124.284 101.717 124.345 101.672C124.406 101.628 124.481 101.607 124.557 101.614C124.632 101.621 124.702 101.656 124.754 101.712C124.971 101.927 125.229 102.095 125.514 102.206C125.799 102.317 126.103 102.369 126.408 102.357C126.648 102.357 126.728 102.259 126.765 102.173C126.98 101.681 126.494 100.383 125.424 99.2267C124.864 98.6116 123.923 98.4948 122.619 98.3287C119.961 98.1045 117.4 97.2186 115.171 95.7516C110.085 92.3995 109.556 85.7322 113.154 70.2696C115.183 61.5542 117.705 56.3938 119.458 53.6014C119.496 53.5413 119.553 53.4958 119.62 53.4723C119.687 53.4489 119.76 53.4488 119.827 53.4723C119.893 53.498 119.949 53.5455 119.985 53.6069C120.02 53.6684 120.034 53.7402 120.024 53.8105C119.52 57.1626 118.794 63.2702 119.741 66.4685C120.307 68.4306 122.515 72.7668 125.363 77.5396C125.38 77.5683 125.392 77.5994 125.4 77.6319C125.496 78.3565 125.703 79.0618 126.015 79.7231L126.457 80.2766C128.124 82.3125 132.559 87.725 134.367 93.1437C136.434 99.3497 133.229 104.012 130.302 105.347C129.934 105.509 129.535 105.591 129.133 105.586ZM125.689 102.892C126.71 104.03 128.432 105.506 130.049 104.775C132.774 103.544 135.733 99.1652 133.789 93.3282C132.018 88.0141 127.638 82.6631 125.99 80.6518C125.787 80.4058 125.633 80.2151 125.535 80.086C125.393 79.9015 125.178 79.4709 124.809 77.7979C122.527 73.9846 119.852 69.0641 119.151 66.6407C118.32 63.7746 118.738 58.7556 119.2 55.2436C117.551 58.2021 115.509 62.9996 113.75 70.4111C110.226 85.5662 110.675 92.0612 115.509 95.2349C117.664 96.6411 120.135 97.4868 122.699 97.6952C124.077 97.8735 125.16 98.015 125.879 98.7838C127.066 100.075 127.675 101.589 127.325 102.394C127.248 102.57 127.118 102.717 126.954 102.816C126.79 102.915 126.599 102.961 126.408 102.948C126.167 102.956 125.926 102.938 125.689 102.892ZM121.998 97.0617H121.955C121.801 97.0617 118.043 96.5143 115.608 93.8203C113.148 91.0833 114.599 86.3042 114.661 86.1013C114.683 86.0283 114.733 85.9665 114.799 85.9278C114.864 85.8892 114.942 85.8764 115.017 85.8922C115.092 85.9096 115.158 85.9534 115.203 86.0155C115.248 86.0776 115.27 86.1539 115.263 86.2304C114.538 92.7193 122.029 96.4466 122.134 96.4835C122.199 96.5154 122.251 96.5693 122.28 96.6357C122.309 96.7021 122.314 96.7768 122.293 96.8464C122.274 96.9081 122.236 96.9622 122.184 97.0008C122.132 97.0395 122.069 97.0608 122.004 97.0617H121.998ZM116.063 93.402C117.172 94.558 118.546 95.4258 120.067 95.93C118.222 94.6506 115.571 92.2827 114.808 88.9613C114.741 90.419 114.95 92.1719 116.038 93.402H116.063Z" fill="#263238"/>
<path d="M153.532 147.035H153.489L149.897 146.519C149.818 146.507 149.746 146.464 149.698 146.399C149.65 146.335 149.629 146.254 149.639 146.174C149.65 146.094 149.692 146.021 149.757 145.971C149.821 145.921 149.903 145.899 149.984 145.91L153.575 146.427C153.616 146.429 153.655 146.44 153.692 146.458C153.728 146.476 153.76 146.501 153.787 146.532C153.813 146.562 153.833 146.598 153.846 146.636C153.859 146.675 153.864 146.715 153.861 146.756C153.859 146.796 153.848 146.835 153.83 146.872C153.812 146.908 153.787 146.94 153.756 146.967C153.726 146.993 153.69 147.014 153.652 147.026C153.613 147.039 153.573 147.044 153.532 147.042V147.035Z" fill="#263238"/>
<path d="M147.339 146.137H147.29C135.031 144.348 128.512 143.265 127.927 142.927C126.826 142.312 128.272 132.563 129.231 126.818C129.244 126.737 129.289 126.664 129.356 126.615C129.423 126.567 129.507 126.547 129.588 126.56C129.67 126.573 129.743 126.618 129.791 126.685C129.84 126.752 129.859 126.835 129.846 126.917C128.659 134.008 127.749 141.746 128.266 142.416C128.493 142.533 130.874 143.117 147.388 145.528C147.47 145.534 147.545 145.572 147.599 145.634C147.653 145.696 147.68 145.776 147.674 145.858C147.668 145.939 147.63 146.015 147.569 146.069C147.507 146.122 147.426 146.149 147.345 146.144L147.339 146.137Z" fill="#263238"/>
<path d="M127.915 148.874H127.872C127.833 148.865 127.796 148.848 127.764 148.824C127.732 148.801 127.704 148.771 127.684 148.736C127.663 148.702 127.65 148.664 127.644 148.624C127.638 148.585 127.641 148.544 127.651 148.505L128.881 143.363C128.901 143.284 128.952 143.216 129.022 143.173C129.092 143.131 129.176 143.117 129.256 143.136C129.295 143.145 129.332 143.162 129.364 143.186C129.396 143.21 129.424 143.24 129.444 143.274C129.465 143.308 129.478 143.346 129.484 143.386C129.49 143.426 129.487 143.466 129.477 143.505L128.247 148.647C128.228 148.718 128.185 148.781 128.124 148.823C128.063 148.864 127.989 148.883 127.915 148.874Z" fill="#263238"/>
<path d="M171.449 157.762C170.124 157.671 168.816 157.413 167.556 156.993C163.865 155.929 156.269 153.334 156.189 153.303C156.113 153.276 156.05 153.221 156.015 153.148C155.979 153.076 155.973 152.992 155.999 152.915C156.011 152.876 156.031 152.84 156.058 152.809C156.085 152.778 156.118 152.752 156.154 152.734C156.191 152.716 156.231 152.705 156.272 152.702C156.313 152.7 156.354 152.705 156.392 152.719C156.466 152.749 164.019 155.339 167.722 156.409C171.086 157.368 171.769 157.135 171.794 157.122C171.825 157.1 171.861 157.084 171.899 157.075C171.937 157.067 171.976 157.067 172.014 157.074C172.052 157.082 172.088 157.097 172.12 157.119C172.152 157.141 172.179 157.169 172.2 157.202C172.244 157.273 172.259 157.359 172.243 157.441C172.227 157.523 172.181 157.596 172.113 157.645C171.907 157.745 171.677 157.786 171.449 157.762Z" fill="#263238"/>
<path d="M149.239 102.948C149.185 102.949 149.131 102.934 149.085 102.905L143.415 99.688C143.348 99.6457 143.301 99.5796 143.282 99.5033C143.263 99.427 143.273 99.3463 143.312 99.2778C143.351 99.2093 143.414 99.1581 143.489 99.1349C143.564 99.1117 143.645 99.1181 143.716 99.1529L148.944 102.124L149.085 97.8736C149.085 97.8332 149.094 97.7932 149.11 97.7562C149.126 97.7191 149.149 97.6857 149.178 97.658C149.208 97.6303 149.243 97.609 149.281 97.5953C149.319 97.5816 149.359 97.5758 149.399 97.5783C149.44 97.5791 149.48 97.5881 149.518 97.6047C149.555 97.6212 149.589 97.6451 149.617 97.6749C149.645 97.7047 149.667 97.7398 149.681 97.7781C149.696 97.8165 149.702 97.8573 149.701 97.8982L149.547 102.653C149.543 102.705 149.527 102.757 149.499 102.802C149.471 102.847 149.433 102.884 149.387 102.911C149.342 102.935 149.291 102.948 149.239 102.948Z" fill="#263238"/>
<path d="M134.748 99.9463C134.685 99.9459 134.623 99.9259 134.571 99.8889C134.52 99.852 134.481 99.7999 134.46 99.7399C134.439 99.6799 134.437 99.6149 134.455 99.5538C134.472 99.4928 134.508 99.4386 134.558 99.3989L135.634 98.5501C135.666 98.5225 135.703 98.5015 135.743 98.4887C135.783 98.4758 135.825 98.4713 135.867 98.4754C135.908 98.4795 135.949 98.492 135.986 98.5123C136.022 98.5327 136.054 98.5603 136.08 98.5935C136.106 98.6267 136.124 98.6649 136.135 98.7056C136.145 98.7462 136.147 98.7886 136.14 98.8301C136.134 98.8715 136.119 98.9112 136.096 98.9466C136.074 98.982 136.044 99.0124 136.009 99.036L134.939 99.8786C134.885 99.9216 134.818 99.9454 134.748 99.9463Z" fill="#263238"/>
<path d="M128.69 109.388C128.61 109.388 128.532 109.356 128.475 109.3C128.417 109.243 128.384 109.167 128.383 109.086L128.309 106.177C128.307 106.137 128.313 106.096 128.327 106.058C128.341 106.02 128.363 105.985 128.39 105.956C128.417 105.926 128.45 105.902 128.487 105.885C128.524 105.868 128.564 105.859 128.604 105.857C128.684 105.859 128.76 105.891 128.818 105.947C128.875 106.003 128.908 106.078 128.911 106.158L128.985 109.074C128.986 109.114 128.979 109.154 128.964 109.192C128.95 109.23 128.928 109.264 128.9 109.293C128.872 109.322 128.838 109.346 128.801 109.362C128.764 109.378 128.724 109.387 128.684 109.388H128.69Z" fill="#263238"/>
<path d="M126.027 59.2784C126.027 59.2784 119.464 65.0047 119.464 66.5546C119.464 68.1046 121.611 74.9072 122.447 77.6565C123.469 80.5862 125.095 83.2684 127.22 85.5293C129.127 87.559 132.829 89.9454 133.666 89.9454C134.337 89.8733 134.986 89.6639 135.573 89.3303C135.573 89.3303 136.052 99.116 137.719 102.579C139.386 106.042 140.229 105.919 140.585 105.082C140.942 104.246 145.358 89.8101 145.358 89.8101L147.505 79.5447L142.972 67.8585C142.972 67.8585 136.649 62.2492 132.35 60.8161C128.05 59.383 126.027 59.2784 126.027 59.2784Z" fill="white"/>
<path d="M140.007 105.9C139.552 105.9 138.777 105.55 137.424 102.733C135.936 99.6572 135.394 91.8398 135.271 89.8162C134.763 90.0618 134.211 90.2059 133.648 90.2406C132.602 90.2406 128.801 87.6697 126.98 85.7322C124.819 83.4383 123.168 80.7135 122.134 77.7364L121.808 76.6724C120.805 73.4187 119.138 67.9754 119.138 66.5485C119.138 64.937 124.674 60.0103 125.805 59.0385C125.835 59.0118 125.871 58.9915 125.909 58.9788C125.947 58.9661 125.987 58.9613 126.027 58.9647C126.113 58.9647 128.143 59.1001 132.43 60.527C136.717 61.9539 142.886 67.4034 143.156 67.631C143.195 67.6639 143.225 67.7062 143.242 67.754L147.775 79.4401C147.794 79.4961 147.794 79.5564 147.775 79.6124L145.629 89.8777C145.444 90.4928 141.2 104.369 140.838 105.211C140.604 105.759 140.259 105.882 140.013 105.888L140.007 105.9ZM135.554 89.0412C135.606 89.0404 135.657 89.0532 135.702 89.0781C135.748 89.1046 135.786 89.142 135.814 89.1871C135.842 89.2322 135.859 89.2835 135.862 89.3365C135.862 89.4349 136.354 99.0975 137.978 102.462C139.288 105.168 139.897 105.297 140.013 105.285C140.13 105.273 140.235 105.094 140.284 104.984C140.561 104.332 143.519 94.7244 145.045 89.7363L147.173 79.5878L142.695 68.0492C142.08 67.4957 136.212 62.446 132.239 61.1175C130.256 60.4035 128.205 59.8925 126.119 59.5921C123.616 61.7879 119.759 65.5397 119.759 66.5546C119.759 67.8893 121.475 73.4863 122.398 76.494L122.73 77.5642C123.728 80.4538 125.33 83.0978 127.429 85.3201C129.416 87.4236 132.965 89.6256 133.654 89.6256C134.272 89.5588 134.87 89.3684 135.413 89.0659C135.457 89.0466 135.506 89.0382 135.554 89.0412Z" fill="#263238"/>
<path d="M131.132 82.6877C130.736 82.6808 130.343 82.6102 129.969 82.4786C129.809 82.4293 129.397 82.294 129.397 79.9199C129.399 79.8388 129.432 79.7615 129.489 79.7042C129.547 79.6469 129.624 79.6139 129.705 79.6124C129.786 79.6124 129.865 79.6448 129.922 79.7024C129.98 79.7601 130.012 79.8383 130.012 79.9199C129.986 80.5924 130.054 81.2654 130.215 81.9188C130.83 82.1095 131.845 82.2879 132.165 81.476C132.196 81.4012 132.256 81.3418 132.331 81.3107C132.406 81.2796 132.49 81.2793 132.565 81.3099C132.602 81.3242 132.636 81.3458 132.665 81.3734C132.694 81.401 132.718 81.434 132.734 81.4707C132.75 81.5073 132.758 81.5468 132.759 81.5868C132.759 81.6267 132.752 81.6665 132.737 81.7036C132.609 82.0169 132.384 82.2812 132.095 82.4582C131.807 82.6351 131.469 82.7155 131.132 82.6877Z" fill="#263238"/>
<path d="M131.735 84.9204C131.31 84.9204 131.021 84.8835 130.978 84.8835C130.897 84.8713 130.824 84.8277 130.774 84.7622C130.725 84.6966 130.703 84.6143 130.714 84.5329C130.726 84.4529 130.769 84.3807 130.833 84.3314C130.897 84.2821 130.978 84.2595 131.058 84.2684C131.095 84.2684 134.435 84.6866 135.517 82.4232C135.552 82.3502 135.614 82.2938 135.69 82.2661C135.766 82.2385 135.85 82.2419 135.923 82.2756C135.96 82.2928 135.993 82.3171 136.021 82.3471C136.048 82.3772 136.069 82.4125 136.083 82.4508C136.097 82.4891 136.103 82.5298 136.101 82.5705C136.099 82.6111 136.088 82.651 136.071 82.6877C135.136 84.6436 132.909 84.9204 131.735 84.9204Z" fill="#263238"/>
<path d="M135.554 89.3488C135.554 89.3488 139.491 86.2735 141.643 83.3827C141.643 83.3827 139.257 88.992 138.537 90.4251C138.128 91.2362 137.771 92.0723 137.467 92.9284L135.554 89.3488Z" fill="#263238"/>
<path d="M137.467 93.236C137.411 93.2366 137.355 93.2221 137.307 93.1939C137.258 93.1658 137.218 93.1251 137.19 93.0761L135.284 89.4964C135.25 89.4325 135.24 89.359 135.255 89.2885C135.269 89.2179 135.308 89.1545 135.363 89.1089C135.407 89.0782 139.3 85.9967 141.397 83.1982C141.443 83.1383 141.508 83.0972 141.582 83.0824C141.656 83.0677 141.732 83.0805 141.797 83.1182C141.862 83.1547 141.911 83.2138 141.935 83.2842C141.958 83.3546 141.955 83.4313 141.926 83.4996C141.828 83.7333 139.527 89.1397 138.814 90.5605C138.412 91.3587 138.059 92.1802 137.756 93.0207C137.737 93.0775 137.702 93.1276 137.655 93.1648C137.608 93.2019 137.551 93.2245 137.492 93.2298L137.467 93.236ZM135.948 89.4288L137.412 92.1842C137.596 91.7229 137.879 91.0587 138.26 90.2837C138.697 89.4103 139.78 86.9378 140.536 85.1725C139.106 86.6943 137.573 88.1164 135.948 89.4288Z" fill="#263238"/>
<path d="M135.099 74.9687C134.499 74.9666 133.901 74.886 133.321 74.7288C133.281 74.7175 133.243 74.6984 133.21 74.6725C133.177 74.6466 133.15 74.6144 133.129 74.5779C133.109 74.5413 133.096 74.5011 133.091 74.4594C133.086 74.4178 133.089 74.3756 133.1 74.3352C133.111 74.2948 133.131 74.257 133.156 74.2241C133.182 74.1911 133.214 74.1635 133.251 74.143C133.288 74.1224 133.328 74.1092 133.369 74.1042C133.411 74.0992 133.453 74.1025 133.494 74.1138C133.524 74.1138 136.514 74.9748 137.682 73.1666C137.727 73.0994 137.797 73.0523 137.876 73.0351C137.955 73.0179 138.038 73.032 138.107 73.0743C138.141 73.0956 138.171 73.1236 138.195 73.1567C138.218 73.1898 138.234 73.2272 138.243 73.2669C138.252 73.3065 138.252 73.3475 138.245 73.3873C138.237 73.4271 138.222 73.465 138.199 73.4987C137.851 73.9888 137.384 74.3814 136.841 74.6388C136.298 74.8962 135.698 75.0098 135.099 74.9687Z" fill="#263238"/>
<path d="M131.975 71.8749C131.907 71.8742 131.842 71.8516 131.789 71.8105C131.736 71.7694 131.698 71.7121 131.681 71.6473C131.663 71.5824 131.667 71.5137 131.693 71.4515C131.718 71.3893 131.763 71.3372 131.821 71.3029C131.975 71.2168 135.554 69.2117 138.156 70.0728C138.195 70.0846 138.231 70.1042 138.262 70.1302C138.293 70.1563 138.318 70.1884 138.337 70.2246C138.355 70.2608 138.366 70.3003 138.369 70.3408C138.372 70.3813 138.366 70.422 138.353 70.4603C138.326 70.5368 138.271 70.6 138.199 70.6367C138.126 70.6734 138.043 70.6807 137.965 70.6571C135.616 69.8698 132.159 71.8011 132.128 71.8257C132.082 71.8539 132.029 71.8707 131.975 71.8749Z" fill="#263238"/>
<path d="M125.037 76.6047C124.429 76.6076 123.834 76.4369 123.321 76.1127C123.256 76.0637 123.212 75.9914 123.2 75.9111C123.187 75.8308 123.206 75.7487 123.253 75.6821C123.301 75.6177 123.372 75.5745 123.451 75.5619C123.531 75.5492 123.612 75.5681 123.677 75.6145C124.176 75.9176 124.761 76.0482 125.341 75.9859C125.921 75.9237 126.465 75.6721 126.888 75.2701C126.919 75.244 126.955 75.2245 126.993 75.2125C127.032 75.2005 127.072 75.1965 127.112 75.2005C127.152 75.2045 127.191 75.2165 127.227 75.2359C127.262 75.2552 127.293 75.2815 127.318 75.3131C127.345 75.3439 127.364 75.3797 127.376 75.4182C127.388 75.4568 127.392 75.4973 127.388 75.5375C127.384 75.5776 127.372 75.6166 127.353 75.652C127.333 75.6874 127.307 75.7186 127.275 75.7436C126.653 76.2845 125.861 76.5893 125.037 76.6047Z" fill="#263238"/>
<path d="M122.429 73.308C122.371 73.3089 122.314 73.2931 122.265 73.2626C122.216 73.232 122.177 73.188 122.152 73.1358C122.117 73.0629 122.112 72.9794 122.137 72.9026C122.162 72.8258 122.216 72.7617 122.287 72.7237C125.043 71.346 126.931 72.5699 127.011 72.6253C127.071 72.6734 127.11 72.742 127.122 72.8177C127.134 72.8934 127.117 72.9708 127.074 73.0347C127.032 73.0985 126.967 73.1443 126.893 73.163C126.819 73.1817 126.74 73.172 126.673 73.1358C126.605 73.0927 124.987 72.0656 122.564 73.2773C122.521 73.2961 122.475 73.3066 122.429 73.308Z" fill="#263238"/>
<path d="M160.366 103.292C160.366 103.292 158.982 108.071 159.486 111.343C159.991 114.616 159.24 125.164 159.24 125.681C159.24 126.197 156.472 127.44 156.595 128.319C156.754 129.168 156.959 130.008 157.211 130.835L153.182 129.199L147.775 136.37C151.288 139.552 155.173 142.296 159.345 144.544C166.639 148.567 171.646 147.312 171.646 147.312C171.646 147.312 174.537 129.58 174.918 121.652C175.299 113.724 177.052 103.292 174.303 95.8746C172.144 90.0746 162.617 89.3304 160.47 99.2698" fill="#5B88D9"/>
<path d="M169.586 147.81C167.414 147.81 163.755 147.318 159.209 144.815C155.01 142.549 151.097 139.788 147.554 136.592C147.505 136.536 147.478 136.463 147.478 136.389C147.478 136.314 147.505 136.242 147.554 136.186L152.96 129.014C153.002 128.96 153.059 128.921 153.125 128.903C153.191 128.885 153.26 128.89 153.323 128.916L156.755 130.312C156.567 129.671 156.415 129.02 156.3 128.362C156.202 127.667 157.131 127.009 158.029 126.375C158.364 126.167 158.672 125.917 158.945 125.631C158.945 125.594 158.945 125.207 158.994 124.616C159.16 121.732 159.609 114.068 159.191 111.386C158.687 108.09 160.021 103.391 160.083 103.206C160.111 103.131 160.167 103.07 160.239 103.035C160.311 103.001 160.394 102.996 160.47 103.022C160.548 103.046 160.613 103.099 160.652 103.17C160.691 103.241 160.701 103.325 160.679 103.403C160.679 103.452 159.32 108.157 159.806 111.319C160.23 114.062 159.806 121.775 159.615 124.678C159.578 125.25 159.56 125.619 159.56 125.705C159.56 126.056 159.179 126.32 158.391 126.898C157.856 127.273 156.866 127.975 156.915 128.301C157.073 129.132 157.278 129.953 157.53 130.761C157.548 130.816 157.549 130.875 157.535 130.931C157.52 130.987 157.489 131.037 157.446 131.076C157.403 131.115 157.35 131.141 157.293 131.15C157.236 131.16 157.178 131.153 157.124 131.13L153.317 129.586L148.218 136.352C151.672 139.421 155.465 142.085 159.523 144.292C165.821 147.767 170.447 147.238 171.431 147.072C171.757 145.043 174.315 129.008 174.666 121.658C174.746 119.942 174.894 118.128 175.047 116.209C175.589 109.443 176.197 101.748 174.057 95.9976C173.572 94.728 172.691 93.6485 171.545 92.9194C170.398 92.1904 169.046 91.8506 167.691 91.9505C164.308 92.1965 161.731 94.9581 160.79 99.3312C160.782 99.3716 160.765 99.4099 160.742 99.444C160.719 99.4781 160.689 99.5072 160.654 99.5298C160.62 99.5523 160.581 99.5679 160.541 99.5755C160.5 99.5831 160.458 99.5826 160.418 99.5742C160.378 99.5657 160.339 99.5493 160.305 99.5261C160.271 99.5028 160.242 99.473 160.219 99.4384C160.197 99.4039 160.181 99.3652 160.174 99.3247C160.166 99.2841 160.167 99.2425 160.175 99.2021C161.178 94.546 163.964 91.6061 167.63 91.3354C169.116 91.2226 170.599 91.5926 171.858 92.3906C173.117 93.1885 174.084 94.3716 174.617 95.7639C176.813 101.644 176.191 109.4 175.644 116.239C175.49 118.152 175.349 119.96 175.269 121.67C174.894 129.518 172.021 147.183 171.99 147.361C171.983 147.421 171.957 147.477 171.916 147.521C171.875 147.565 171.822 147.595 171.763 147.607C171.048 147.76 170.317 147.829 169.586 147.81Z" fill="#263238"/>
<path d="M167.064 123.479C167.003 123.478 166.944 123.46 166.893 123.426C166.843 123.392 166.804 123.344 166.781 123.288C166.765 123.251 166.756 123.211 166.756 123.171C166.756 123.13 166.764 123.09 166.779 123.053C166.795 123.016 166.818 122.982 166.846 122.953C166.875 122.925 166.909 122.903 166.947 122.888L168.177 122.378C168.252 122.347 168.336 122.347 168.411 122.378C168.486 122.409 168.546 122.469 168.577 122.544C168.593 122.581 168.601 122.621 168.602 122.661C168.602 122.701 168.594 122.741 168.578 122.779C168.563 122.816 168.54 122.85 168.511 122.878C168.483 122.906 168.448 122.929 168.411 122.943L167.181 123.454C167.144 123.471 167.104 123.479 167.064 123.479Z" fill="#263238"/>
<path d="M160.741 126.111C160.701 126.119 160.659 126.118 160.619 126.11C160.579 126.102 160.54 126.085 160.506 126.062C160.472 126.039 160.443 126.01 160.421 125.975C160.398 125.941 160.383 125.902 160.375 125.862C160.367 125.822 160.368 125.78 160.376 125.74C160.384 125.7 160.401 125.661 160.424 125.627C160.447 125.593 160.476 125.564 160.511 125.542C160.545 125.519 160.584 125.504 160.624 125.496L165.409 123.503C165.447 123.486 165.487 123.476 165.529 123.474C165.57 123.473 165.611 123.479 165.65 123.494C165.689 123.509 165.724 123.531 165.754 123.56C165.784 123.589 165.807 123.623 165.823 123.661C165.839 123.7 165.848 123.741 165.848 123.782C165.848 123.823 165.839 123.864 165.823 123.902C165.807 123.94 165.783 123.975 165.753 124.003C165.723 124.032 165.688 124.054 165.649 124.069L160.858 126.062C160.824 126.088 160.783 126.105 160.741 126.111Z" fill="#263238"/>
<path d="M158.102 131.394C158.033 131.395 157.966 131.372 157.911 131.33C157.856 131.287 157.818 131.228 157.801 131.161C157.791 131.121 157.789 131.081 157.795 131.041C157.801 131.001 157.815 130.962 157.836 130.928C157.858 130.893 157.886 130.864 157.919 130.84C157.952 130.817 157.989 130.8 158.029 130.792C161.719 129.863 168.036 128.405 168.712 129.008C168.762 129.053 168.799 129.11 168.822 129.173C168.844 129.237 168.851 129.304 168.841 129.371C168.7 130.38 166.055 130.767 164.923 130.89C164.843 130.899 164.762 130.875 164.698 130.824C164.635 130.774 164.594 130.7 164.585 130.619C164.58 130.579 164.583 130.539 164.594 130.5C164.605 130.461 164.623 130.424 164.649 130.393C164.674 130.361 164.705 130.335 164.741 130.316C164.776 130.297 164.815 130.285 164.856 130.281C165.982 130.212 167.084 129.928 168.103 129.445C166.959 129.402 162.352 130.343 158.176 131.388L158.102 131.394Z" fill="#263238"/>
<path d="M168.411 136.05C168.35 136.049 168.291 136.031 168.241 135.997C168.191 135.963 168.152 135.915 168.128 135.86C166.83 132.784 159.271 131.905 159.197 131.899C159.157 131.894 159.118 131.882 159.082 131.862C159.046 131.843 159.015 131.816 158.99 131.785C158.938 131.721 158.914 131.639 158.923 131.557C158.932 131.476 158.973 131.401 159.037 131.35C159.101 131.299 159.183 131.275 159.265 131.284C159.591 131.321 167.261 132.225 168.7 135.62C168.729 135.696 168.728 135.78 168.697 135.856C168.666 135.931 168.608 135.992 168.534 136.026C168.494 136.04 168.453 136.049 168.411 136.05Z" fill="#263238"/>
<path d="M168.54 139.925H168.466C167.917 139.777 167.394 139.544 166.916 139.236C166.846 139.194 166.795 139.126 166.774 139.047C166.754 138.967 166.765 138.883 166.805 138.812C166.825 138.775 166.851 138.742 166.884 138.715C166.917 138.689 166.954 138.669 166.995 138.658C167.035 138.647 167.078 138.645 167.119 138.651C167.161 138.658 167.201 138.673 167.236 138.695C167.653 138.969 168.109 139.176 168.589 139.31C168.671 139.318 168.746 139.357 168.798 139.42C168.851 139.483 168.876 139.564 168.869 139.645C168.862 139.727 168.822 139.802 168.759 139.855C168.696 139.907 168.615 139.933 168.534 139.925H168.54Z" fill="#263238"/>
<path d="M165.803 138.486C165.744 138.488 165.685 138.471 165.637 138.437C162.598 136.413 158.447 132.994 158.41 132.957C158.378 132.932 158.352 132.9 158.333 132.865C158.313 132.83 158.301 132.791 158.297 132.751C158.293 132.71 158.297 132.67 158.309 132.631C158.321 132.593 158.341 132.557 158.367 132.526C158.418 132.464 158.493 132.424 158.573 132.416C158.654 132.408 158.734 132.432 158.797 132.483C158.84 132.52 162.967 135.921 165.975 137.926C166.043 137.971 166.089 138.041 166.106 138.121C166.122 138.2 166.106 138.283 166.061 138.351C166.034 138.394 165.995 138.429 165.95 138.453C165.905 138.476 165.854 138.488 165.803 138.486Z" fill="#263238"/>
<path d="M109.906 109.541C109.906 109.541 107.071 115.6 108.141 116.596C109.211 117.592 115.657 123.798 116.272 124.106C116.887 124.413 118.646 129.783 119.569 131.85C120.491 133.916 121.026 138.751 122.786 139.439C124.545 140.128 128.321 136.53 128.383 134.691C128.444 132.852 128.383 132.157 126.697 129.771C125.012 127.384 121.162 119.727 121.162 119.727L110.65 108.311L109.906 109.541Z" fill="white"/>
<path d="M123.284 139.839C123.074 139.84 122.865 139.803 122.669 139.729C121.334 139.206 120.7 136.856 120.092 134.587C119.882 133.7 119.61 132.828 119.28 131.979C118.96 131.253 118.542 130.134 118.099 128.977C117.447 127.249 116.463 124.635 116.112 124.377C115.761 124.118 113.32 121.916 109.346 118.183C108.676 117.568 108.147 117.045 107.901 116.817C106.757 115.753 108.91 110.876 109.599 109.437V109.4L110.361 108.17C110.387 108.13 110.422 108.097 110.462 108.073C110.503 108.048 110.548 108.033 110.595 108.028C110.643 108.024 110.691 108.03 110.736 108.047C110.78 108.065 110.821 108.092 110.853 108.127L121.352 119.548C121.372 119.568 121.389 119.591 121.402 119.616C121.438 119.696 125.246 127.292 126.9 129.623C128.659 132.083 128.745 132.864 128.641 134.722C128.586 136.069 126.869 138.062 125.307 139.089C124.711 139.514 124.013 139.772 123.284 139.839ZM110.177 109.701C108.86 112.512 107.79 115.852 108.332 116.381L109.783 117.752C111.776 119.653 115.934 123.608 116.389 123.848C116.844 124.087 117.434 125.527 118.665 128.768C119.101 129.931 119.513 131.025 119.827 131.733C120.175 132.611 120.459 133.513 120.676 134.433C121.192 136.358 121.832 138.738 122.884 139.163C123.357 139.347 124.114 139.126 125 138.548C126.556 137.533 128.013 135.681 128.075 134.667C128.149 132.895 128.075 132.28 126.445 129.955C124.815 127.63 121.248 120.563 120.91 119.905L110.706 108.834L110.177 109.701Z" fill="#263238"/>
<path d="M104.998 102.025L116.881 121.35L126.008 122.574L117.115 105.014L104.998 102.025Z" fill="#263238"/>
<path d="M126.027 122.882H125.984L116.862 121.652C116.818 121.645 116.775 121.629 116.737 121.605C116.698 121.581 116.666 121.548 116.641 121.51L104.758 102.185C104.725 102.134 104.708 102.074 104.709 102.013C104.711 101.952 104.731 101.892 104.767 101.843C104.803 101.794 104.853 101.756 104.911 101.736C104.969 101.716 105.031 101.714 105.09 101.73L117.207 104.719C117.25 104.729 117.29 104.749 117.324 104.776C117.358 104.804 117.385 104.839 117.404 104.879L126.298 122.433C126.326 122.481 126.341 122.537 126.341 122.593C126.341 122.649 126.326 122.704 126.298 122.753C126.266 122.795 126.225 122.829 126.178 122.851C126.131 122.874 126.079 122.884 126.027 122.882ZM117.09 121.037L125.486 122.168L116.924 105.254L105.674 102.48L117.09 121.037Z" fill="#263238"/>
<path d="M153.194 129.199C153.194 129.199 139.614 119.628 136.089 117.254C134.334 116.103 132.653 114.842 131.058 113.478C131.058 113.478 130.683 111.091 129.828 110.082C128.973 109.074 128.069 108.852 126.433 108.951C124.797 109.049 123.413 109.332 122.404 108.951C121.395 108.569 119.513 105.433 119.261 106.817C119.009 108.2 119.138 109.203 120.393 110.212C121.648 111.22 123.413 111.596 123.917 111.842C124.422 112.088 123.118 112.303 123.118 112.303C121.093 113.016 118.931 113.251 116.801 112.992C114.696 112.719 112.638 112.164 110.681 111.343C109.802 111.091 109.925 112.346 110.933 113.102C111.942 113.859 112.563 114.234 112.563 114.234C112.563 114.234 109.42 113.73 109.802 114.738C110.183 115.747 111.561 116.627 112.44 117.254C113.32 117.881 114.199 119.013 114.956 119.388C115.712 119.764 115.835 121.529 117.096 122.285C118.357 123.042 117.982 122.956 121.193 123.251C124.559 123.521 127.943 123.492 131.304 123.165L147.782 136.37L153.194 129.199Z" fill="white"/>
<path d="M147.788 136.678C147.718 136.677 147.651 136.653 147.597 136.61L131.218 123.485C127.878 123.796 124.518 123.819 121.174 123.552L120.559 123.497C118.209 123.288 118.16 123.282 117.225 122.71L116.955 122.55C116.284 122.075 115.771 121.408 115.485 120.637C115.367 120.266 115.155 119.931 114.87 119.665C114.34 119.344 113.858 118.951 113.437 118.497C113.082 118.142 112.706 117.809 112.311 117.5L112.01 117.291C111.081 116.639 109.931 115.833 109.549 114.831C109.502 114.726 109.485 114.61 109.5 114.496C109.515 114.381 109.562 114.274 109.635 114.185C109.925 113.828 110.7 113.767 111.407 113.791L110.792 113.336C110.035 112.77 109.642 111.879 109.906 111.35C109.988 111.193 110.126 111.073 110.293 111.015C110.46 110.957 110.643 110.964 110.804 111.036C110.884 111.036 111.032 111.116 111.247 111.196C113.046 111.944 114.94 112.441 116.875 112.672C118.949 112.912 121.05 112.685 123.025 112.008H123.093L123.351 111.958L123.185 111.903C122.125 111.594 121.124 111.108 120.227 110.464C118.843 109.351 118.726 108.182 118.997 106.774C119.004 106.645 119.049 106.521 119.125 106.417C119.202 106.314 119.307 106.234 119.427 106.189C119.901 106.06 120.387 106.558 121.211 107.456C121.588 107.937 122.041 108.352 122.552 108.686C123.514 108.913 124.514 108.936 125.486 108.754L126.445 108.668C128.216 108.533 129.176 108.859 130.092 109.898C130.923 110.845 131.323 112.844 131.409 113.342C132.974 114.67 134.617 115.902 136.329 117.033C139.817 119.401 153.305 128.891 153.44 128.983C153.508 129.034 153.554 129.109 153.569 129.193C153.575 129.233 153.572 129.273 153.562 129.313C153.551 129.352 153.533 129.388 153.508 129.42L148.101 136.592C148.077 136.625 148.046 136.653 148.01 136.673C147.974 136.694 147.934 136.706 147.892 136.709L147.788 136.678ZM131.31 122.857C131.38 122.856 131.448 122.88 131.501 122.925L147.732 135.934L152.757 129.266C150.857 127.932 139.128 119.684 135.917 117.506C134.149 116.348 132.456 115.078 130.849 113.705C130.801 113.657 130.768 113.594 130.757 113.527C130.757 113.527 130.382 111.214 129.57 110.286C128.758 109.357 128.02 109.142 126.433 109.258L125.479 109.344C124.249 109.461 123.142 109.566 122.275 109.24C121.667 108.886 121.132 108.418 120.7 107.862C120.368 107.457 119.986 107.095 119.563 106.786C119.561 106.812 119.561 106.839 119.563 106.866C119.329 108.164 119.421 109.037 120.584 109.972C121.426 110.571 122.364 111.023 123.358 111.307C123.594 111.38 123.826 111.469 124.053 111.571C124.144 111.603 124.221 111.664 124.273 111.746C124.324 111.827 124.346 111.924 124.335 112.02C124.335 112.149 124.274 112.426 123.204 112.598C121.151 113.316 118.961 113.556 116.801 113.299C114.812 113.058 112.865 112.549 111.013 111.786C110.823 111.712 110.693 111.657 110.626 111.639C110.558 111.62 110.46 111.608 110.447 111.639C110.374 111.792 110.515 112.389 111.149 112.869C112.126 113.601 112.748 113.982 112.754 113.982C112.816 114.018 112.863 114.075 112.886 114.143C112.91 114.21 112.909 114.284 112.883 114.351C112.861 114.418 112.815 114.475 112.754 114.511C112.693 114.547 112.621 114.56 112.551 114.548C111.419 114.37 110.232 114.394 110.091 114.597C110.41 115.452 111.518 116.233 112.336 116.799L112.637 117.014C113.058 117.337 113.457 117.689 113.83 118.066C114.208 118.475 114.639 118.833 115.11 119.13C115.543 119.43 115.868 119.861 116.038 120.36C116.282 121.016 116.709 121.588 117.268 122.009L117.545 122.175C118.357 122.673 118.357 122.673 120.62 122.876L121.236 122.931C124.582 123.195 127.945 123.166 131.286 122.845L131.31 122.857Z" fill="#263238"/>
<path d="M123.013 116.049H116.217C115.688 116.049 113.191 114.874 112.44 114.511C112.401 114.496 112.365 114.472 112.335 114.442C112.305 114.412 112.282 114.377 112.266 114.337C112.251 114.298 112.244 114.256 112.245 114.214C112.247 114.172 112.257 114.13 112.275 114.092C112.293 114.054 112.319 114.02 112.351 113.992C112.383 113.965 112.42 113.944 112.461 113.931C112.501 113.919 112.543 113.914 112.585 113.919C112.627 113.923 112.668 113.937 112.705 113.957C113.835 114.544 115.012 115.038 116.223 115.434H122.988C123.07 115.435 123.147 115.468 123.204 115.525C123.262 115.583 123.294 115.66 123.296 115.741C123.296 115.819 123.267 115.893 123.215 115.95C123.162 116.007 123.09 116.042 123.013 116.049Z" fill="#263238"/>
<path d="M120.577 118.927C119.785 118.943 118.992 118.912 118.203 118.835C117.724 118.755 114.427 118.14 113.898 117.771C113.252 117.521 112.575 117.358 111.887 117.285C111.847 117.279 111.808 117.265 111.774 117.244C111.739 117.223 111.709 117.196 111.685 117.163C111.661 117.131 111.643 117.094 111.634 117.054C111.624 117.015 111.622 116.974 111.628 116.934C111.642 116.854 111.686 116.783 111.751 116.734C111.817 116.686 111.898 116.665 111.979 116.676C112.757 116.762 113.519 116.959 114.242 117.26C115.575 117.691 116.941 118.014 118.326 118.226C119.175 118.367 122.22 118.294 122.25 118.294C122.332 118.294 122.41 118.326 122.468 118.384C122.526 118.441 122.558 118.52 122.558 118.601C122.558 118.683 122.526 118.761 122.468 118.819C122.41 118.876 122.332 118.909 122.25 118.909C122.177 118.909 121.432 118.927 120.577 118.927Z" fill="#263238"/>
<path d="M119.876 121.603C119.613 121.61 119.35 121.595 119.089 121.56C118.406 121.406 115.208 119.844 114.845 119.665C114.809 119.647 114.776 119.623 114.749 119.592C114.722 119.562 114.702 119.527 114.689 119.489C114.676 119.45 114.67 119.41 114.673 119.369C114.675 119.329 114.686 119.289 114.704 119.253C114.741 119.181 114.804 119.126 114.881 119.099C114.958 119.073 115.042 119.077 115.116 119.112C116.453 119.797 117.824 120.413 119.224 120.957C120.62 120.996 122.017 120.944 123.407 120.803C123.447 120.8 123.488 120.804 123.526 120.817C123.565 120.829 123.601 120.849 123.632 120.875C123.663 120.902 123.688 120.934 123.706 120.97C123.725 121.006 123.736 121.046 123.739 121.086C123.744 121.167 123.717 121.247 123.665 121.309C123.612 121.371 123.537 121.41 123.456 121.418C123.148 121.473 121.106 121.603 119.876 121.603Z" fill="#263238"/>
<path d="M156.214 79.9014C151.671 75.029 147.509 69.8143 143.765 64.3035C143.765 64.3035 142.381 84.047 145.395 92.4733C148.409 100.9 159.486 97.3938 163.38 95.2411C167.273 93.0884 168.663 91.4707 171.056 91.8459C165.621 88.5118 160.633 84.4979 156.214 79.9014Z" fill="#263238"/>
<path d="M153.655 98.1011C152.333 98.133 151.016 97.9246 149.768 97.4861C148.669 97.0735 147.677 96.4161 146.87 95.5635C146.062 94.711 145.459 93.6858 145.106 92.5656C142.105 84.1761 143.402 65.0785 143.458 64.2727C143.463 64.2097 143.488 64.1498 143.529 64.1014C143.57 64.0529 143.624 64.0183 143.686 64.0021C143.747 63.986 143.812 63.9891 143.871 64.0111C143.93 64.0331 143.982 64.073 144.017 64.1251C147.756 69.6159 151.907 74.8139 156.436 79.6739C160.835 84.2454 165.795 88.2421 171.197 91.5692C171.261 91.6044 171.31 91.6611 171.336 91.7293C171.362 91.7975 171.363 91.8726 171.338 91.9414C171.314 92.0101 171.266 92.0679 171.203 92.1045C171.14 92.1411 171.066 92.1541 170.994 92.1412C169.413 91.889 168.269 92.6086 166.375 93.7957C165.569 94.3062 164.653 94.8782 163.515 95.4994C160.473 97.1141 157.098 98.0045 153.655 98.1011ZM144.017 65.1953C143.796 69.1502 143.089 85.0987 145.684 92.3503C146.014 93.3814 146.572 94.3248 147.318 95.1097C148.064 95.8947 148.977 96.501 149.99 96.8833C154.209 98.4825 160.224 96.6004 163.238 94.952C164.364 94.337 165.268 93.765 166.061 93.2668C167.562 92.3196 168.669 91.6245 169.93 91.4892C164.856 88.2459 160.181 84.4187 155.999 80.086C151.646 75.4311 147.641 70.4623 144.017 65.2199V65.1953Z" fill="#263238"/>
<path d="M127.872 58.2759C123.481 53.0602 126.027 59.2785 126.027 59.2785C126.027 59.2785 134.435 67.305 142.972 67.8893C142.953 67.8709 132.276 63.4916 127.872 58.2759Z" fill="#263238"/>
<path d="M142.953 68.1784C134.404 67.6187 125.898 59.5676 125.812 59.5061C125.78 59.4755 125.757 59.4374 125.744 59.3954C125.19 58.0422 124.668 56.32 125.301 55.9633C125.726 55.7111 126.365 55.9633 128.143 58.0853C132.448 63.178 142.984 67.5449 143.089 67.588C143.156 67.6165 143.212 67.6678 143.246 67.7329C143.279 67.7981 143.289 67.873 143.273 67.9447C143.256 68.0151 143.214 68.0772 143.156 68.1199C143.097 68.1627 143.026 68.1834 142.953 68.1784ZM126.267 59.1001C126.882 59.7152 133.598 65.7858 140.831 67.2681C137.504 65.7243 130.923 62.3476 127.651 58.4728C126.273 56.8367 125.756 56.5538 125.609 56.5107C125.664 57.4075 125.887 58.2858 126.267 59.1001Z" fill="#263238"/>
<path d="M63.5258 0.401709L62.9941 0L62.4624 0.401709C62.4624 0.401709 35.2877 15.8677 23 21.7398C23 21.7398 28.9076 54.822 33.1255 69.7327C37.3435 84.6433 53.9319 92.6658 62.9941 97.9944C72.0681 92.6658 88.5974 84.667 92.8626 69.7327C97.1279 54.7984 103 21.7398 103 21.7398C90.7241 15.8677 63.5258 0.401709 63.5258 0.401709Z" fill="#5B88D9"/>
<path d="M60.2057 64.3332L42.1759 48.879C41.7632 48.526 41.424 48.0952 41.1778 47.6112C40.9316 47.1271 40.7831 46.5993 40.7409 46.0579C40.6556 44.9644 41.0081 43.8818 41.721 43.0483C42.4339 42.2148 43.4487 41.6986 44.5422 41.6133C45.6357 41.528 46.7182 41.8805 47.5518 42.5934L59.3669 52.7308L79.6179 29.7031C80.3418 28.879 81.3634 28.3762 82.458 28.3053C83.5525 28.2344 84.6305 28.6012 85.4546 29.325C86.2787 30.0489 86.7815 31.0705 86.8524 32.1651C86.9233 33.2597 86.5565 34.3376 85.8327 35.1617L60.2057 64.3332Z" fill="white"/>
</svg>
