<svg width="60" height="80" viewBox="0 0 60 80" fill="none" xmlns="http://www.w3.org/2000/svg">
<path fill-rule="evenodd" clip-rule="evenodd" d="M16.4531 63.3776L16.4557 63.3814C19.409 67.5885 22.8691 72.5178 26.9169 78.3859C28.4066 80.538 31.5933 80.5381 33.0831 78.3859C37.1322 72.516 40.5931 67.5856 43.5469 63.3776C57.155 43.9914 60 39.9385 60 30C60 13.4314 46.5686 0 30 0C13.4314 0 0 13.4314 0 30C0 39.9385 2.84495 43.9914 16.4531 63.3776ZM12 28.61C12 18.8842 19.8843 11 29.61 11C39.3358 11 47.22 18.8843 47.22 28.61C47.22 38.3357 39.3357 46.22 29.61 46.22C19.8843 46.22 12 38.3358 12 28.61ZM38.8487 19.3713C43.4961 24.0186 43.8193 31.1218 40.317 36.1034L22.1165 17.9031C27.1016 14.3984 34.2039 14.7266 38.8487 19.3713ZM20.3713 37.8487C15.7239 33.2014 15.4007 26.0982 18.903 21.1166L37.1035 39.3169C32.1185 42.8216 25.0161 42.4935 20.3713 37.8487Z" fill="#B12F29"/>
</svg>
