<svg width="212" height="73" viewBox="0 0 212 73" fill="none" xmlns="http://www.w3.org/2000/svg">
<path d="M134.106 58.0682L140.53 45.625L119.652 4.14773H107.606L134.106 58.0682Z" fill="#4E018F"/>
<path d="M134.106 58.0682L140.53 45.625L119.652 4.14773H107.606L134.106 58.0682Z" stroke="#4E018F"/>
<path d="M210.394 45.625H175.061V56.4091H210.394V45.625Z" fill="#4E018F"/>
<path d="M210.394 45.625H175.061V56.4091H210.394V45.625Z" stroke="#4E018F"/>
<path d="M210.394 25.7159H175.061V36.5H210.394V25.7159Z" fill="#F9423A" stroke="#F9423A"/>
<path d="M210.394 4.97727H175.061V15.7614H210.394V4.97727Z" fill="#FFC501" stroke="#FFC501"/>
<path d="M144.545 31.5227L159 4.14773H170.242L156.591 31.5227H144.545Z" fill="#5B88D9"/>
<path d="M144.545 31.5227L159 4.14773H170.242L156.591 31.5227H144.545Z" stroke="#5B88D9"/>
<path d="M76.2878 3.31818L49.7878 56.4091H62.6363L77.0909 28.2045L90.7424 56.4091H102.788L76.2878 3.31818Z" fill="#F9423A" stroke="#F9423A"/>
<path d="M1.60608 16.5909V4.97727H31.3182C40.2325 4.97727 45.9769 14.0211 45.7727 23.2273C45.5742 32.1852 39.9921 40.6477 31.3182 40.6477H12.8485V57.2386H1.60608V29.0341H28.9091C31.8003 29.0341 33.5391 26.2077 33.7273 23.2273C33.9314 19.9945 32.0451 16.5909 28.9091 16.5909H1.60608Z" fill="#FFC501" stroke="#FFC501"/>
<path d="M2.15356 69.6818V62.4422H5.01778C5.54706 62.4422 6.00104 62.5471 6.37974 62.7568C6.76073 62.9665 7.05388 63.2588 7.2592 63.6334C7.46452 64.0082 7.56718 64.4417 7.56718 64.9343C7.56718 65.4316 7.46224 65.8664 7.25234 66.2387C7.04474 66.611 6.74703 66.8999 6.35921 67.1048C5.97138 67.3098 5.50827 67.4123 4.96987 67.4123H3.19044V66.069H4.67558C4.93565 66.069 5.15353 66.0219 5.32918 65.9276C5.50485 65.8334 5.63716 65.7015 5.72613 65.5318C5.81739 65.3597 5.86302 65.1606 5.86302 64.9343C5.86302 64.708 5.81739 64.5113 5.72613 64.344C5.63716 64.1766 5.50485 64.047 5.32918 63.9551C5.15353 63.8632 4.93451 63.8173 4.67216 63.8173H3.79955V69.6818H2.15356ZM9.00855 69.6818V62.4422H11.8728C12.3998 62.4422 12.8538 62.5399 13.2347 62.7355C13.6157 62.9288 13.9089 63.2057 14.1142 63.5662C14.3195 63.9244 14.4222 64.3498 14.4222 64.8424C14.4222 65.3396 14.3172 65.7639 14.1073 66.1149C13.8975 66.4638 13.5986 66.7301 13.2108 66.914C12.8229 67.0955 12.361 67.186 11.8249 67.186H9.9941V65.8357H11.5306C11.7907 65.8357 12.0085 65.8004 12.1842 65.7297C12.3598 65.659 12.4922 65.5505 12.5811 65.4045C12.6724 65.256 12.718 65.0687 12.718 64.8424C12.718 64.6161 12.6724 64.4276 12.5811 64.2768C12.4922 64.1237 12.3587 64.0094 12.1807 63.9339C12.0051 63.8561 11.7872 63.8173 11.5271 63.8173H10.6545V69.6818H9.00855ZM12.9199 66.3766L14.6651 69.6818H12.8617L11.1542 66.3766H12.9199ZM22.5253 66.062C22.5253 66.8585 22.3782 67.5338 22.084 68.0876C21.7896 68.6389 21.3903 69.0597 20.8862 69.3495C20.382 69.637 19.8173 69.7809 19.1922 69.7809C18.5649 69.7809 17.9991 69.6359 17.495 69.346C16.9931 69.0562 16.5949 68.6343 16.3007 68.0805C16.0087 67.5267 15.8627 66.8539 15.8627 66.062C15.8627 65.2655 16.0087 64.5914 16.3007 64.0399C16.5949 63.4861 16.9931 63.0655 17.495 62.778C17.9991 62.4882 18.5649 62.3432 19.1922 62.3432C19.8173 62.3432 20.382 62.4882 20.8862 62.778C21.3903 63.0655 21.7896 63.4861 22.084 64.0399C22.3782 64.5914 22.5253 65.2655 22.5253 66.062ZM20.8452 66.062C20.8452 65.5812 20.7779 65.1759 20.6432 64.8459C20.511 64.5136 20.3216 64.2627 20.0753 64.093C19.8287 63.9233 19.5345 63.8385 19.1922 63.8385C18.8524 63.8385 18.5582 63.9233 18.3094 64.093C18.063 64.2627 17.8737 64.5136 17.7413 64.8459C17.609 65.1759 17.5428 65.5812 17.5428 66.062C17.5428 66.5428 17.609 66.9493 17.7413 67.2816C17.8737 67.6114 18.063 67.8613 18.3094 68.031C18.5582 68.2006 18.8524 68.2855 19.1922 68.2855C19.5345 68.2855 19.8287 68.2006 20.0753 68.031C20.3216 67.8613 20.511 67.6114 20.6432 67.2816C20.7779 66.9493 20.8452 66.5428 20.8452 66.062ZM28.7207 64.7999C28.682 64.6491 28.6227 64.5149 28.5427 64.3969C28.4652 64.2768 28.3694 64.1755 28.2554 64.093C28.1436 64.0082 28.0147 63.9445 27.8687 63.902C27.7249 63.8597 27.5653 63.8385 27.3896 63.8385C27.0473 63.8385 26.7497 63.9256 26.4965 64.1001C26.2454 64.272 26.0504 64.523 25.9112 64.853C25.7744 65.183 25.7059 65.5824 25.7059 66.0514C25.7059 66.5251 25.7721 66.9292 25.9045 67.2639C26.039 67.5962 26.2318 67.8495 26.4828 68.0239C26.7359 68.1983 27.0395 68.2855 27.393 68.2855C27.7101 68.2855 27.9793 68.2313 28.2006 68.1229C28.422 68.0144 28.5896 67.8601 28.7037 67.6597C28.8177 67.4571 28.8747 67.2202 28.8747 66.9493L29.1861 66.9881H27.4614V65.7403H30.4626V66.6911C30.4626 67.3345 30.3303 67.8872 30.0656 68.3491C29.8009 68.8086 29.4371 69.1622 28.974 69.4096C28.5109 69.6571 27.9804 69.7809 27.3827 69.7809C26.7166 69.7809 26.1314 69.6312 25.6272 69.3319C25.1231 69.0326 24.7295 68.6061 24.4466 68.0523C24.1661 67.496 24.0257 66.8361 24.0257 66.0726C24.0257 65.481 24.1102 64.9544 24.279 64.4925C24.45 64.0305 24.6874 63.6406 24.9908 63.3224C25.2964 63.0018 25.6512 62.7591 26.0549 62.5942C26.4589 62.4268 26.8935 62.3432 27.3587 62.3432C27.7625 62.3432 28.139 62.4032 28.488 62.5235C28.8371 62.6436 29.1461 62.8133 29.4155 63.0325C29.6846 63.2517 29.9035 63.5108 30.0725 63.8101C30.2413 64.1094 30.3473 64.4394 30.3907 64.7999H28.7207ZM32.0674 69.6818V62.4422H34.9315C35.4586 62.4422 35.9125 62.5399 36.2934 62.7355C36.6745 62.9288 36.9676 63.2057 37.1729 63.5662C37.3783 63.9244 37.4809 64.3498 37.4809 64.8424C37.4809 65.3396 37.3761 65.7639 37.1661 66.1149C36.9562 66.4638 36.6573 66.7301 36.2695 66.914C35.8818 67.0955 35.4197 67.186 34.8836 67.186H33.0529V65.8357H34.5894C34.8494 65.8357 35.0674 65.8004 35.2429 65.7297C35.4186 65.659 35.5509 65.5505 35.6399 65.4045C35.7311 65.256 35.7767 65.0687 35.7767 64.8424C35.7767 64.6161 35.7311 64.4276 35.6399 64.2768C35.5509 64.1237 35.4175 64.0094 35.2395 63.9339C35.0638 63.8561 34.846 63.8173 34.5859 63.8173H33.7133V69.6818H32.0674ZM35.9786 66.3766L37.7239 69.6818H35.9205L34.2129 66.3766H35.9786ZM39.007 69.6818V62.4422H43.8594V63.8279H40.6531V65.3655H43.6097V66.7548H40.6531V68.2961H43.8628V69.6818H39.007ZM49.3149 64.5949C49.2919 64.3286 49.187 64.1212 48.9999 63.9727C48.8152 63.8244 48.5539 63.7501 48.2163 63.7501C47.9928 63.7501 47.8057 63.7819 47.6552 63.8455C47.5045 63.9069 47.3905 63.9905 47.3129 64.0965C47.2376 64.2025 47.2 64.3239 47.2 64.4607C47.1955 64.5738 47.217 64.6738 47.2651 64.7611C47.3152 64.8459 47.386 64.9214 47.4772 64.9874C47.5707 65.051 47.6825 65.1064 47.8126 65.1535C47.9427 65.2006 48.0862 65.2419 48.2438 65.2773L48.8528 65.4221C49.1904 65.4999 49.4904 65.6024 49.7528 65.7297C50.0175 65.8546 50.2411 66.0066 50.4235 66.1858C50.606 66.3625 50.7452 66.5675 50.841 66.8008C50.9368 67.0341 50.9858 67.2969 50.9882 67.589C50.9858 68.044 50.874 68.4352 50.6529 68.7627C50.4338 69.0879 50.1179 69.3389 49.705 69.5157C49.2943 69.6901 48.798 69.7772 48.2163 69.7772C47.6346 69.7772 47.1269 69.6865 46.6936 69.5051C46.2624 69.3236 45.9271 69.0502 45.6874 68.6849C45.448 68.3174 45.3248 67.8567 45.3179 67.3028H46.8955C46.9092 67.5361 46.9707 67.7317 47.0802 67.8895C47.192 68.0474 47.3426 68.1664 47.532 68.2465C47.7236 68.3267 47.9449 68.3668 48.1958 68.3668C48.4285 68.3668 48.6281 68.3338 48.7947 68.2678C48.9612 68.2019 49.0889 68.11 49.1779 67.992C49.2691 67.8742 49.316 67.7387 49.3182 67.5856C49.316 67.4419 49.2738 67.3204 49.1915 67.2214C49.1095 67.1202 48.984 67.0329 48.8152 66.9599C48.6487 66.8867 48.4376 66.8197 48.1821 66.7583L47.443 66.5782C46.8407 66.432 46.365 66.1987 46.016 65.8782C45.6693 65.5576 45.4958 65.124 45.4958 64.5773C45.4958 64.1318 45.6123 63.7418 45.8448 63.4071C46.0798 63.0725 46.4026 62.8122 46.8133 62.626C47.2262 62.4374 47.6961 62.3432 48.2232 62.3432C48.7616 62.3432 49.2293 62.4374 49.6261 62.626C50.0254 62.8145 50.3346 63.0785 50.5536 63.4178C50.7748 63.7549 50.8879 64.1473 50.8923 64.5949H49.3149ZM56.245 64.5949C56.2222 64.3286 56.1173 64.1212 55.9302 63.9727C55.7455 63.8244 55.4842 63.7501 55.1466 63.7501C54.9231 63.7501 54.736 63.7819 54.5855 63.8455C54.4348 63.9069 54.3208 63.9905 54.2432 64.0965C54.1679 64.2025 54.1303 64.3239 54.1303 64.4607C54.1257 64.5738 54.1474 64.6738 54.1954 64.7611C54.2455 64.8459 54.3162 64.9214 54.4075 64.9874C54.501 65.051 54.6128 65.1064 54.7429 65.1535C54.8728 65.2006 55.0165 65.2419 55.1739 65.2773L55.7831 65.4221C56.1207 65.4999 56.4207 65.6024 56.6832 65.7297C56.9477 65.8546 57.1712 66.0066 57.3538 66.1858C57.5363 66.3625 57.6755 66.5675 57.7713 66.8008C57.8671 67.0341 57.9161 67.2969 57.9184 67.589C57.9161 68.044 57.8043 68.4352 57.583 68.7627C57.3641 69.0879 57.0481 69.3389 56.6351 69.5157C56.2245 69.6901 55.7284 69.7772 55.1466 69.7772C54.5649 69.7772 54.0573 69.6865 53.6238 69.5051C53.1927 69.3236 52.8574 69.0502 52.6177 68.6849C52.3783 68.3174 52.2551 67.8567 52.2482 67.3028H53.8257C53.8395 67.5361 53.901 67.7317 54.0105 67.8895C54.1223 68.0474 54.2729 68.1664 54.4621 68.2465C54.6539 68.3267 54.8752 68.3668 55.1261 68.3668C55.3588 68.3668 55.5584 68.3338 55.725 68.2678C55.8915 68.2019 56.0192 68.11 56.1082 67.992C56.1994 67.8742 56.2462 67.7387 56.2486 67.5856C56.2462 67.4419 56.2041 67.3204 56.1218 67.2214C56.0398 67.1202 55.9143 67.0329 55.7455 66.9599C55.579 66.8867 55.368 66.8197 55.1124 66.7583L54.3733 66.5782C53.7711 66.432 53.2953 66.1987 52.9463 65.8782C52.5994 65.5576 52.4261 65.124 52.4261 64.5773C52.4261 64.1318 52.5424 63.7418 52.7751 63.4071C53.0101 63.0725 53.3329 62.8122 53.7436 62.626C54.1565 62.4374 54.6264 62.3432 55.1534 62.3432C55.6919 62.3432 56.1596 62.4374 56.5564 62.626C56.9557 62.8145 57.2649 63.0785 57.4838 63.4178C57.7051 63.7549 57.818 64.1473 57.8227 64.5949H56.245ZM63.5174 69.6818H61.7482L64.1231 62.4422H66.3064L68.6812 69.6818H66.912L65.2422 64.2274H65.1874L63.5174 69.6818ZM63.3086 66.8327H67.1002V68.1335H63.3086V66.8327ZM76.0298 65.0475H74.3633C74.3405 64.8613 74.2915 64.6939 74.2162 64.5454C74.1431 64.3969 74.0463 64.2697 73.9253 64.1637C73.8067 64.0577 73.6664 63.9775 73.5044 63.9233C73.3447 63.8667 73.1668 63.8385 72.9705 63.8385C72.626 63.8385 72.3284 63.9256 72.0774 64.1001C71.8288 64.2745 71.6372 64.5278 71.5026 64.8602C71.3679 65.1923 71.3006 65.593 71.3006 66.062C71.3006 66.5498 71.3679 66.9599 71.5026 67.2922C71.6394 67.6221 71.8322 67.8708 72.0808 68.038C72.3318 68.2031 72.6249 68.2855 72.9603 68.2855C73.1496 68.2855 73.3231 68.2608 73.4805 68.2112C73.6401 68.1594 73.7794 68.0851 73.8979 67.9885C74.0188 67.8895 74.1192 67.7705 74.199 67.6315C74.2788 67.4902 74.3336 67.3299 74.3633 67.1507L76.0298 67.1613C75.9956 67.4842 75.9032 67.8012 75.7527 68.1123C75.6043 68.4234 75.4002 68.7049 75.1402 68.9571C74.88 69.2093 74.5652 69.4096 74.1956 69.558C73.8261 69.7065 73.404 69.7809 72.9294 69.7809C72.2976 69.7809 71.7318 69.637 71.2321 69.3495C70.7349 69.0597 70.3413 68.6377 70.0515 68.0839C69.7642 67.5278 69.6205 66.8539 69.6205 66.062C69.6205 65.2655 69.7664 64.5914 70.0584 64.0399C70.3504 63.4861 70.7463 63.0655 71.246 62.778C71.7478 62.4882 72.309 62.3432 72.9294 62.3432C73.3515 62.3432 73.7405 62.4032 74.0964 62.5235C74.4546 62.6436 74.7693 62.8192 75.0409 63.0501C75.3146 63.281 75.537 63.5639 75.7082 63.8986C75.8793 64.2332 75.9866 64.6161 76.0298 65.0475ZM77.5962 69.6818V62.4422H79.2421V65.3655H82.0584V62.4422H83.7043V69.6818H82.0584V66.7548H79.2421V69.6818H77.5962ZM87.0194 62.4422V69.6818H85.3734V62.4422H87.0194ZM88.69 69.6818V62.4422H93.5424V63.8279H90.3359V65.3655H93.2925V66.7548H90.3359V68.2961H93.5458V69.6818H88.69ZM96.7256 62.4422L98.3203 67.7871H98.3818L99.9765 62.4422H101.817L99.4426 69.6818H97.2595L94.8846 62.4422H96.7256ZM103.172 69.6818V62.4422H108.024V63.8279H104.818V65.3655H107.774V66.7548H104.818V68.2961H108.027V69.6818H103.172ZM113.893 62.4422L115.488 67.7871H115.55L117.144 62.4422H118.985L116.61 69.6818H114.427L112.052 62.4422H113.893ZM120.771 69.6818H119.001L121.376 62.4422H123.56L125.934 69.6818H124.165L122.495 64.2274H122.441L120.771 69.6818ZM120.562 66.8327H124.353V68.1335H120.562V66.8327ZM127.288 69.6818V62.4422H128.935V68.2961H131.871V69.6818H127.288ZM134.999 62.4422V69.6818H133.353V62.4422H134.999ZM139.236 69.6818H136.67V62.4422H139.24C139.951 62.4422 140.565 62.587 141.081 62.8769C141.596 63.1644 141.993 63.5792 142.271 64.1212C142.552 64.6609 142.692 65.3066 142.692 66.0585C142.692 66.8126 142.552 67.4606 142.271 68.0026C141.993 68.5447 141.595 68.9606 141.077 69.2506C140.562 69.5381 139.948 69.6818 139.236 69.6818ZM138.316 68.2289H139.171C139.575 68.2289 139.916 68.1583 140.194 68.0167C140.473 67.8731 140.684 67.6421 140.827 67.3239C140.971 67.0059 141.043 66.584 141.043 66.0585C141.043 65.5353 140.97 65.1158 140.824 64.7999C140.68 64.4819 140.468 64.2521 140.188 64.1106C139.907 63.9669 139.562 63.8951 139.154 63.8951H138.316V68.2289ZM145.311 69.6818H143.542L145.917 62.4422H148.1L150.475 69.6818H148.706L147.036 64.2274H146.981L145.311 69.6818ZM145.102 66.8327H148.894V68.1335H145.102V66.8327ZM150.727 63.8279V62.4422H156.613V63.8279H154.481V69.6818H152.856V63.8279H150.727ZM158.053 69.6818V62.4422H162.906V63.8279H159.699V65.3655H162.655V66.7548H159.699V68.2961H162.909V69.6818H158.053ZM167.255 69.6818V62.4422H172.109V63.8279H168.901V65.3655H171.858V66.7548H168.901V68.2961H172.112V69.6818H167.255ZM179.712 62.4422V69.6818H178.313L175.465 65.4186H175.417V69.6818H173.773V62.4422H175.195L178.013 66.6983H178.07V62.4422H179.712ZM185.998 64.7999C185.959 64.6491 185.9 64.5149 185.821 64.3969C185.742 64.2768 185.648 64.1755 185.534 64.093C185.421 64.0082 185.293 63.9445 185.147 63.902C185.002 63.8597 184.843 63.8385 184.668 63.8385C184.326 63.8385 184.027 63.9256 183.775 64.1001C183.523 64.272 183.329 64.523 183.189 64.853C183.052 65.183 182.983 65.5824 182.983 66.0514C182.983 66.5251 183.051 66.9292 183.182 67.2639C183.317 67.5962 183.51 67.8495 183.761 68.0239C184.014 68.1983 184.318 68.2855 184.671 68.2855C184.988 68.2855 185.257 68.2313 185.479 68.1229C185.699 68.0144 185.868 67.8601 185.982 67.6597C186.096 67.4571 186.152 67.2202 186.152 66.9493L186.464 66.9881H184.739V65.7403H187.74V66.6911C187.74 67.3345 187.609 67.8872 187.344 68.3491C187.079 68.8086 186.714 69.1622 186.252 69.4096C185.789 69.6571 185.259 69.7809 184.66 69.7809C183.995 69.7809 183.409 69.6312 182.905 69.3319C182.4 69.0326 182.007 68.6061 181.724 68.0523C181.445 67.496 181.303 66.8361 181.303 66.0726C181.303 65.481 181.388 64.9544 181.557 64.4925C181.727 64.0305 181.965 63.6406 182.269 63.3224C182.574 63.0018 182.929 62.7591 183.333 62.5942C183.737 62.4268 184.172 62.3432 184.636 62.3432C185.041 62.3432 185.416 62.4032 185.767 62.5235C186.115 62.6436 186.423 62.8133 186.693 63.0325C186.963 63.2517 187.182 63.5108 187.35 63.8101C187.519 64.1094 187.625 64.4394 187.668 64.7999H185.998ZM190.577 69.6818H188.807L191.182 62.4422H193.365L195.74 69.6818H193.97L192.302 64.2274H192.245L190.577 69.6818ZM190.368 66.8327H194.16V68.1335H190.368V66.8327ZM201.374 64.7999C201.336 64.6491 201.276 64.5149 201.196 64.3969C201.119 64.2768 201.023 64.1755 200.909 64.093C200.798 64.0082 200.668 63.9445 200.521 63.902C200.379 63.8597 200.22 63.8385 200.043 63.8385C199.701 63.8385 199.404 63.9256 199.15 64.1001C198.899 64.272 198.703 64.523 198.565 64.853C198.427 65.183 198.36 65.5824 198.36 66.0514C198.36 66.5251 198.426 66.9292 198.557 67.2639C198.692 67.5962 198.885 67.8495 199.137 68.0239C199.389 68.1983 199.693 68.2855 200.046 68.2855C200.364 68.2855 200.632 68.2313 200.854 68.1229C201.076 68.0144 201.243 67.8601 201.357 67.6597C201.471 67.4571 201.528 67.2202 201.528 66.9493L201.84 66.9881H200.115V65.7403H203.117V66.6911C203.117 67.3345 202.984 67.8872 202.719 68.3491C202.455 68.8086 202.091 69.1622 201.628 69.4096C201.164 69.6571 200.634 69.7809 200.036 69.7809C199.37 69.7809 198.785 69.6312 198.281 69.3319C197.777 69.0326 197.383 68.6061 197.101 68.0523C196.819 67.496 196.68 66.8361 196.68 66.0726C196.68 65.481 196.763 64.9544 196.932 64.4925C197.104 64.0305 197.341 63.6406 197.645 63.3224C197.95 63.0018 198.305 62.7591 198.708 62.5942C199.113 62.4268 199.547 62.3432 200.012 62.3432C200.415 62.3432 200.793 62.4032 201.141 62.5235C201.49 62.6436 201.8 62.8133 202.07 63.0325C202.338 63.2517 202.556 63.5108 202.727 63.8101C202.895 64.1094 203.001 64.4394 203.045 64.7999H201.374ZM204.721 69.6818V62.4422H209.573V63.8279H206.368V65.3655H209.323V66.7548H206.368V68.2961H209.576V69.6818H204.721Z" fill="#F9423A"/>
</svg>
