<svg width="33" height="33" viewBox="0 0 33 33" fill="none" xmlns="http://www.w3.org/2000/svg">
<path d="M0 13.6666C0 14.2189 0.447715 14.6666 1 14.6666H13.6666C14.2189 14.6666 14.6666 14.2189 14.6666 13.6666V0.999999C14.6666 0.447714 14.2189 0 13.6666 0H1C0.447716 0 0 0.447715 0 1V13.6666ZM3.66665 4.66665C3.66665 4.11437 4.11437 3.66665 4.66665 3.66665H9.99995C10.5522 3.66665 10.9999 4.11437 10.9999 4.66665V9.99996C10.9999 10.5522 10.5522 11 9.99995 11H4.66665C4.11437 11 3.66665 10.5522 3.66665 9.99996V4.66665Z" fill="#26395B"/>
<path d="M0 32C0 32.5523 0.447715 33 1 33H13.6666C14.2189 33 14.6666 32.5523 14.6666 32V19.3334C14.6666 18.7811 14.2189 18.3334 13.6666 18.3334H1C0.447716 18.3334 0 18.7811 0 19.3334V32ZM3.66665 23.0001C3.66665 22.4478 4.11437 22.0001 4.66665 22.0001H9.99995C10.5522 22.0001 10.9999 22.4478 10.9999 23.0001V28.3334C10.9999 28.8857 10.5522 29.3334 9.99995 29.3334H4.66665C4.11437 29.3334 3.66665 28.8857 3.66665 28.3334V23.0001Z" fill="#26395B"/>
<path d="M19.3337 0C18.7814 0 18.3337 0.447715 18.3337 1V13.6666C18.3337 14.2189 18.7814 14.6666 19.3337 14.6666H32.0003C32.5526 14.6666 33.0003 14.2189 33.0003 13.6666V0.999999C33.0003 0.447714 32.5526 0 32.0003 0H19.3337ZM29.3336 9.99996C29.3336 10.5522 28.8859 11 28.3336 11H23.0003C22.448 11 22.0003 10.5522 22.0003 9.99996V4.66665C22.0003 4.11437 22.448 3.66665 23.0003 3.66665H28.3336C28.8859 3.66665 29.3336 4.11437 29.3336 4.66665V9.99996Z" fill="#26395B"/>
<path d="M32.9988 29.3333H29.3322V33H32.9988V29.3333Z" fill="#26395B"/>
<path d="M22.0003 18.3334H18.3337V22.0001H22.0003V18.3334Z" fill="#26395B"/>
<path d="M25.6673 22.0001H22.0007V25.6668H25.6673V22.0001Z" fill="#26395B"/>
<path d="M22.0003 25.6668H18.3337V29.3334H22.0003V25.6668Z" fill="#26395B"/>
<path d="M25.6673 29.3333H22.0007V33H25.6673V29.3333Z" fill="#26395B"/>
<path d="M29.3331 25.6668H25.6664V29.3334H29.3331V25.6668Z" fill="#26395B"/>
<path d="M29.3331 18.3334H25.6664V22.0001H29.3331V18.3334Z" fill="#26395B"/>
<path d="M32.9988 22.0001H29.3322V25.6668H32.9988V22.0001Z" fill="#26395B"/>
</svg>
