<svg width="145" height="141" viewBox="0 0 145 141" fill="none" xmlns="http://www.w3.org/2000/svg">
<path d="M120.868 116.142H132.797V112.441H120.868V116.142Z" fill="#EBEBEB"/>
<path d="M30.2603 68.1073H42.1893V64.4057H30.2603V68.1073Z" fill="#EBEBEB"/>
<path d="M127.521 120.807C129.503 120.777 134.582 120.694 136.495 120.671H139.45L139.294 120.82V117.118L139.464 117.284C137.483 117.284 132.431 117.26 130.517 117.234L127.535 117.198L127.616 117.118L127.535 120.82L127.521 120.807ZM127.521 120.807L127.443 117.105V117.029H127.525C129.014 117.009 132.003 116.976 133.489 116.963L139.454 116.94H139.623V117.105V120.807V120.959H139.471H136.461C134.561 120.939 129.506 120.853 127.542 120.82L127.521 120.807Z" fill="#EBEBEB"/>
<path d="M86.1124 37.6078C88.0938 37.5781 93.1728 37.4954 95.0864 37.4722H98.0415L97.8854 37.6211V33.9194L98.0551 34.0848C96.0737 34.0848 91.0218 34.0617 89.1083 34.0352L86.126 33.9988L86.2074 33.9194L86.126 37.6211L86.1124 37.6078ZM86.1124 37.6078L86.031 33.9161V33.84H86.1124C87.6019 33.8202 90.5909 33.7871 92.077 33.7739L98.0415 33.7507H98.2111V33.9161L98.1942 37.6178V37.7699H98.0415H95.0321C93.1321 37.7501 88.0769 37.6641 86.1124 37.631V37.6078Z" fill="#EBEBEB"/>
<path d="M92.7656 42.2753C94.747 42.2456 99.826 42.1629 101.74 42.1397H104.695L104.542 42.2886L104.525 38.587L104.695 38.7524C102.713 38.7524 97.6614 38.7292 95.7478 38.7027L92.7656 38.6663L92.847 38.587L92.7656 42.2886V42.2753ZM92.7656 42.2753L92.6841 38.5737V38.4976H92.7656C94.255 38.4778 97.2441 38.4447 98.7301 38.4315L104.695 38.4083H104.864V38.5737V42.2753V42.4275H104.712H101.702C99.8022 42.4077 94.747 42.3217 92.7825 42.2886L92.7656 42.2753Z" fill="#EBEBEB"/>
<path d="M99.3916 37.6111H111.321V33.9095H99.3916V37.6111Z" fill="#EBEBEB"/>
<path d="M5.88302 120.81H17.8121V117.108H5.88302V120.81Z" fill="#EBEBEB"/>
<path d="M12.5362 6.50296L24.4652 6.50296V2.80134L12.5362 2.80134V6.50296Z" fill="#EBEBEB"/>
<path d="M5.88306 11.1672C7.86445 11.1341 12.9435 11.0514 14.857 11.0316H17.8121L17.6561 11.1804V7.47879L17.8257 7.64419C15.8443 7.64419 10.7924 7.62103 8.8789 7.59457L5.89663 7.55818L5.96449 7.45232L5.88306 11.1539V11.1672ZM5.88306 11.1672L5.80164 7.45232V7.37624H5.88306C7.3725 7.35639 10.3582 7.32331 11.8476 7.31008L17.8121 7.28693H17.9818V7.45232V11.1539V11.3061H17.8291H14.8197C12.9197 11.283 7.86106 11.2003 5.90003 11.1672H5.88306Z" fill="#EBEBEB"/>
<path d="M120.868 6.49965C122.849 6.46657 127.928 6.38718 129.842 6.36402H132.797L132.641 6.51288V2.81126L132.811 2.97666C130.829 2.97666 125.777 2.9535 123.864 2.92704L120.882 2.89065L120.963 2.81126L120.882 6.51288L120.868 6.49965ZM120.868 6.49965L120.787 2.79803V2.72194H120.868C122.357 2.7021 125.347 2.66902 126.833 2.65579L132.797 2.63263H132.967V2.79803L132.95 6.49965V6.65182H132.797H129.788C127.888 6.62866 122.832 6.54596 120.868 6.51288V6.49965Z" fill="#EBEBEB"/>
<path d="M119.433 46.5625L118.344 52.0603C118.251 52.612 118.044 53.1394 117.736 53.6106C117.427 54.0817 117.023 54.4867 116.549 54.8008C116.075 55.1149 115.54 55.3316 114.977 55.4377C114.414 55.5438 113.835 55.5371 113.275 55.4179C112.715 55.3122 112.183 55.0998 111.707 54.7931C111.232 54.4864 110.823 54.0913 110.505 53.6304C110.186 53.1696 109.964 52.652 109.851 52.1073C109.737 51.5625 109.735 51.0014 109.845 50.456L111.585 41.6601C111.602 41.5774 111.691 41.5939 111.707 41.5079C111.636 41.4087 111.636 41.4087 111.653 41.3227C111.9 40.2394 112.563 39.2893 113.505 38.6674C114.448 38.0455 115.599 37.7989 116.722 37.9783C122.184 39.0038 127.447 35.6098 128.485 30.37C129.537 25.0441 125.933 20.0689 120.468 19.0402C118.784 18.7181 117.044 18.8337 115.421 19.3755C113.798 19.9173 112.35 20.8661 111.222 22.1265C110.846 22.5547 110.386 22.9055 109.869 23.1585C109.352 23.4114 108.789 23.5616 108.212 23.6001C107.635 23.6385 107.056 23.5646 106.508 23.3826C105.961 23.2006 105.456 22.9142 105.024 22.54C104.598 22.1724 104.251 21.7261 104.003 21.2269C103.755 20.7277 103.611 20.1856 103.58 19.6318C103.548 19.0781 103.63 18.5237 103.819 18.0009C104.009 17.478 104.303 16.997 104.684 16.5856C106.703 14.3233 109.266 12.5853 112.143 11.5279C115.021 10.4704 118.123 10.1267 121.171 10.5274C124.218 10.9282 127.116 12.0609 129.604 13.8239C132.091 15.5868 134.09 17.9248 135.422 20.6275C136.753 23.3303 137.375 26.3133 137.231 29.3084C137.088 32.3035 136.183 35.2169 134.599 37.7867C133.015 40.3565 130.8 42.5023 128.155 44.0312C125.509 45.5601 122.516 46.4243 119.443 46.546L119.433 46.5625ZM115.769 65.0871L115.467 66.6088C115.372 67.1593 115.164 67.6853 114.855 68.1549C114.546 68.6245 114.142 69.0279 113.668 69.3407C113.194 69.6535 112.659 69.8691 112.097 69.9743C111.535 70.0796 110.957 70.0724 110.398 69.9532C109.272 69.7394 108.279 69.0991 107.637 68.1727C106.994 67.2463 106.755 66.1093 106.971 65.0111L107.27 63.4894C107.507 62.4008 108.167 61.4442 109.112 60.8205C110.058 60.1968 111.214 59.9547 112.339 60.145C112.898 60.2455 113.431 60.4537 113.907 60.7574C114.382 61.0611 114.791 61.4542 115.109 61.9137C115.427 62.3732 115.648 62.8899 115.759 63.4337C115.87 63.9775 115.869 64.5373 115.755 65.0805L115.769 65.0871Z" fill="#EBEBEB"/>
<path d="M18.2767 65.7521L16.9196 60.3104C16.7716 59.7716 16.7372 59.209 16.8187 58.6569C16.9002 58.1047 17.0958 57.5744 17.3937 57.0981C17.6915 56.6219 18.0855 56.2095 18.5516 55.886C19.0177 55.5625 19.5463 55.3346 20.1054 55.2162C21.2202 54.9539 22.3962 55.1332 23.3756 55.7148C24.355 56.2965 25.0579 57.2329 25.3303 58.319L27.5017 67.0223C27.5221 67.105 27.4339 67.1249 27.4542 67.2109C27.5628 67.2704 27.5628 67.2704 27.5832 67.3564C27.8212 68.4412 27.6244 69.5737 27.0333 70.5216C26.4422 71.4695 25.5015 72.1609 24.4041 72.454C23.1257 72.7419 21.9182 73.273 20.8507 74.0169C19.7832 74.7607 18.8768 75.7026 18.1833 76.7887C17.4899 77.8747 17.0232 79.0835 16.8098 80.3457C16.5964 81.6079 16.6407 82.8988 16.94 84.1444C18.2564 89.414 23.6543 92.4772 29.0658 91.197C30.7345 90.8081 32.2685 89.9973 33.5134 88.8463C34.7583 87.6952 35.67 86.2446 36.1567 84.6406C36.3162 84.0987 36.5847 83.5932 36.9467 83.1536C37.3087 82.7141 37.7568 82.3492 38.265 82.0804C38.7732 81.8115 39.3313 81.6441 39.9066 81.5878C40.4819 81.5316 41.0629 81.5876 41.6157 81.7527C42.1585 81.9135 42.6633 82.1775 43.101 82.5294C43.5386 82.8814 43.9005 83.3143 44.1658 83.8032C44.431 84.2922 44.5944 84.8275 44.6464 85.3783C44.6985 85.929 44.6382 86.4844 44.4691 87.0124C43.5989 89.8882 42.0094 92.5082 39.8437 94.6368C37.6779 96.7655 35.0036 98.3362 32.0611 99.2077C29.1186 100.079 26.0001 100.224 22.9859 99.6299C19.9717 99.0354 17.1562 97.7201 14.7923 95.8022C12.4285 93.8842 10.5905 91.4237 9.44343 88.6417C8.29635 85.8597 7.87617 82.8434 8.22064 79.8639C8.56512 76.8844 9.66345 74.035 11.4169 71.5718C13.1704 69.1086 15.5241 67.1088 18.2666 65.7521H18.2767ZM13.71 47.4259L13.3334 45.9208C13.1849 45.3817 13.1501 44.8188 13.2314 44.2663C13.3126 43.7137 13.5081 43.183 13.806 42.7064C14.1039 42.2297 14.498 41.817 14.9644 41.4933C15.4308 41.1696 15.9598 40.9416 16.5193 40.8232C17.6345 40.561 18.8109 40.7408 19.7904 41.3231C20.7698 41.9054 21.4725 42.8427 21.7442 43.9294L22.1208 45.4345C22.3689 46.5201 22.1761 47.6572 21.5827 48.607C20.9893 49.5569 20.0415 50.2457 18.9383 50.5288C18.3858 50.6665 17.8107 50.6951 17.2467 50.613C16.6827 50.5309 16.1413 50.3396 15.6542 50.0506C15.1671 49.7615 14.7441 49.3804 14.4103 48.9296C14.0764 48.4789 13.8383 47.9676 13.71 47.4259Z" fill="#EBEBEB"/>
<path d="M98.2517 140.641H61.294C60.9887 139.48 60.6935 138.326 60.3983 137.217C60.059 135.924 59.7197 134.664 59.411 133.436C59.3431 133.162 59.2651 132.887 59.1973 132.619C58.953 131.676 58.7144 130.759 58.4814 129.87C58.3389 129.325 58.1998 128.792 58.0641 128.263C57.9284 127.734 57.7825 127.194 57.6468 126.678C57.6094 126.539 57.5755 126.404 57.5382 126.271C57.5009 126.139 57.4635 125.974 57.4262 125.828C57.3889 125.683 57.3312 125.471 57.2871 125.296C57.2328 125.11 57.1887 124.925 57.1412 124.743C57.0462 124.396 56.958 124.055 56.8732 123.721C56.7409 123.228 56.6153 122.745 56.4932 122.272C56.4423 122.067 56.3846 121.862 56.3337 121.66C56.2455 121.329 56.1607 120.999 56.0827 120.697C56.025 120.489 55.9741 120.284 55.9232 120.082C55.7027 119.255 55.5025 118.478 55.3125 117.767C55.2616 117.575 55.2141 117.386 55.1632 117.204C55.0852 116.873 55.0038 116.589 54.9291 116.295C54.8782 116.113 54.8307 115.934 54.79 115.762C54.6238 115.14 54.4745 114.574 54.349 114.075C54.3116 113.943 54.2777 113.817 54.2472 113.691C54.1624 113.36 54.0809 113.073 54.0165 112.811C53.9893 112.705 53.9656 112.606 53.9384 112.514C53.9113 112.421 53.8841 112.315 53.8604 112.226C53.8367 112.136 53.8299 112.1 53.8163 112.044C53.8027 111.988 53.7688 111.872 53.7484 111.799C53.7426 111.762 53.7335 111.725 53.7213 111.69C53.6636 111.475 53.6365 111.359 53.6365 111.359H89.6001C89.6001 111.359 90.7841 115.329 92.6807 121.759C93.0641 123.066 93.4814 124.475 93.9259 125.974C95.1982 130.238 96.6673 135.236 98.2517 140.641Z" fill="#37474F"/>
<path d="M67.3469 140.641H66.4241C65.067 135.128 63.7415 129.598 62.4478 124.052C62.1379 122.704 61.8314 121.356 61.5283 120.006C61.5012 119.877 61.474 119.755 61.4435 119.626C61.4435 119.613 61.4478 119.601 61.4557 119.591C61.4636 119.581 61.4747 119.574 61.4872 119.571C61.4996 119.568 61.5128 119.569 61.5246 119.574C61.5363 119.579 61.546 119.588 61.5521 119.599C61.5521 119.642 61.5758 119.682 61.5894 119.722C62.0067 121.171 62.424 122.623 62.8311 124.075C64.3918 129.583 65.8813 135.107 67.3469 140.641Z" fill="#263238"/>
<path d="M88.4431 111.346L86.8553 119.093L85.5593 125.448L83.3472 136.281L83.1164 137.39L82.7365 139.239L82.4515 140.641H61.2906C60.9898 139.477 60.6923 138.336 60.3983 137.218C60.059 135.924 59.7197 134.664 59.411 133.436C59.3431 133.162 59.2651 132.887 59.1973 132.619C58.953 131.676 58.7144 130.759 58.4814 129.871C58.3389 129.325 58.1998 128.792 58.0641 128.263C57.9284 127.734 57.7825 127.194 57.6468 126.678C57.6094 126.539 57.5755 126.404 57.5382 126.271C57.5009 126.139 57.4635 125.974 57.4262 125.828C57.3889 125.683 57.3312 125.471 57.2871 125.296C57.2328 125.11 57.1887 124.925 57.1412 124.743C57.0462 124.396 56.958 124.055 56.8732 123.721C56.7409 123.228 56.6153 122.745 56.4932 122.272C56.4389 122.064 56.3846 121.862 56.3337 121.66C56.2455 121.329 56.1607 120.999 56.0827 120.697C56.025 120.489 55.9741 120.284 55.9232 120.082C55.7027 119.255 55.5025 118.478 55.3125 117.767C55.2616 117.575 55.2141 117.386 55.1632 117.204C55.0852 116.873 55.0038 116.589 54.9291 116.295C54.8782 116.113 54.8307 115.934 54.79 115.762C54.6238 115.14 54.4745 114.574 54.349 114.075C54.3116 113.943 54.2777 113.817 54.2472 113.691C54.1624 113.36 54.0809 113.073 54.0165 112.811C53.9893 112.705 53.9656 112.606 53.9384 112.514C53.9113 112.421 53.8841 112.315 53.8604 112.226C53.8367 112.136 53.8299 112.1 53.8163 112.044C53.8027 111.988 53.7688 111.872 53.7484 111.799C53.7426 111.762 53.7335 111.725 53.7213 111.69C53.6636 111.475 53.6365 111.359 53.6365 111.359L88.4431 111.346Z" fill="#263238"/>
<path d="M88.4501 111.323V111.339C88.4501 111.528 88.2974 113.622 87.9513 116.814C87.8529 117.743 87.7376 118.766 87.612 119.864C87.4017 121.594 87.1371 123.503 86.8147 125.521C86.2617 129.04 85.5424 132.881 84.6026 136.635C84.2634 137.985 83.9241 139.325 83.517 140.635L37.0832 140.651C37.0832 140.651 35.7261 138.157 35.8448 136.837C36.2689 131.544 39.4446 111.339 39.4446 111.339L81.5559 111.323H88.4501Z" fill="#37474F"/>
<path d="M84.2023 115.491C84.1514 117.112 84.0802 118.729 83.9716 120.34C83.8597 122.09 83.6968 123.833 83.4627 125.577C83.4581 125.641 83.4502 125.705 83.439 125.769C83.2184 127.403 82.9707 129.034 82.6858 130.658C82.4177 132.176 82.2209 133.81 81.5322 135.213C81.2718 135.755 80.9027 136.241 80.4465 136.642C80.0273 137.014 79.5147 137.272 78.9605 137.39C78.8702 137.412 78.7783 137.427 78.6856 137.436H78.6076C78.6239 137.446 78.6372 137.46 78.6461 137.477C78.655 137.494 78.6593 137.513 78.6585 137.532C78.6382 138.078 78.6585 138.63 78.5906 139.166C78.5906 139.189 78.5906 139.212 78.5906 139.235C78.533 139.705 78.4448 140.172 78.3565 140.638H77.5592C77.5592 140.638 77.5592 140.618 77.5592 140.611C77.6984 140.099 77.8171 139.583 77.946 139.067C78.0749 138.551 78.2649 138.025 78.3905 137.492C78.4013 137.476 78.4166 137.463 78.4346 137.456C77.9291 137.48 77.4282 137.352 76.9994 137.09C76.5705 136.828 76.2342 136.444 76.0359 135.99C75.7678 135.296 75.89 134.574 75.9986 133.86C76.1444 132.934 76.2836 132.007 76.4294 131.081C76.7009 129.378 77.0503 127.691 77.3591 125.997L77.5016 125.226C78.1224 121.779 78.7739 118.332 79.5576 114.915C79.5847 114.773 79.6187 114.634 79.6492 114.492C79.6565 114.474 79.6698 114.459 79.6868 114.449C79.7039 114.44 79.7238 114.436 79.7433 114.439C79.7629 114.441 79.7809 114.45 79.7946 114.464C79.8083 114.478 79.8168 114.496 79.8188 114.515C79.7951 114.743 79.7713 114.975 79.7442 115.203C79.6085 116.513 79.4479 117.82 79.2624 119.123C79.0385 120.651 78.8824 122.189 78.6619 123.721C78.5873 124.24 78.5126 124.76 78.4346 125.282C78.0716 127.796 77.6983 130.314 77.2573 132.821C77.0503 133.986 76.3073 136.07 78.0241 136.434C78.4184 136.516 78.8299 136.466 79.1912 136.291C79.9546 135.921 80.511 135.071 80.7892 134.323C81.2743 133 81.4474 131.518 81.7018 130.132C81.9846 128.588 82.2345 127.052 82.4516 125.524C82.7332 123.602 83.0216 121.687 83.3304 119.768C83.4864 118.789 83.6448 117.812 83.8054 116.837L84.0293 115.481C84.0327 115.368 84.2023 115.395 84.2023 115.491Z" fill="#263238"/>
<path d="M47.2582 127.532C49.1931 127.512 51.118 127.257 52.9886 126.774C53.8504 126.559 54.702 126.288 55.5502 126.02C56.388 125.792 57.1726 125.408 57.8607 124.889C59.1635 123.794 59.7708 122.067 60.334 120.539C60.955 118.809 61.4571 117.041 61.837 115.246C61.8574 115.157 61.9897 115.186 61.9897 115.269C62.0374 117.295 61.7755 119.316 61.2127 121.266C60.7445 122.92 60.1169 124.77 58.7462 125.931C57.3008 127.151 55.3534 127.585 53.4941 127.8C51.4194 128.035 49.3222 128.007 47.2548 127.717C47.237 127.708 47.222 127.695 47.2117 127.678C47.2014 127.662 47.1961 127.643 47.1964 127.623C47.1968 127.604 47.2028 127.585 47.2137 127.569C47.2246 127.553 47.2401 127.54 47.2582 127.532Z" fill="#263238"/>
<path d="M44.0415 115.309C43.9363 117.843 41.3272 132.563 41.066 137.575C41.0219 138.471 42.8845 139.745 42.837 140.641H41.9651C42.0261 139.765 40.1737 138.511 40.2314 137.634C40.5706 132.59 43.6242 117.833 43.8175 115.302C43.8184 115.273 43.8311 115.246 43.8527 115.226C43.8744 115.206 43.9032 115.195 43.9329 115.196C43.9626 115.197 43.9907 115.21 44.0111 115.231C44.0314 115.252 44.0424 115.28 44.0415 115.309Z" fill="#263238"/>
<path d="M80.6872 55.3783C88.6365 61.3029 116.552 83.1652 117.245 93.5291C117.811 101.945 109.041 103.923 103.538 99.9565C96.0735 94.5678 81.9833 76.6485 76.3003 63.6416C73.162 56.4534 72.8736 49.5529 80.6872 55.3783Z" fill="#F7A9A0"/>
<path d="M85.176 82.1629L107.175 72.4805C107.175 72.4805 86.2752 56.5228 78.767 53.5225C70.3223 50.145 70.3969 55.0938 73.6778 62.927C76.9586 70.7603 85.176 82.1629 85.176 82.1629Z" fill="#FFC501"/>
<path d="M107.175 72.4805L85.1723 82.1629C85.1723 82.1629 76.9584 70.7603 73.6843 62.927C70.4103 55.0938 70.3289 50.145 78.7735 53.5225C79.1976 53.6945 79.6692 53.9062 80.1815 54.1543L80.8058 54.4851C83.6184 55.9373 87.3743 58.3455 91.1708 60.9257L91.3778 61.068C94.3702 63.1123 97.383 65.2592 99.9615 67.1315L101.044 67.9254C104.654 70.5552 107.175 72.4805 107.175 72.4805Z" fill="#FFC501"/>
<path d="M107.175 72.4805L85.1723 82.1629C85.1723 82.1629 76.9584 70.7603 73.6843 62.927C70.4103 55.0938 70.3289 50.145 78.7735 53.5225C79.1976 53.6945 79.6692 53.9062 80.1815 54.1543L80.8058 54.4851C83.6184 55.9373 87.3743 58.3455 91.1708 60.9257L91.3778 61.068C94.3702 63.1123 97.383 65.2592 99.9615 67.1315L101.044 67.9254C104.654 70.5552 107.175 72.4805 107.175 72.4805Z" fill="#FFC501"/>
<path d="M103.025 69.3709C102.788 69.3134 102.548 69.2681 102.306 69.2353C102.94 69.7605 103.648 70.1928 104.41 70.5188L104.783 70.6743L103.025 69.3709ZM73.2265 52.6227C72.9787 52.7025 72.7485 52.827 72.548 52.9899C72.6871 53.0626 72.8262 53.1288 72.9687 53.195C73.721 53.5438 74.5209 53.7855 75.3436 53.9128C74.7042 53.3871 73.9914 52.9527 73.2265 52.6227ZM88.3516 73.8698C88.071 73.1069 87.6815 72.3864 87.1947 71.7295C87.3483 73.3477 87.9331 74.8986 88.8911 76.2284C88.8289 75.4209 88.6472 74.6265 88.3516 73.8698ZM81.9324 61.8354C81.1492 62.1058 80.4099 62.4846 79.7373 62.9601C80.5659 62.8936 81.3805 62.7121 82.1564 62.4209C82.94 62.15 83.6794 61.77 84.3515 61.2929C83.5227 61.3601 82.7081 61.5428 81.9324 61.8354Z" fill="white"/>
<path d="M102.316 70.0326C101.502 70.2542 94.5978 73.1652 93.1118 73.8301C91.6257 74.495 85.5221 77.1381 84.0428 77.9684C84.0284 77.9741 84.0169 77.9851 84.0109 77.9991C84.0049 78.0131 84.0047 78.0288 84.0106 78.0428C84.0164 78.0569 84.0278 78.0681 84.0421 78.074C84.0564 78.0798 84.0725 78.0799 84.0869 78.0742C85.6883 77.5516 91.853 74.8854 93.3798 74.2403C94.9065 73.5952 101.675 70.5618 102.374 70.1285C102.432 70.0921 102.374 70.0193 102.316 70.0326Z" fill="#263238"/>
<path opacity="0.1" d="M91.1271 79.543L85.1727 82.1629C85.1727 82.1629 76.9588 70.7603 73.6847 62.9271C71.2657 57.148 70.5905 52.937 73.7933 52.4838L91.1271 79.543Z" fill="black"/>
<path d="M90.5807 113.767L38.8542 115.09C38.8542 115.09 36.3062 112.52 36.693 109.49C38.1213 98.2992 56.3712 59.0765 63.4689 54.3627C66.6479 52.2522 73.4573 50.6015 77.2436 53.3703C83.1267 57.6707 88.9691 88.3984 92.3042 105.742C93.2576 110.707 90.6146 113.718 90.5807 113.767Z" fill="#EBEBEB"/>
<path d="M63.7812 56.89C65.5794 59.7712 68.0527 62.2423 70.8654 63.7904C72.2869 64.5744 73.8205 65.1599 75.3778 65.1566C76.1985 65.2023 77.0115 64.98 77.6883 64.5248C78.3196 63.9844 78.7945 63.2921 79.0657 62.5169C79.4112 61.6168 79.6237 60.6734 79.6968 59.715C79.7936 58.6216 79.8174 57.5233 79.768 56.4269C79.768 56.3839 79.8257 56.3905 79.8257 56.4269C79.8766 57.4689 80.0021 58.5076 79.9784 59.5496C79.9739 60.4624 79.8542 61.3712 79.6222 62.2555C79.4054 63.0779 79.0135 63.8466 78.472 64.5116C77.914 65.15 77.1282 65.5579 76.2735 65.6528C74.6449 65.8877 72.9553 65.4246 71.415 64.6604C69.8823 63.8816 68.4816 62.8775 67.2622 61.6833C65.8287 60.2843 64.6258 58.6774 63.6964 56.9198C63.6625 56.8735 63.7439 56.8338 63.7812 56.89Z" fill="#263238"/>
<path d="M64.9311 52.4408C64.9311 52.4408 67.1025 70.6942 67.3468 79.1659C67.5911 87.6376 64.9311 135.663 64.9311 135.663C64.9311 135.663 43.7567 131.736 41.1137 131.055C38.4707 130.373 31.295 123.599 31.295 123.599C31.295 123.599 47.8722 65.2492 64.9311 52.4408Z" fill="#FFC501"/>
<path d="M62.7358 59.8176C62.3792 60.5513 62.1324 61.3311 62.003 62.1332C63.0621 60.8772 63.7694 59.3751 64.0556 57.7733C63.5189 58.3905 63.0745 59.0788 62.7358 59.8176ZM52.8968 89.7614C52.5388 90.4948 52.2909 91.2747 52.1605 92.0769C52.6994 91.4588 53.1439 90.768 53.4803 90.026C53.8355 89.2917 54.0822 88.5121 54.2132 87.7104C53.675 88.3298 53.2296 89.0203 52.89 89.7614H52.8968ZM45.8058 121.73C45.4481 122.463 45.2001 123.243 45.0696 124.045C45.6099 123.428 46.0546 122.737 46.3894 121.994C46.746 121.261 46.9928 120.481 47.1222 119.679C46.5836 120.298 46.138 120.988 45.799 121.73H45.8058ZM64.7885 119.546C64.4321 120.28 64.1854 121.06 64.0556 121.862C64.5931 121.243 65.0364 120.553 65.372 119.811C65.5489 119.431 65.7041 119.043 65.8369 118.647C65.8369 118.359 65.864 118.068 65.881 117.773C65.4475 118.322 65.0788 118.917 64.7817 119.546H64.7885ZM46.1044 102.265C45.3525 101.916 44.5525 101.675 43.7294 101.551C45.0189 102.58 46.5613 103.264 48.2045 103.536C47.567 103.018 46.8577 102.59 46.0976 102.265H46.1044ZM54.5151 73.8699C54.2345 73.107 53.845 72.3865 53.3582 71.7296C53.4275 72.5376 53.6148 73.3318 53.9146 74.0882C54.1925 74.8522 54.5821 75.5731 55.0715 76.2284C55.0001 75.4201 54.8104 74.6259 54.5083 73.8699H54.5151ZM64.6935 100.191C64.4129 99.4285 64.0234 98.708 63.5365 98.0511C63.6045 98.8573 63.7884 99.6502 64.0828 100.406C64.3607 101.17 64.7503 101.891 65.2397 102.547C65.1712 101.74 64.985 100.947 64.6867 100.191H64.6935ZM38.9083 129.02C38.9296 129.345 38.9761 129.668 39.0474 129.986C39.2917 130.145 39.5224 130.291 39.7463 130.423C39.5189 129.926 39.2355 129.456 38.9015 129.02H38.9083ZM35.9328 112.398C35.7441 111.902 35.5173 111.421 35.2542 110.959C35.1796 111.194 35.1016 111.429 35.0269 111.657C35.1151 111.988 35.2203 112.299 35.3357 112.616C35.6163 113.379 36.0058 114.099 36.4926 114.756C36.4221 113.948 36.2312 113.153 35.926 112.398H35.9328ZM55.5431 130.145C54.7607 130.419 54.0217 130.798 53.348 131.273C54.1767 131.206 54.9913 131.023 55.7671 130.731C56.5507 130.46 57.29 130.08 57.9622 129.603C57.1311 129.669 56.3141 129.852 55.5363 130.145H55.5431ZM54.9596 111.62C54.1756 111.891 53.4362 112.271 52.7644 112.748C53.5918 112.679 54.4051 112.497 55.1801 112.206C55.9651 111.936 56.7057 111.556 57.3786 111.078C56.5469 111.149 55.7299 111.336 54.9528 111.634L54.9596 111.62ZM65.2296 81.0812C64.4471 81.3548 63.7082 81.7346 63.0344 82.2092C63.8628 82.1415 64.6772 81.96 65.4535 81.67C66.1269 81.4316 66.7701 81.1186 67.3704 80.7372V80.5652C66.635 80.6554 65.9138 80.8332 65.2228 81.0945L65.2296 81.0812Z" fill="white"/>
<path d="M77.2435 53.3637C79.7677 56.4269 83.5269 74.3164 83.7848 76.1424C84.0426 77.9684 91.6662 133.526 91.6662 133.526C91.6662 133.526 96.3279 129.01 96.6876 127.532C97.0472 126.053 92.1344 99.2883 89.8613 89.328C87.2963 78.0809 83.3234 61.7163 80.6397 57.8394C78.7736 55.1202 77.2435 53.3637 77.2435 53.3637Z" fill="#FFC501"/>
<path d="M82.4382 61.6667C82.2685 61.7229 82.0989 61.7758 81.9326 61.8354C81.4846 61.9975 81.0482 62.1886 80.6264 62.4077L80.7384 62.8245C81.2197 62.7207 81.6935 62.5858 82.1566 62.4209L82.6451 62.229L82.4382 61.6667ZM88.7929 111.634L88.6605 111.683C88.6911 111.892 88.7216 112.1 88.7487 112.308L89.0168 112.219C89.8007 111.949 90.5402 111.569 91.2119 111.091C90.3832 111.159 89.5686 111.341 88.7929 111.634ZM91.1271 129.679C91.1271 129.794 91.161 129.904 91.1746 130.009C91.3911 129.885 91.5996 129.748 91.7989 129.599C91.5736 129.614 91.3494 129.64 91.1271 129.679ZM86.7165 89.7613C86.3597 90.4949 86.1129 91.2748 85.9836 92.0769C87.0375 90.8184 87.7388 89.3151 88.0193 87.7137C87.4937 88.3343 87.0598 89.0235 86.73 89.7613H86.7165Z" fill="white"/>
<path d="M53.4193 61.7031C38.9219 78.7689 22.7044 102.914 27.0234 109.305C31.8378 116.424 52.7577 100.125 53.3243 98.9542C53.9588 97.631 59.8589 82.2059 63.3466 66.8106C67.1737 49.9201 57.0021 57.4755 53.4193 61.7031Z" fill="#F7A9A0"/>
<path d="M28.2717 110.095C33.4661 113.516 47.7972 114.965 72.2626 110.787C75.6554 110.208 68.8291 87.2009 65.1819 87.631C60.5881 88.1801 42.8811 91.2698 41.6156 91.67C30.935 94.9383 24.75 107.773 28.2717 110.095Z" fill="#F7A9A0"/>
<path d="M58.8884 89.543C58.8884 89.543 60.371 89.0898 67.7978 85.4577C72.9311 82.9469 87.0893 80.0293 99.0896 90.5586C103.69 94.5943 102.794 99.4901 97.2541 96.1391C93.3625 93.7673 90.8553 91.8057 89.359 91.3723C89.359 91.3723 91.717 97.8394 89.359 101.094C88.3141 102.55 85.3623 106.453 82.6176 109.176C82.0403 108.845 81.4851 108.48 80.9551 108.081C79.913 109.286 78.5428 110.18 77.0025 110.658C75.4621 111.137 73.8144 111.182 72.2492 110.787L58.8884 89.543Z" fill="#F7A9A0"/>
<path d="M73.0908 83.8235C76.0052 84.5579 82.1598 86.2152 86.7095 89.2784C91.7614 92.679 100.559 100.559 97.943 104.164C96.0261 106.811 92.3992 104.091 92.3992 104.091C92.3992 104.091 95.3306 108.094 93.0608 110.119C90.9946 111.961 88.3109 109.692 88.3109 109.692C88.3109 109.692 89.668 112.418 87.3168 113.82C84.5008 115.507 82.136 109.52 77.7695 108.819C76.7958 108.676 73.0908 83.8235 73.0908 83.8235Z" fill="#F7A9A0"/>
<path d="M82.1324 93.8831C84.7585 95.0111 90.0478 99.0667 92.4126 103.972C92.4635 104.085 92.4126 104.184 92.338 104.091C89.3603 100.312 85.9219 96.8992 82.0985 93.9294C82.0714 93.9095 82.1019 93.8698 82.1324 93.8831Z" fill="#263238"/>
<path d="M78.7737 98.9575C80.935 100.158 86.1972 104.581 88.4161 109.626C88.467 109.738 88.4161 109.834 88.3346 109.741C85.5613 105.819 82.3414 102.216 78.7364 99.0005C78.6991 98.9806 78.733 98.9409 78.7737 98.9575Z" fill="#263238"/>
<path d="M88.3209 109.741C89.8477 110.886 92.3923 111.369 93.5255 109.48C94.4076 107.72 93.2846 105.626 92.2566 104.151L91.8902 103.661C92.7825 104.323 93.7765 104.932 94.8758 105.157C96.8199 105.686 98.462 104.108 98.2143 102.209C97.8479 99.4669 95.629 97.449 93.7867 95.5106C92.165 93.8085 90.4126 92.2293 88.5449 90.7868C90.3853 91.6393 92.1659 92.6095 93.8749 93.6912C95.1472 94.4785 96.2295 95.537 97.5595 96.2383C101.414 98.4017 103.327 96.2549 100.861 92.7153C97.7631 88.5307 90.8588 84.7464 85.6915 83.7441C90.9979 84.6869 97.8377 88.3058 101.078 92.5698C101.716 93.4894 102.32 94.5546 102.245 95.719C102.15 97.1249 100.82 97.631 99.5545 97.3266C97.2474 96.8602 95.5849 95.1798 93.6917 93.9558C92.4313 93.1542 91.1265 92.4209 89.7832 91.7593L89.9698 91.4748C91.3916 92.6721 92.744 93.9454 94.0208 95.2889C96.0565 97.4722 99.2118 100.32 98.35 103.582C97.5731 105.716 95.2965 105.848 93.495 104.885C93.0687 104.679 92.6622 104.435 92.2803 104.158L92.4228 104.022C93.4814 105.573 94.5806 107.7 93.6307 109.523C92.4432 111.435 89.8579 110.926 88.3277 109.732L88.3209 109.741Z" fill="#263238"/>
<path d="M33.7107 97.373C34.5724 96.5063 37.1238 93.7541 41.0357 92.0802C44.4488 90.6214 54.5492 89.0435 57.0361 88.8715C57.1006 88.8715 57.1209 88.9376 57.0598 88.9542C54.8919 89.5562 45.1851 91.1904 41.531 92.6988C38.7211 93.895 36.1077 95.489 33.7751 97.4292C33.7276 97.4656 33.6699 97.4292 33.7107 97.373Z" fill="#263238"/>
<path d="M59.0955 86.1821L35.3459 82.0835C35.3459 82.0835 51.5601 61.6039 58.0777 56.8933C65.4129 51.6006 66.5868 56.4104 65.3857 64.7895C64.1847 73.1685 59.0955 86.1821 59.0955 86.1821Z" fill="#FFC501"/>
<path d="M54.5083 73.8699C54.2277 73.107 53.8382 72.3865 53.3514 71.7296C53.4207 72.5376 53.6081 73.3318 53.9078 74.0882C54.1857 74.8522 54.5753 75.5731 55.0647 76.2284C54.9954 75.4204 54.8081 74.6262 54.5083 73.8699ZM40.3536 75.9043C40.103 76.2909 39.8764 76.6919 39.675 77.105C39.3183 77.8387 39.0715 78.6185 38.9422 79.4206C39.4789 78.8016 39.9222 78.111 40.2586 77.3697C40.6021 76.6619 40.8452 75.9118 40.9813 75.1401L40.3536 75.9043ZM62.746 59.8176C62.3894 60.5513 62.1426 61.3311 62.0132 62.1332C63.0723 60.8772 63.7795 59.3751 64.0658 57.7733C63.5255 58.3899 63.0777 59.0782 62.7358 59.8176H62.746Z" fill="white"/>
<path d="M39.4172 78.3786C40.262 78.3786 47.6888 79.5628 49.297 79.8506C50.9052 80.1384 57.494 81.2499 59.1361 81.6833C59.1494 81.6864 59.1613 81.6938 59.1698 81.7043C59.1783 81.7148 59.1829 81.7278 59.1829 81.7412C59.1829 81.7545 59.1783 81.7675 59.1698 81.778C59.1613 81.7885 59.1494 81.7959 59.1361 81.799C57.4397 81.6733 50.8068 80.5685 49.1613 80.3105C47.5158 80.0524 40.1941 78.7359 39.4104 78.4845C39.329 78.4613 39.3663 78.3786 39.4172 78.3786Z" fill="#263238"/>
<path d="M58.0131 85.9439C58.7392 86.0167 59.187 86.0431 59.187 86.0431C60.0047 82.8542 61.053 79.5893 62.0098 76.45C62.9835 73.2413 64.0455 70.0689 65.0633 66.8569C65.0633 66.8073 65.1549 66.8304 65.1414 66.88C64.6833 68.7259 64.2219 70.5651 63.7435 72.3977C63.8453 72.1794 63.9471 71.9611 64.0455 71.7362C64.4051 70.9588 64.7817 70.1913 65.1142 69.4007C65.1414 69.3346 65.2465 69.3643 65.2228 69.4338C64.9739 70.2587 64.669 71.0665 64.3101 71.8519C64.0489 72.4044 63.7537 72.9303 63.4484 73.4563C63.1668 74.5082 62.8953 75.5569 62.5832 76.6055C61.6332 79.8109 60.8325 83.4365 59.6281 86.5625C59.0595 86.4459 58.5005 86.2889 57.9554 86.0928C57.9406 86.082 57.9297 86.0669 57.9245 86.0496C57.9193 86.0324 57.92 86.0139 57.9266 85.9971C57.9331 85.9802 57.9451 85.9659 57.9607 85.9563C57.9763 85.9467 57.9947 85.9424 58.0131 85.9439Z" fill="#263238"/>
<path d="M76.8669 62.8907C73.637 63.9625 67.4825 59.5827 64.8497 55.7885C64.6698 55.5271 64.8157 52.6029 64.8225 49.0435C64.8225 46.8801 64.7581 44.4752 64.5443 42.282C64.4968 41.8321 78.9739 44.3065 78.9739 44.3065C78.9739 44.3065 78.0374 49.0303 78.4378 52.8477C78.4711 53.1504 78.5336 53.4495 78.6244 53.7408C78.6244 53.7805 78.6481 53.8301 78.6583 53.8864C79.113 55.5701 79.9883 61.8553 76.8669 62.8907Z" fill="#F7A9A0"/>
<path d="M78.9737 44.3065C78.5633 46.5216 78.351 48.7674 78.3393 51.0184C71.4892 53.3141 66.0777 49.7547 64.8224 48.8186C64.8224 46.7147 64.7545 44.3991 64.5442 42.2853L78.9737 44.3065Z" fill="#263238"/>
<path d="M85.1588 38.1173C85.1588 38.1173 84.6261 41.3756 84.7924 42.5433C84.9586 43.7111 87.4387 45.1897 87.4387 45.1897C87.4387 45.1897 84.3343 45.8877 83.5065 45.5933C82.6787 45.2989 81.5624 43.0296 81.5624 43.0296C81.5624 43.0296 82.4242 46.5625 83.5981 46.8768C84.3377 47.072 81.7355 46.8073 81.7355 46.8073C80.8809 46.6542 80.1147 46.1982 79.5844 45.5271C78.8312 44.4587 85.1588 38.1173 85.1588 38.1173Z" fill="#263238"/>
<path d="M85.8546 25.977C86.5705 31.0481 81.6441 44.6042 77.6033 47.1646C71.744 50.8761 63.3027 49.9929 60.3611 43.3836C57.5044 36.976 64.2459 19.4206 68.6531 17.2109C75.1435 13.9558 84.7994 18.4878 85.8546 25.977Z" fill="#F7A9A0"/>
<path d="M71.6489 32.4673C71.6659 32.4342 71.7066 32.5367 71.6897 32.5731C71.3334 33.4729 71.0824 34.5579 71.8186 35.1533C71.8423 35.1732 71.8186 35.2162 71.7914 35.203C70.8109 34.7101 71.1638 33.2546 71.6489 32.4673Z" fill="#263238"/>
<path d="M72.8227 31.799C74.3664 32.2026 73.43 35.1798 72.0016 34.8093C70.5733 34.4388 71.53 31.4649 72.8227 31.799Z" fill="#263238"/>
<path d="M65.9727 30.4923C65.9727 30.456 65.8844 30.5155 65.8743 30.5552C65.6198 31.488 65.1686 32.5135 64.2186 32.5697C64.1881 32.5697 64.1745 32.6194 64.2186 32.626C65.3009 32.7881 65.8811 31.4186 65.9727 30.4923Z" fill="#263238"/>
<path d="M65.4232 29.285C63.9337 28.7259 62.8989 31.6733 64.2764 32.1894C65.6539 32.7054 66.6717 29.7481 65.4232 29.285Z" fill="#263238"/>
<path d="M74.8552 29.5959C74.4339 29.4833 74.007 29.3916 73.5761 29.3214C73.0807 29.2221 72.7007 29.0931 72.219 29.285C72.0874 29.3539 71.9828 29.4632 71.9215 29.596C71.8602 29.7288 71.8455 29.8776 71.8797 30.0193C72.0629 30.6181 72.6329 30.886 73.2368 31.0283C73.8237 31.1945 74.4532 31.1402 75.0011 30.8761C75.1232 30.8083 75.2223 30.7071 75.2861 30.5851C75.3499 30.463 75.3756 30.3254 75.3601 30.1892C75.3445 30.0531 75.2885 29.9243 75.1987 29.8189C75.109 29.7134 74.9896 29.6359 74.8552 29.5959Z" fill="#263238"/>
<path d="M65.4571 25.9307C65.8923 25.9725 66.3295 25.9913 66.7667 25.9869C67.2689 25.9869 67.6692 26.0663 68.1238 25.795C68.241 25.7055 68.3247 25.5809 68.3621 25.4405C68.3995 25.3 68.3885 25.1514 68.3308 25.0177C68.0424 24.4586 67.4317 24.2899 66.8278 24.2469C66.2251 24.1858 65.6206 24.3449 65.1314 24.6935C64.5818 25.0474 64.8634 25.8546 65.4571 25.9307Z" fill="#263238"/>
<path d="M69.0566 39.7514C68.0082 38.9211 66.4238 38.6002 65.4093 38.4282C65.3075 38.3786 65.2736 38.1404 65.2906 38.0345C65.2906 38.0015 65.9691 36.106 65.9691 36.106C65.6638 36.1556 64.137 36.3309 64.2727 35.9737C65.4331 32.9965 66.7257 29.6885 68.5239 26.9793C68.5364 26.9629 68.5544 26.9512 68.5747 26.9462C68.595 26.9411 68.6165 26.943 68.6355 26.9515C68.6546 26.96 68.67 26.9747 68.6794 26.993C68.6887 27.0113 68.6913 27.0321 68.6868 27.0521C67.6859 29.9532 66.1693 32.6756 65.1209 35.5569C65.5959 35.5304 66.3864 35.451 66.7597 35.5734C66.8547 35.633 65.9284 37.5747 65.8606 37.889C65.8606 37.889 67.9437 37.9155 69.1889 39.3577C69.5248 39.7282 69.5587 40.145 69.0566 39.7514Z" fill="#263238"/>
<path d="M70.19 41.7097C69.8982 41.8519 69.5759 42.0769 69.2298 42.0008C68.8847 41.8848 68.5682 41.7 68.3002 41.4583C68.2947 41.454 68.288 41.4515 68.281 41.4511C68.274 41.4507 68.267 41.4524 68.2611 41.4561C68.2551 41.4597 68.2504 41.4651 68.2477 41.4714C68.245 41.4777 68.2444 41.4847 68.2459 41.4914C68.3199 41.7114 68.4536 41.9079 68.6328 42.0599C68.812 42.2118 69.03 42.3137 69.2638 42.3547C69.473 42.3691 69.6819 42.3219 69.8633 42.2193C70.0448 42.1167 70.1905 41.9634 70.2816 41.7792C70.2918 41.7295 70.2341 41.6898 70.19 41.7097Z" fill="#263238"/>
<path d="M83.1163 38.0676C80.9144 36.5923 82.4377 28.233 82.4377 28.233L80.4699 32.4507C80.4699 32.4507 79.1128 30.3634 78.9025 28.1139C78.7566 26.5096 79.6285 24.6141 80.1951 23.7276C80.1951 23.7276 76.5512 25.5999 73.1652 25.3815C71.9201 25.3022 63.5094 22.5003 63.6858 21.9876C64.1845 20.4659 69.3891 16.1225 71.9879 15.4113C74.9838 14.5909 79.011 14.1675 83.3945 17.6971C87.778 21.2267 88.0087 24.8159 87.9103 27.5053C87.8119 30.1947 83.9238 38.6101 83.1163 38.0676Z" fill="#263238"/>
<path d="M80.6904 37.4457C80.6904 37.4457 85.101 33.8897 86.8415 35.5403C88.582 37.191 84.3919 42.9436 81.7523 43.1718C81.4136 43.2235 81.0676 43.2078 80.7353 43.1256C80.403 43.0435 80.0911 42.8966 79.8185 42.6939C79.5459 42.4912 79.3182 42.2367 79.1491 41.9459C78.98 41.6551 78.873 41.334 78.8345 41.0018L80.6904 37.4457Z" fill="#F7A9A0"/>
<path d="M85.5998 37.1613C85.6372 37.1613 85.6304 37.2241 85.5998 37.2274C83.7236 37.4391 82.4004 38.7259 81.3283 40.1417C82.0069 39.6687 82.7838 39.5198 83.4556 40.327C83.4895 40.37 83.4284 40.4262 83.3843 40.4031C83.1132 40.2312 82.7942 40.1453 82.4711 40.1572C82.148 40.169 81.8365 40.278 81.5794 40.4692C81.1533 40.7936 80.7633 41.1606 80.4156 41.5642C80.2935 41.6899 80.0458 41.5377 80.151 41.3822C80.1578 41.3705 80.1657 41.3594 80.1748 41.3492C80.721 39.2387 83.2249 36.7478 85.5998 37.1613Z" fill="#263238"/>
<path d="M77.3554 14.8225C79.3654 14.6093 81.3966 14.684 83.3844 15.0441C85.5931 15.4874 92.1039 18.2066 93.2506 20.0425C94.3974 21.8784 92.6806 28.1603 92.4092 29.0733C92.1378 29.9863 89.8341 35.279 87.3607 35.9241C84.8874 36.5691 87.9104 27.277 85.7933 23.1619C83.6762 19.0468 77.3554 14.8225 77.3554 14.8225Z" fill="#FFC501"/>
<path opacity="0.1" d="M77.3522 14.8225C77.3522 14.8225 83.6763 19.0468 85.79 23.1619C87.9038 27.2771 84.8808 36.5625 87.3643 35.9241C88.4534 35.6429 89.1828 34.9317 90.0514 33.6085C90.5705 30.7736 90.9098 26.2218 89.6137 22.5599C88.4025 19.1295 85.1658 16.5294 81.3421 14.7729C80.0131 14.6802 78.6784 14.6968 77.3522 14.8225Z" fill="black"/>
<path d="M84.901 41.2168C85.5795 38.6995 85.3081 31.2698 83.934 26.6055C82.5599 21.9413 75.4215 17.1183 74.2951 16.8139C71.5571 16.0762 70.373 16.5658 70.027 16.192C69.6809 15.8182 73.1348 14.7663 74.044 14.5744C74.9533 14.3826 77.3452 14.0154 78.5022 14.4322C79.6591 14.849 86.6109 17.9254 88.1818 21.7825C89.7527 25.6396 90.533 35.2493 89.1046 37.1679C88.7654 37.631 87.9443 37.7302 87.4659 38.3852C86.8382 39.2453 86.2445 40.2873 85.7152 40.8596C85.2877 41.3194 84.8433 41.4352 84.901 41.2168Z" fill="#FFC501"/>
<path d="M83.9071 24.7067C84.6507 24.5454 85.3792 24.3241 86.0852 24.0451C86.8034 23.7701 87.4865 23.4148 88.1209 22.9866C88.165 22.9535 88.2227 23.013 88.182 23.0494C87.6007 23.5798 86.9364 24.0164 86.2141 24.3428C85.4903 24.6521 84.7137 24.8271 83.924 24.8589C83.8324 24.8556 83.8256 24.7232 83.9071 24.7067Z" fill="#263238"/>
<path d="M85.783 38.7689C85.9153 38.6167 86.0884 38.4976 86.2343 38.3554C86.4017 38.1944 86.5518 38.017 86.6821 37.8261C86.874 37.4359 87.1095 37.0676 87.3844 36.7279C87.6502 36.4879 87.944 36.2792 88.2598 36.106C88.6319 35.9319 88.9305 35.6373 89.1046 35.2724C89.1064 35.2669 89.1092 35.2619 89.113 35.2576C89.1168 35.2532 89.1214 35.2496 89.1266 35.247C89.1318 35.2444 89.1375 35.2428 89.1433 35.2423C89.1491 35.2419 89.155 35.2425 89.1605 35.2443C89.1661 35.246 89.1713 35.2488 89.1757 35.2525C89.1802 35.2562 89.1839 35.2607 89.1866 35.2657C89.1892 35.2708 89.1909 35.2763 89.1913 35.282C89.1918 35.2877 89.1912 35.2934 89.1894 35.2988C88.9315 36.0464 88.2326 36.4037 87.6796 36.9197C87.3403 37.2505 87.1775 37.707 86.8891 38.0808C86.6476 38.4496 86.2907 38.7326 85.8712 38.888C85.8034 38.9012 85.7355 38.8251 85.783 38.7689Z" fill="#263238"/>
<path d="M85.8374 35.8248C86.1766 35.6231 86.5159 35.4577 86.8382 35.2261C87.1418 34.9978 87.4297 34.7503 87.7 34.4851C87.968 34.2271 88.2123 33.9459 88.4735 33.6813C88.7857 33.3703 89.1521 33.0892 89.4303 32.765C89.4676 32.722 89.5253 32.7881 89.488 32.8278C89.186 33.1586 88.9384 33.5556 88.6466 33.9062C88.3888 34.2049 88.1111 34.4867 87.8153 34.7498C87.5384 35.0061 87.2374 35.2365 86.9163 35.4378C86.5973 35.6503 86.237 35.7966 85.8577 35.8678C85.8519 35.8705 85.8452 35.8707 85.8391 35.8686C85.8331 35.8664 85.8282 35.862 85.8255 35.8563C85.8228 35.8506 85.8225 35.8441 85.8247 35.8382C85.827 35.8323 85.8315 35.8275 85.8374 35.8248Z" fill="#263238"/>
<path d="M85.7594 33.1189C86.4418 32.8573 87.0818 32.5008 87.6594 32.0604C88.2158 31.6303 88.7518 31.1606 89.2811 30.6942C89.315 30.6611 89.3795 30.7107 89.3456 30.7504C88.9076 31.3345 88.3983 31.8643 87.829 32.3283C87.5462 32.5486 87.2389 32.7372 86.9129 32.8907C86.5525 33.0372 86.1756 33.1416 85.7899 33.2016C85.7424 33.2115 85.7085 33.1388 85.7594 33.1189Z" fill="#263238"/>
<path d="M85.5594 30.4858C85.8853 30.3985 86.1907 30.2502 86.4584 30.0491C86.7706 29.8473 87.0827 29.6356 87.3847 29.4173C87.6866 29.199 87.9716 29.0005 88.26 28.7888C88.5672 28.5941 88.8285 28.3382 89.0268 28.0379C89.0505 27.9949 89.1252 28.0379 89.1048 28.0743C88.9609 28.4014 88.7482 28.6955 88.4806 28.9376C88.2021 29.2207 87.899 29.4797 87.5747 29.7117C87.2558 29.9397 86.9214 30.1464 86.5738 30.3303C86.2768 30.5193 85.9275 30.6151 85.5729 30.6049C85.5567 30.6066 85.5405 30.602 85.5278 30.5921C85.515 30.5822 85.5069 30.5677 85.5051 30.5519C85.5033 30.5361 85.508 30.5203 85.5182 30.5079C85.5283 30.4955 85.5432 30.4875 85.5594 30.4858Z" fill="#263238"/>
<path d="M85.8611 27.33C86.1733 27.1844 86.482 27.0356 86.7806 26.8669C87.0792 26.6982 87.3675 26.5129 87.6559 26.3277C87.9443 26.1424 88.2598 25.9406 88.5482 25.7256C88.5572 25.7181 88.5689 25.7145 88.5807 25.7154C88.5924 25.7163 88.6033 25.7218 88.611 25.7306C88.6186 25.7393 88.6224 25.7507 88.6215 25.7622C88.6205 25.7737 88.6149 25.7843 88.6059 25.7918C88.3674 26.0574 88.1076 26.3041 87.829 26.5294C87.5497 26.747 87.2549 26.9449 86.9468 27.1216C86.6432 27.2999 86.3282 27.459 86.0036 27.5979C85.6867 27.7573 85.341 27.855 84.9858 27.8857C84.9733 27.8855 84.9611 27.8815 84.9509 27.8743C84.9408 27.8672 84.9332 27.8571 84.9291 27.8455C84.925 27.834 84.9247 27.8215 84.9282 27.8097C84.9316 27.798 84.9387 27.7875 84.9485 27.7799C85.2364 27.6004 85.5422 27.4497 85.8611 27.33Z" fill="#263238"/>
<path d="M82.4585 22.669C82.8148 22.4507 83.1609 22.2357 83.5341 22.0471C83.9153 21.859 84.3073 21.6923 84.708 21.5476C85.4818 21.2491 86.2876 21.036 87.1101 20.9125C87.1576 20.9125 87.1915 20.972 87.1406 20.9919C85.6037 21.5906 84.0362 22.1298 82.5027 22.7451C82.4923 22.7508 82.4801 22.7523 82.4686 22.7492C82.4572 22.7461 82.4474 22.7386 82.4416 22.7286C82.4357 22.7185 82.4342 22.7065 82.4374 22.6954C82.4406 22.6842 82.4482 22.6747 82.4585 22.669Z" fill="#263238"/>
<path d="M81.6679 20.059C82.0251 19.8498 82.4052 19.68 82.801 19.5529C83.6371 19.3084 84.4986 19.1552 85.3694 19.0964C85.3799 19.0955 85.3904 19.0984 85.399 19.1044C85.4075 19.1104 85.4136 19.1192 85.4161 19.1292C85.4185 19.1392 85.4172 19.1498 85.4124 19.1589C85.4076 19.1681 85.3995 19.1752 85.3897 19.1791C84.5857 19.3875 83.7816 19.5794 82.9944 19.8407C82.5975 19.9564 82.2078 20.0945 81.8273 20.2542C81.4541 20.4196 81.125 20.6578 80.762 20.8397C80.7348 20.8397 80.6975 20.8199 80.7179 20.7934C80.9828 20.491 81.3054 20.2416 81.6679 20.059Z" fill="#263238"/>
<path d="M79.9068 18.4017C80.242 18.1896 80.5991 18.0122 80.9722 17.8725C81.6787 17.6044 82.4265 17.4545 83.1842 17.4292C83.2351 17.4292 83.2385 17.502 83.1842 17.5119C82.4449 17.6725 81.7208 17.8938 81.0196 18.1735C80.6804 18.3124 80.3241 18.4679 79.9781 18.6201C79.6477 18.8024 79.308 18.968 78.9602 19.1163C78.9297 19.1163 78.9127 19.0865 78.9331 19.0666C79.2347 18.8147 79.5608 18.592 79.9068 18.4017Z" fill="#263238"/>
<path d="M78.8142 16.6717C79.1535 16.5493 79.4927 16.4467 79.832 16.3409C80.1665 16.2231 80.5181 16.1584 80.8736 16.149C80.8853 16.149 80.8965 16.1535 80.9048 16.1616C80.9131 16.1697 80.9177 16.1806 80.9177 16.192C80.9177 16.2034 80.9131 16.2144 80.9048 16.2224C80.8965 16.2305 80.8853 16.235 80.8736 16.235C80.2188 16.4633 79.564 16.7081 78.916 16.9495C78.332 17.2128 77.7781 17.5354 77.2637 17.9122C77.2399 17.9287 77.2094 17.9122 77.2263 17.8725C77.6191 17.3251 78.1727 16.9064 78.8142 16.6717Z" fill="#263238"/>
<path d="M77.0772 15.6495C77.719 15.3685 78.41 15.2102 79.1129 15.1831C79.1638 15.1831 79.1706 15.2625 79.1129 15.2691C78.4437 15.3792 77.7953 15.5866 77.1892 15.8844C76.581 16.1766 76.0066 16.5315 75.4758 16.9429C75.4487 16.9628 75.4046 16.9429 75.4284 16.9032C75.8708 16.3663 76.4353 15.937 77.0772 15.6495Z" fill="#263238"/>
<path d="M74.2003 15.9274C74.3054 15.8188 74.4188 15.7181 74.5396 15.6264C74.7853 15.4375 75.0515 15.2755 75.3335 15.1434C75.9127 14.8844 76.5175 14.6838 77.1385 14.5447C77.1928 14.5447 77.2131 14.6141 77.1589 14.6274C76.5596 14.7808 75.981 15.0029 75.4353 15.289C75.1672 15.4282 74.9097 15.5863 74.6652 15.762C74.5464 15.848 74.4311 15.9406 74.3259 16.0366C74.2228 16.1402 74.1091 16.2333 73.9866 16.3144C73.979 16.3178 73.9707 16.319 73.9624 16.3179C73.9542 16.3169 73.9464 16.3135 73.9401 16.3083C73.9337 16.3032 73.9289 16.2963 73.9264 16.2886C73.9238 16.2809 73.9235 16.2727 73.9255 16.2648C73.9935 16.1359 74.0869 16.0212 74.2003 15.9274Z" fill="#263238"/>
<path d="M72.6362 15.5569C72.8458 15.4114 73.0645 15.2789 73.291 15.1599C73.509 15.0343 73.7357 14.9237 73.9696 14.8291C74.2138 14.7332 74.4649 14.6505 74.7058 14.548C74.7635 14.5215 74.794 14.6042 74.7329 14.6273C74.4865 14.7181 74.2481 14.8288 74.0205 14.9581C73.8033 15.0805 73.5862 15.1963 73.369 15.3154L72.7176 15.676C72.5061 15.8143 72.2863 15.9402 72.0594 16.0531C72.0221 16.0531 71.995 16.0266 72.0221 15.9968C72.2083 15.8271 72.4145 15.6794 72.6362 15.5569Z" fill="#263238"/>
<path d="M108.382 100.076C114.198 103.757 119.239 97.33 119.012 92.6161C118.469 81.5443 107.704 63.8368 101.353 57.8129C98.9776 55.5635 84.1409 68.4613 85.4912 71.6469C86.9637 75.1169 97.5628 93.2182 108.382 100.076Z" fill="#F7A9A0"/>
<path d="M89.8617 79.1692C92.0127 82.0438 94.9848 86.0795 97.1664 88.8649C99.677 92.0207 102.137 95.2592 105.268 97.8659C99.5549 94.2602 93.2138 85.0177 89.8617 79.1692Z" fill="#263238"/>
<path d="M86.367 51.0613C86.9132 48.974 85.0845 44.6538 85.0302 41.6435C84.9759 38.6333 87.7444 35.9538 88.7623 36.6022C89.7801 37.2506 89.3594 38.5704 91.0422 42.7914C92.1279 45.5073 96.7082 49.8374 98.1094 55.0309C98.8253 57.6244 85.8207 53.152 86.367 51.0613Z" fill="#F7A9A0"/>
<path d="M86.367 51.0613C86.9132 48.974 85.0845 44.6538 85.0302 41.6435C84.9759 38.6333 87.7444 35.9538 88.7623 36.6022C89.7801 37.2506 89.3594 38.5704 91.0422 42.7914C92.1279 45.5073 96.7082 49.8374 98.1094 55.0309C98.8253 57.6244 85.8207 53.152 86.367 51.0613Z" fill="#F7A9A0"/>
<path opacity="0.1" d="M86.367 51.0613C86.9132 48.974 85.0845 44.6538 85.0302 41.6435C84.9759 38.6333 87.7444 35.9538 88.7623 36.6022C89.7801 37.2506 89.3594 38.5704 91.0422 42.7914C92.1279 45.5073 96.7082 49.8374 98.1094 55.0309C98.8253 57.6244 85.8207 53.152 86.367 51.0613Z" fill="black"/>
<path d="M69.2468 43.7541C68.2493 46.2681 74.8109 48.1404 74.8109 48.1404C74.8109 48.1404 72.9347 48.4712 71.883 49.9499C70.6751 51.627 72.8431 54.204 72.8431 54.204C71.6935 54.711 70.7266 55.5431 70.0678 56.5923C69.0805 58.3091 70.8855 61.2235 70.8855 61.2235C70.8855 61.2235 69.5725 62.8146 69.8032 64.8225C70.1933 68.2529 75.2588 70.2013 78.1494 72.0141C81.2471 73.9559 88.7112 74.505 90.4008 76.1226L101.889 58.6069C101.889 58.6069 91.344 45.6495 87.4627 44.409C84.2022 43.3604 70.7701 39.9168 69.2468 43.7541Z" fill="#F7A9A0"/>
<path d="M74.8891 48.0875C78.6381 48.3852 82.3057 49.5563 85.8308 50.7339C85.847 50.7396 85.8602 50.7513 85.8676 50.7665C85.8749 50.7817 85.8757 50.7992 85.8699 50.8149C85.864 50.8307 85.852 50.8436 85.8364 50.8507C85.8208 50.8579 85.8029 50.8587 85.7867 50.853C82.2955 49.6522 78.3904 49.3313 74.8552 48.2695C74.8304 48.2651 74.8085 48.2513 74.7941 48.2311C74.7798 48.211 74.7743 48.1861 74.7788 48.162C74.7833 48.1378 74.7975 48.1164 74.8181 48.1025C74.8388 48.0885 74.8643 48.0831 74.8891 48.0875Z" fill="#263238"/>
<path d="M73.0366 53.9823C73.8815 54.1306 74.7028 54.3864 75.4794 54.7432C76.3209 55.0739 77.1589 55.4047 77.9935 55.762C79.6605 56.4699 81.3094 57.2175 82.9402 58.0048C83.0114 58.0412 82.9741 58.157 82.8961 58.1239C81.2336 57.4226 79.561 56.7445 77.868 56.1127C77.0198 55.7951 76.1704 55.4841 75.32 55.1798C74.494 54.9448 73.6974 54.6209 72.945 54.2139C72.922 54.197 72.9053 54.1733 72.8974 54.1463C72.8895 54.1193 72.8908 54.0905 72.9011 54.0644C72.9115 54.0382 72.9303 54.016 72.9548 54.0012C72.9792 53.9864 73.008 53.9798 73.0366 53.9823Z" fill="#263238"/>
<path d="M70.9703 61.2433C71.7099 61.2962 72.4665 61.7428 73.1315 62.0405C73.8847 62.3779 74.639 62.7087 75.3945 63.0329C76.9077 63.6945 78.4208 64.3561 79.9578 64.9548C80.0324 64.9879 79.9917 65.1037 79.9137 65.0739C78.3496 64.4653 76.7787 63.8764 75.2214 63.2545C74.4547 62.9502 73.6947 62.6393 72.9313 62.325C72.2833 62.057 71.4453 61.7957 70.933 61.3061C70.9303 61.2996 70.9292 61.2926 70.9298 61.2857C70.9303 61.2787 70.9324 61.272 70.936 61.2659C70.9396 61.2599 70.9446 61.2547 70.9505 61.2508C70.9564 61.2469 70.9632 61.2443 70.9703 61.2433Z" fill="#263238"/>
<path d="M71.4588 67.7004C69.3587 65.7884 69.0194 63.4001 70.7803 61.1209V61.3557C69.8744 59.9565 69.0431 58.1437 69.793 56.493C70.4257 55.2685 71.5314 54.3392 72.8668 53.9095L72.7209 54.4355C70.9058 52.6723 70.4681 49.3081 73.1586 48.1239C73.5033 47.9762 73.8719 47.8888 74.2477 47.8658L74.1527 48.491C72.4563 47.8691 70.8176 47.148 69.5622 45.8447C68.3883 44.5678 68.7955 42.9601 70.5292 42.4937C72.67 41.9049 74.9398 42.1133 77.1044 42.2985C78.8401 42.4706 80.5659 42.7279 82.275 43.0693C79.6923 42.6838 77.0844 42.4815 74.4716 42.4639C73.187 42.4279 71.9043 42.5841 70.6683 42.927C69.9219 43.1553 69.2467 43.6846 69.4299 44.5016C69.9592 46.2615 72.7175 47.2737 74.3495 47.8956L75.8627 48.415L74.2545 48.5208C73.6634 48.57 73.1081 48.8174 72.6831 49.2209C72.2582 49.6244 71.9897 50.1591 71.9236 50.7338C71.7133 52.1067 72.5649 53.4431 73.525 54.3726L73.0229 54.5215C71.8573 54.894 70.8846 55.6918 70.3087 56.7477C69.6301 58.1669 70.3833 59.8572 71.1263 61.1341L71.2077 61.2631L71.1195 61.3723C69.318 63.5026 69.5928 65.709 71.4588 67.7037V67.7004Z" fill="#263238"/>
<path d="M107.952 112.408C108.548 112.738 109.176 113.008 109.828 113.215C110.446 113.45 111.084 113.633 111.735 113.761C111.893 113.792 112.056 113.786 112.211 113.742C112.366 113.699 112.508 113.619 112.624 113.509C112.655 113.478 112.684 113.444 112.708 113.407C112.723 113.402 112.736 113.393 112.745 113.38C112.753 113.368 112.757 113.352 112.756 113.337C112.756 113.337 112.814 113.291 112.834 113.274C112.882 113.233 112.925 113.185 112.959 113.132C113.024 113.043 113.075 112.937 113.027 112.917C113.121 112.543 113.121 112.153 113.027 111.779C112.912 111.127 112.762 110.481 112.579 109.844C112.412 109.244 112.185 108.661 111.901 108.104C111.721 107.753 111.484 107.241 111.039 107.161C110.918 107.139 110.792 107.157 110.683 107.214C110.667 107.219 110.651 107.226 110.639 107.237C110.544 107.301 110.462 107.382 110.399 107.476C110.336 107.57 110.293 107.676 110.272 107.786C110.164 108.256 110.391 108.739 110.612 109.153C110.886 109.718 111.171 110.277 111.456 110.836C111.29 110.611 111.117 110.38 110.951 110.155C110.496 109.556 110.028 108.971 109.533 108.405C109.193 108.015 108.803 107.469 108.267 107.32C108.141 107.282 108.009 107.272 107.878 107.291C107.748 107.309 107.624 107.355 107.514 107.426C107.482 107.45 107.451 107.477 107.422 107.505C107.37 107.561 107.328 107.625 107.297 107.694C107.252 107.86 107.251 108.035 107.295 108.201C107.338 108.368 107.424 108.521 107.544 108.647C107.98 109.177 108.451 109.68 108.953 110.152C109.448 110.668 109.95 111.177 110.466 111.673L110.727 111.925C110.018 111.468 109.299 111.022 108.593 110.575C108.169 110.304 107.677 110.013 107.151 110.185C106.982 110.237 106.836 110.345 106.737 110.489C106.72 110.512 106.706 110.536 106.693 110.562C106.693 110.578 106.676 110.598 106.666 110.618C106.657 110.636 106.65 110.655 106.645 110.674C106.588 110.85 106.588 111.038 106.645 111.214C106.825 111.773 107.46 112.13 107.952 112.408Z" fill="#FFC501"/>
<path opacity="0.1" d="M106.649 110.661C107.365 111.405 108.345 111.855 109.302 112.272C110.381 112.738 111.497 113.132 112.62 113.499C112.652 113.468 112.681 113.434 112.705 113.397C112.72 113.392 112.733 113.383 112.741 113.37C112.75 113.358 112.754 113.342 112.753 113.327C112.753 113.327 112.81 113.281 112.831 113.264C112.879 113.223 112.921 113.175 112.956 113.122L112.885 113.026C112.749 112.054 112.507 111.1 112.162 110.178C111.823 109.186 111.521 107.925 110.69 107.201C110.673 107.205 110.658 107.213 110.646 107.224C110.771 108.249 111.044 109.251 111.456 110.201C111.719 110.863 111.991 111.53 112.274 112.203C111.663 111.412 111.029 110.641 110.35 109.91C109.825 109.341 109.275 108.789 108.698 108.273C108.341 107.928 107.937 107.632 107.497 107.393C107.465 107.417 107.434 107.444 107.406 107.472C107.999 108.604 109.007 109.513 109.892 110.42C110.832 111.386 111.765 112.361 112.719 113.317C111.752 112.745 110.683 112.285 109.696 111.782C108.748 111.253 107.752 110.81 106.72 110.459C106.703 110.482 106.689 110.507 106.676 110.532C107.739 110.942 108.775 111.416 109.777 111.951C110.663 112.401 111.579 112.821 112.451 113.304C111.494 112.973 110.534 112.643 109.601 112.259C108.566 111.829 107.477 111.352 106.649 110.588C106.646 110.612 106.646 110.637 106.649 110.661ZM112.776 112.861L112.6 112.623C111.793 110.903 111.159 109.112 110.707 107.274C111.45 108.044 111.748 109.259 112.081 110.218C112.402 111.078 112.635 111.966 112.776 112.871V112.861ZM110.106 110.482C109.141 109.557 108.262 108.55 107.48 107.472C108.584 108.247 109.581 109.157 110.445 110.181C111.165 110.975 111.836 111.812 112.481 112.666C112.546 112.818 112.617 112.967 112.685 113.119C111.836 112.242 110.968 111.372 110.106 110.492V110.482Z" fill="black"/>
<path d="M111.433 113.926C112.259 114.549 113.139 115.103 114.062 115.58C114.472 115.779 115.08 115.2 114.812 114.657C114.693 114.412 113.563 112.54 113.36 112.219C113.122 111.839 112.274 112.55 112.05 112.725C111.758 112.977 111.185 113.638 111.433 113.926Z" fill="#263238"/>
<path d="M113.543 114.194C114.768 115.177 115.864 116.304 116.807 117.548C117.762 118.753 118.602 120.039 119.317 121.392C120.759 124.108 121.818 127.188 121.974 130.261C121.974 130.34 121.859 130.367 121.845 130.284C121.295 127.254 120.488 124.346 119.032 121.601C118.318 120.253 117.484 118.969 116.539 117.763C115.554 116.574 114.499 115.442 113.38 114.373C113.275 114.273 113.431 114.111 113.543 114.194Z" fill="#263238"/>
<path d="M110.886 119.837C111.297 119.962 111.718 120.047 112.145 120.092C112.554 120.159 112.969 120.191 113.384 120.188C113.484 120.186 113.583 120.161 113.672 120.115C113.76 120.068 113.836 120.001 113.892 119.92C113.909 119.898 113.923 119.873 113.933 119.847C113.941 119.843 113.948 119.836 113.951 119.827C113.954 119.819 113.954 119.809 113.95 119.801L113.991 119.748C114.017 119.72 114.037 119.686 114.049 119.649C114.079 119.583 114.096 119.513 114.049 119.507C114.059 119.267 114.009 119.028 113.903 118.812C113.743 118.428 113.563 118.048 113.37 117.681C113.19 117.33 112.975 116.998 112.729 116.688C112.569 116.496 112.359 116.212 112.074 116.222C111.997 116.223 111.923 116.25 111.864 116.298C111.854 116.302 111.846 116.309 111.84 116.318C111.74 116.42 111.685 116.557 111.687 116.698C111.721 116.997 111.854 117.277 112.067 117.495C112.311 117.806 112.559 118.114 112.81 118.418L112.406 118.064C112.05 117.757 111.687 117.456 111.307 117.174C111.056 116.926 110.739 116.751 110.391 116.668C110.309 116.661 110.226 116.672 110.148 116.7C110.071 116.728 110.001 116.773 109.943 116.83C109.926 116.848 109.911 116.868 109.899 116.89C109.872 116.93 109.854 116.975 109.848 117.022C109.842 117.129 109.865 117.236 109.913 117.332C109.961 117.428 110.033 117.51 110.123 117.571C110.46 117.841 110.815 118.09 111.185 118.316C111.558 118.57 111.931 118.819 112.311 119.057L112.505 119.176L111.022 118.62C110.882 118.541 110.724 118.495 110.562 118.486C110.401 118.476 110.239 118.503 110.089 118.564C109.992 118.617 109.916 118.701 109.875 118.802C109.867 118.818 109.86 118.835 109.855 118.852C109.853 118.864 109.853 118.876 109.855 118.888C109.853 118.901 109.853 118.915 109.855 118.928C109.845 119.043 109.871 119.158 109.93 119.259C110.116 119.593 110.554 119.728 110.886 119.837Z" fill="#FFC501"/>
<path opacity="0.1" d="M109.862 118.931C110.424 119.268 111.049 119.493 111.7 119.593C112.423 119.745 113.159 119.844 113.892 119.923C113.909 119.901 113.923 119.877 113.933 119.851C113.941 119.846 113.948 119.839 113.951 119.831C113.954 119.822 113.954 119.813 113.95 119.804L113.991 119.751C114.017 119.723 114.037 119.689 114.048 119.652L113.994 119.599C113.781 119.021 113.506 118.467 113.173 117.945C112.834 117.383 112.494 116.649 111.877 116.311C111.867 116.316 111.859 116.323 111.853 116.331C112.064 116.945 112.364 117.527 112.745 118.058C112.992 118.435 113.246 118.809 113.509 119.179C113.034 118.772 112.542 118.382 112.03 118.018C111.633 117.737 111.222 117.469 110.801 117.224C110.536 117.06 110.25 116.931 109.95 116.84C109.932 116.858 109.918 116.878 109.906 116.9C110.418 117.515 111.154 117.945 111.816 118.389C112.477 118.832 113.22 119.341 113.93 119.804C113.251 119.576 112.552 119.431 111.877 119.249C111.227 119.043 110.559 118.897 109.882 118.812C109.874 118.828 109.867 118.844 109.862 118.862C110.567 118.977 111.264 119.136 111.948 119.338C112.549 119.503 113.166 119.646 113.763 119.831C113.136 119.748 112.505 119.672 111.88 119.55C111.167 119.448 110.478 119.224 109.845 118.888C109.848 118.903 109.854 118.918 109.862 118.931ZM113.902 119.503C113.858 119.46 113.811 119.421 113.763 119.381C113.043 118.429 112.418 117.412 111.897 116.344C112.454 116.721 112.796 117.426 113.129 117.972C113.438 118.459 113.697 118.974 113.902 119.51V119.503ZM111.955 118.382C111.241 117.94 110.57 117.435 109.95 116.873C110.728 117.21 111.458 117.641 112.125 118.157C112.667 118.554 113.19 118.977 113.699 119.421C113.76 119.507 113.821 119.589 113.885 119.672C113.244 119.262 112.596 118.819 111.955 118.389V118.382Z" fill="black"/>
<path d="M113.224 120.327C113.813 120.597 114.423 120.818 115.049 120.989C115.328 121.058 115.623 120.628 115.389 120.327C115.284 120.191 114.34 119.189 114.178 119.004C114.015 118.819 113.553 119.335 113.441 119.48C113.329 119.626 113.041 120.181 113.224 120.327Z" fill="#263238"/>
<path d="M114.547 120.224C115.43 120.673 116.25 121.229 116.99 121.878C117.731 122.494 118.412 123.175 119.026 123.913C120.317 125.399 121.271 127.136 121.825 129.007C121.825 129.053 121.77 129.086 121.75 129.037C121.058 127.249 120.088 125.576 118.876 124.075C118.261 123.34 117.58 122.661 116.841 122.044C116.083 121.44 115.29 120.88 114.466 120.367C114.398 120.307 114.469 120.185 114.547 120.224Z" fill="#263238"/>
<path d="M138.439 122.752C137.813 123.025 137.161 123.236 136.492 123.384C135.853 123.56 135.201 123.683 134.541 123.751C134.381 123.767 134.22 123.746 134.07 123.688C133.921 123.631 133.788 123.539 133.683 123.42C133.653 123.386 133.627 123.35 133.605 123.311C133.59 123.305 133.579 123.294 133.572 123.281C133.565 123.268 133.564 123.252 133.567 123.238C133.544 123.212 133.519 123.188 133.493 123.165C133.446 123.122 133.408 123.07 133.381 123.013C133.323 122.917 133.282 122.808 133.333 122.795C133.273 122.414 133.309 122.024 133.438 121.66C133.618 121.025 133.828 120.39 134.073 119.775C134.298 119.199 134.579 118.645 134.911 118.121C135.125 117.79 135.41 117.297 135.861 117.26C135.98 117.252 136.1 117.282 136.2 117.346C136.215 117.353 136.229 117.362 136.241 117.373C136.33 117.445 136.403 117.534 136.456 117.634C136.51 117.734 136.543 117.843 136.553 117.955C136.554 118.432 136.395 118.897 136.102 119.278C135.769 119.814 135.43 120.347 135.084 120.876L135.654 120.244C136.163 119.689 136.689 119.149 137.235 118.633C137.618 118.276 138.053 117.77 138.592 117.667C138.721 117.642 138.853 117.645 138.981 117.676C139.108 117.707 139.227 117.765 139.328 117.846C139.36 117.871 139.388 117.9 139.413 117.932C139.461 117.992 139.496 118.061 139.518 118.134C139.547 118.303 139.531 118.477 139.471 118.638C139.412 118.8 139.311 118.944 139.179 119.057C138.694 119.545 138.177 120.002 137.632 120.426C137.089 120.892 136.538 121.35 135.98 121.802L135.695 122.024C136.444 121.637 137.201 121.26 137.947 120.879C138.395 120.651 138.914 120.406 139.42 120.625C139.582 120.69 139.717 120.806 139.803 120.955C139.818 120.98 139.83 121.005 139.841 121.032L139.861 121.088C139.868 121.107 139.874 121.127 139.878 121.147C139.915 121.327 139.896 121.514 139.824 121.683C139.617 122.239 138.952 122.52 138.439 122.752Z" fill="#FFC501"/>
<path opacity="0.1" d="M139.884 121.081C138.985 121.769 137.849 122.143 136.783 122.477C135.816 122.778 134.832 123.013 133.848 123.251C134.761 122.851 135.715 122.52 136.641 122.15C137.69 121.71 138.767 121.334 139.864 121.025C139.854 120.999 139.841 120.973 139.827 120.949C138.765 121.204 137.731 121.554 136.736 121.994C135.698 122.404 134.595 122.765 133.58 123.245C134.619 122.381 135.643 121.495 136.675 120.621C137.642 119.801 138.734 118.987 139.433 117.915C139.408 117.884 139.38 117.855 139.348 117.829C138.889 118.027 138.458 118.284 138.069 118.594C137.445 119.053 136.844 119.553 136.264 120.069C135.518 120.731 134.812 121.445 134.13 122.173C134.476 121.54 134.815 120.901 135.148 120.258C135.652 119.346 136.021 118.369 136.244 117.356C136.232 117.345 136.218 117.336 136.203 117.33C135.304 117.972 134.887 119.202 134.449 120.155C134.016 121.04 133.683 121.969 133.455 122.924L133.373 123.013C133.401 123.07 133.439 123.122 133.485 123.165C133.512 123.188 133.537 123.212 133.56 123.238C133.556 123.252 133.558 123.268 133.565 123.281C133.572 123.294 133.583 123.305 133.597 123.311C133.619 123.35 133.646 123.386 133.675 123.42C134.826 123.159 135.976 122.871 137.095 122.504C138.089 122.173 139.107 121.819 139.894 121.144C139.893 121.123 139.889 121.102 139.884 121.081ZM134.534 120.198C134.961 119.272 135.375 118.094 136.186 117.393C135.561 119.183 134.757 120.909 133.787 122.547L133.587 122.765C133.817 121.881 134.134 121.022 134.534 120.198ZM133.648 123.033L133.896 122.6C134.622 121.809 135.372 121.038 136.166 120.314C137.127 119.374 138.208 118.559 139.382 117.889C138.5 118.891 137.527 119.813 136.474 120.645C135.535 121.442 134.585 122.239 133.648 123.033Z" fill="black"/>
<path d="M134.819 123.943C133.937 124.487 133.008 124.956 132.044 125.345C131.616 125.504 131.07 124.872 131.385 124.353C131.528 124.121 132.838 122.368 133.082 122.06C133.357 121.703 134.13 122.48 134.337 122.686C134.592 122.954 135.094 123.678 134.819 123.943Z" fill="#263238"/>
<path d="M132.695 124.015C131.38 124.88 130.18 125.9 129.123 127.052C128.055 128.162 127.093 129.365 126.249 130.645C124.553 133.218 123.195 136.189 122.744 139.245C122.744 139.325 122.849 139.361 122.873 139.278C123.711 136.301 124.797 133.493 126.51 130.893C127.354 129.618 128.31 128.417 129.367 127.303C130.465 126.212 131.627 125.184 132.848 124.224C132.953 124.118 132.814 123.943 132.695 124.015Z" fill="#263238"/>
<path d="M133.737 109.358C133.564 109.689 131.81 111.425 131.121 111.971C130.697 112.302 129.835 111.789 129.994 111.088C130.066 110.757 130.873 108.293 131.012 107.869C131.185 107.36 132.369 107.958 132.678 108.117C133.109 108.319 133.964 108.957 133.737 109.358Z" fill="#263238"/>
<path d="M138.673 112.176C137.124 113.188 135.785 114.476 134.727 115.974C133.679 117.515 132.919 119.219 132.067 120.866C130.727 123.456 128.963 126.126 126.059 127.198C126.039 127.204 126.017 127.205 125.996 127.2C125.975 127.196 125.956 127.185 125.941 127.17C125.926 127.156 125.915 127.137 125.91 127.117C125.905 127.096 125.906 127.075 125.913 127.055C125.911 127.052 125.91 127.049 125.91 127.045C125.91 127.042 125.911 127.039 125.913 127.036C126.21 125.588 126.672 124.178 127.29 122.831C129.499 118.078 133.601 114.012 138.558 111.984C138.69 111.935 138.775 112.107 138.673 112.176Z" fill="#263238"/>
<path d="M131.362 110.218C130.2 111.682 129.228 113.281 128.468 114.978C127.685 116.633 127.056 118.354 126.588 120.119C125.655 123.661 125.255 127.532 125.934 131.171C125.937 131.188 125.947 131.204 125.962 131.216C125.976 131.228 125.995 131.234 126.013 131.234C126.032 131.234 126.05 131.228 126.065 131.216C126.079 131.204 126.089 131.188 126.093 131.171C125.903 127.495 126.049 123.893 126.995 120.31C127.46 118.551 128.084 116.835 128.858 115.183C129.682 113.539 130.606 111.944 131.623 110.406C131.701 110.241 131.471 110.092 131.362 110.218Z" fill="#263238"/>
<path d="M133.737 112.484C133.673 112.482 133.61 112.476 133.547 112.467H133.428C133.065 112.402 132.726 112.246 132.444 112.014C132.162 111.782 131.947 111.482 131.82 111.144H131.684C131.206 111.177 129.625 111.19 128.804 110.006C128.694 109.852 128.608 109.682 128.549 109.503C128.532 109.452 128.517 109.4 128.505 109.348C128.278 108.375 128.889 107.452 129.13 107.141L129.218 107.029L129.18 107.006C128.946 106.844 127.671 105.891 128.22 104.515C128.286 104.342 128.373 104.178 128.478 104.025C128.509 103.979 128.546 103.933 128.58 103.89C128.778 103.647 129.027 103.448 129.31 103.307C129.593 103.165 129.904 103.084 130.222 103.069H130.317C130.317 103.069 130.317 103.023 130.317 102.944C130.311 102.489 130.401 102.039 130.582 101.62C130.591 101.595 130.602 101.571 130.616 101.548C130.852 101.037 131.281 100.634 131.813 100.423C131.904 100.387 131.997 100.356 132.091 100.33L132.153 100.314C132.424 100.244 132.706 100.228 132.984 100.267H133.052C133.612 100.386 134.115 100.687 134.477 101.121L134.517 101.174H134.548C134.762 101.075 136.193 100.486 137.228 101.329C137.546 101.565 137.787 101.885 137.921 102.252C138.056 102.618 138.078 103.015 137.985 103.393C138.004 103.391 138.023 103.391 138.042 103.393C138.091 103.399 138.138 103.409 138.185 103.423C138.675 103.545 139.112 103.816 139.433 104.197L139.495 104.273C139.712 104.575 139.856 104.921 139.915 105.286C139.993 105.762 139.912 106.25 139.685 106.678C139.457 107.106 139.094 107.452 138.65 107.664L138.562 107.707H138.545C138.545 107.707 139.115 109.404 138.304 110.482C138.098 110.736 137.834 110.938 137.532 111.072C137.231 111.206 136.901 111.268 136.57 111.253H136.414C136.256 111.249 136.1 111.23 135.946 111.197C135.714 111.591 135.382 111.92 134.982 112.153C134.941 112.179 134.897 112.199 134.853 112.222C134.511 112.404 134.126 112.494 133.737 112.484Z" fill="#FFC501"/>
<path opacity="0.1" d="M133.821 107.684C133.821 107.189 133.791 106.694 133.73 106.202L133.689 106.252C133.516 107.271 133.205 108.263 132.763 109.202C132.539 109.725 132.291 110.238 132.03 110.744C131.959 110.873 131.894 111.005 131.823 111.137H131.687L131.843 110.853C132.139 110.297 132.413 109.735 132.661 109.156C133.048 108.205 133.357 107.224 133.584 106.225C133.58 106.217 133.578 106.209 133.578 106.2C133.578 106.192 133.58 106.183 133.584 106.175V106.156C133.584 106.139 133.584 106.123 133.584 106.106C132.78 106.797 131.914 107.414 130.995 107.952C130.446 108.303 129.896 108.65 129.34 108.987C129.072 109.149 128.8 109.318 128.522 109.497C128.505 109.446 128.49 109.394 128.478 109.341C128.705 109.209 128.936 109.083 129.156 108.951C129.692 108.62 130.225 108.289 130.758 107.958C131.733 107.35 132.675 106.693 133.581 105.99C132.661 106.301 131.711 106.526 130.768 106.751C130.232 106.877 129.696 106.999 129.163 107.128H129.116L129.204 107.016L129.167 106.993L130.683 106.658C131.653 106.43 132.624 106.189 133.591 105.944C132.912 105.831 132.234 105.712 131.538 105.653C130.843 105.593 130.055 105.626 129.309 105.6C129.305 105.598 129.302 105.596 129.3 105.593C129.298 105.589 129.297 105.586 129.297 105.582C129.297 105.578 129.298 105.574 129.3 105.571C129.302 105.568 129.305 105.565 129.309 105.564C130.052 105.475 130.804 105.47 131.548 105.547C132.193 105.588 132.834 105.678 133.465 105.815L133.35 105.726C132.531 105.315 131.685 104.956 130.819 104.65C130.32 104.482 129.801 104.32 129.302 104.207C129.027 104.141 128.749 104.088 128.474 104.035C128.505 103.989 128.542 103.943 128.576 103.9C129.374 104.056 130.157 104.278 130.917 104.561C131.642 104.807 132.348 105.106 133.028 105.454C132.525 105.024 132.044 104.568 131.552 104.131C131.134 103.757 130.67 103.423 130.218 103.076H130.313C130.313 103.076 130.313 103.03 130.313 102.95C130.727 103.281 131.141 103.612 131.538 103.959C132.173 104.528 132.793 105.11 133.431 105.673L133.581 105.755C132.405 104.513 131.396 103.131 130.578 101.64C130.587 101.615 130.599 101.591 130.612 101.567C130.991 102.254 131.414 102.917 131.877 103.552C132.417 104.283 133.031 104.955 133.615 105.653C133.275 104.766 133.024 103.837 132.763 102.93C132.519 102.074 132.281 101.214 132.084 100.347L132.145 100.33C132.376 101.167 132.593 102.004 132.824 102.841C133.095 103.771 133.421 104.694 133.689 105.626C133.634 103.826 133.392 102.036 132.966 100.284H133.034C133.478 101.74 133.725 103.247 133.767 104.766C133.825 104.194 133.92 103.618 134.018 103.063C134.129 102.414 134.277 101.771 134.459 101.137L134.5 101.19H134.531C134.371 101.852 134.215 102.537 134.096 103.221C133.947 104.072 133.893 104.925 133.777 105.779V105.802C134.014 105.072 134.371 104.384 134.836 103.767C135.272 103.088 135.806 102.473 136.42 101.941C136.424 101.94 136.428 101.939 136.433 101.94C136.437 101.94 136.441 101.942 136.444 101.945C136.446 101.948 136.448 101.952 136.449 101.956C136.45 101.96 136.449 101.964 136.447 101.968C135.865 102.524 135.356 103.15 134.934 103.83C134.534 104.404 134.2 105.02 133.94 105.666L134.022 105.603C135.039 104.459 136.532 103.873 138.022 103.423C138.07 103.429 138.118 103.439 138.164 103.453C137.445 103.677 136.742 103.948 136.061 104.267C135.57 104.506 135.113 104.807 134.704 105.163C135.267 104.867 135.868 104.645 136.492 104.502C137.446 104.249 138.438 104.16 139.423 104.24L139.484 104.316C138.533 104.265 137.58 104.355 136.658 104.584C135.827 104.761 135.037 105.083 134.324 105.534C134.218 105.636 134.117 105.745 134.015 105.865C135.582 105.484 137.326 105.325 138.897 105.716C138.909 105.72 138.919 105.728 138.926 105.739C138.932 105.75 138.934 105.763 138.932 105.775C138.929 105.788 138.922 105.799 138.912 105.807C138.902 105.814 138.89 105.819 138.877 105.818C138.044 105.709 137.206 105.653 136.366 105.65C135.556 105.669 134.749 105.763 133.957 105.931C133.937 105.954 133.92 105.98 133.9 106C134.886 106.211 135.856 106.491 136.8 106.84C137.431 107.095 138.045 107.386 138.639 107.714L138.551 107.757C137.923 107.446 137.286 107.151 136.631 106.9C135.796 106.593 134.943 106.336 134.076 106.129C134.761 106.644 135.389 107.229 135.949 107.872C136.612 108.598 137.189 109.393 137.669 110.244C137.689 110.277 137.642 110.301 137.621 110.271C137.078 109.442 136.473 108.653 135.813 107.909C135.287 107.353 134.731 106.824 134.147 106.324C134.738 107.115 135.239 107.965 135.64 108.862C136.02 109.643 136.329 110.455 136.563 111.29H136.407C136.163 110.462 135.86 109.652 135.501 108.865C135.026 107.919 134.487 107.004 133.889 106.126C133.889 106.126 133.889 106.126 133.872 106.126C134.276 107.184 134.56 108.282 134.721 109.401C134.883 110.324 134.97 111.259 134.982 112.196C134.941 112.222 134.897 112.242 134.853 112.265C134.843 111.291 134.767 110.319 134.626 109.354C134.416 108.266 134.137 107.191 133.791 106.136L133.774 106.156C133.855 106.592 133.892 107.035 133.886 107.479C133.913 108.14 133.913 108.808 133.886 109.48C133.843 110.479 133.73 111.474 133.547 112.457H133.428C133.591 111.518 133.704 110.57 133.767 109.619C133.821 108.971 133.835 108.326 133.821 107.684Z" fill="black"/>
<path opacity="0.1" d="M134.633 105.593C134.595 105.62 134.561 105.593 134.551 105.56C134.541 105.527 134.551 105.56 134.551 105.544C134.48 105.283 134.469 105.009 134.518 104.744C134.567 104.478 134.676 104.226 134.836 104.005C135.217 103.493 135.72 103.078 136.302 102.798C136.311 102.793 136.322 102.791 136.332 102.792C136.343 102.793 136.353 102.797 136.361 102.803C136.369 102.809 136.375 102.818 136.379 102.828C136.382 102.837 136.383 102.848 136.38 102.858C136.289 103.404 136.088 103.927 135.788 104.397C135.488 104.866 135.095 105.273 134.633 105.593Z" fill="black"/>
<path opacity="0.1" d="M133.313 106.539C133.321 106.535 133.329 106.532 133.338 106.532C133.347 106.532 133.356 106.534 133.364 106.538C133.373 106.542 133.38 106.547 133.385 106.555C133.39 106.562 133.393 106.57 133.394 106.579C133.437 106.846 133.419 107.118 133.342 107.378C133.265 107.637 133.131 107.877 132.95 108.081C132.518 108.554 131.974 108.917 131.365 109.136C131.356 109.141 131.345 109.142 131.334 109.141C131.323 109.139 131.313 109.135 131.305 109.128C131.297 109.121 131.291 109.111 131.289 109.101C131.286 109.091 131.287 109.08 131.291 109.07C131.441 108.539 131.696 108.043 132.043 107.608C132.39 107.174 132.822 106.811 133.313 106.539Z" fill="black"/>
<path opacity="0.1" d="M130.493 104.148C130.487 104.141 130.483 104.133 130.481 104.125C130.479 104.116 130.479 104.107 130.482 104.099C130.485 104.09 130.49 104.083 130.496 104.077C130.503 104.071 130.511 104.067 130.52 104.065C130.52 104.065 130.52 104.048 130.537 104.048C130.802 103.969 131.081 103.947 131.355 103.982C131.629 104.018 131.892 104.112 132.125 104.257C132.668 104.604 133.115 105.077 133.425 105.633C133.43 105.642 133.432 105.651 133.432 105.661C133.432 105.671 133.429 105.681 133.423 105.689C133.417 105.698 133.409 105.704 133.4 105.708C133.391 105.712 133.38 105.714 133.37 105.712C132.808 105.65 132.265 105.479 131.771 105.211C131.277 104.942 130.843 104.581 130.493 104.148Z" fill="black"/>
<path opacity="0.1" d="M134.415 106.338C134.375 106.261 134.49 106.205 134.538 106.271C135.586 106.271 136.37 107.069 136.929 107.856C136.95 107.889 136.929 107.949 136.896 107.955C135.806 108.064 134.907 107.211 134.415 106.338Z" fill="black"/>
<path opacity="0.1" d="M132.719 102.692C132.736 102.609 132.861 102.636 132.855 102.715C133.679 103.35 133.771 104.459 133.696 105.415C133.696 105.454 133.648 105.494 133.608 105.468C132.661 104.882 132.512 103.665 132.719 102.692Z" fill="black"/>
<path d="M133.628 107.509C133.51 107.439 133.445 107.307 133.323 107.247C133.201 107.188 133.082 107.231 132.984 107.184C132.833 107.118 132.712 107 132.644 106.854C132.581 106.717 132.566 106.563 132.6 106.417C132.641 106.225 132.706 106.232 132.621 106.056C132.349 105.487 132.716 104.856 133.374 104.955C133.396 104.838 133.456 104.731 133.545 104.649C133.634 104.568 133.748 104.516 133.869 104.502C134.048 104.493 134.225 104.541 134.373 104.64C134.52 104.739 134.631 104.882 134.687 105.047C134.808 105.039 134.93 105.066 135.036 105.125C135.141 105.184 135.227 105.272 135.281 105.378C135.335 105.485 135.356 105.604 135.34 105.722C135.324 105.84 135.273 105.951 135.192 106.04C135.293 106.135 135.363 106.257 135.395 106.39C135.426 106.523 135.417 106.662 135.369 106.791C135.313 106.927 135.207 107.039 135.07 107.102C134.965 107.151 134.802 107.102 134.731 107.151C134.66 107.201 134.551 107.376 134.443 107.456C134.334 107.537 134.203 107.584 134.066 107.591C133.915 107.608 133.762 107.579 133.628 107.509Z" fill="#263238"/>
<path d="M119.446 103.116C119.548 103.526 121.037 105.951 121.662 106.754C122.045 107.247 123.161 106.893 123.178 106.06C123.178 105.686 122.965 102.682 122.917 102.163C122.863 101.544 121.367 101.908 120.97 102.001C120.457 102.117 119.317 102.606 119.446 103.116Z" fill="#263238"/>
<path d="M113.122 104.985C114.587 106.533 115.738 108.336 116.515 110.301C117.265 112.315 117.645 114.432 118.144 116.513C118.931 119.781 120.179 123.255 123.145 125.229C123.166 125.242 123.19 125.25 123.214 125.25C123.239 125.25 123.263 125.244 123.285 125.232C123.306 125.219 123.323 125.201 123.334 125.18C123.346 125.158 123.35 125.134 123.348 125.11C123.35 125.103 123.35 125.095 123.348 125.087C123.409 123.377 123.274 121.667 122.945 119.986C121.788 114.052 118.303 108.388 113.289 104.793C113.167 104.707 113.041 104.879 113.122 104.985Z" fill="#263238"/>
<path d="M121.893 104.707C122.793 106.662 123.44 108.719 123.82 110.83C124.241 112.9 124.468 115.004 124.498 117.115C124.566 121.352 123.932 125.812 122.178 129.715C122.134 129.818 121.971 129.778 122.005 129.665C123.24 125.58 124.081 121.481 124.013 117.201C123.976 115.098 123.749 113.003 123.335 110.939C122.917 108.835 122.215 106.864 121.553 104.829C121.523 104.654 121.808 104.545 121.893 104.707Z" fill="#263238"/>
<path d="M125.469 104.091C125.418 104.141 125.367 104.184 125.316 104.227L125.211 104.306C124.892 104.538 124.516 104.685 124.121 104.732C123.726 104.78 123.326 104.727 122.958 104.578L122.88 104.707C122.541 105.1 121.397 106.331 119.827 106.093C119.619 106.062 119.416 106.002 119.226 105.914C119.172 105.891 119.121 105.861 119.07 105.835C118.113 105.292 117.815 104.138 117.74 103.724C117.729 103.674 117.721 103.623 117.716 103.572H117.669C117.36 103.635 115.633 103.903 114.934 102.477C114.843 102.299 114.774 102.112 114.727 101.918C114.71 101.855 114.7 101.796 114.69 101.739C114.639 101.407 114.662 101.067 114.757 100.744C114.852 100.42 115.016 100.12 115.239 99.8639C115.26 99.8379 115.283 99.8136 115.307 99.7911C115.271 99.7631 115.236 99.7333 115.202 99.7018C114.833 99.3724 114.538 98.9727 114.334 98.5275C114.321 98.5027 114.31 98.4773 114.3 98.4514C114.062 97.8908 114.051 97.263 114.269 96.6948C114.306 96.5975 114.349 96.5025 114.398 96.4104C114.398 96.3872 114.422 96.3673 114.432 96.3475C114.576 96.0912 114.773 95.8662 115.009 95.6859L115.07 95.6396C115.58 95.2956 116.195 95.13 116.814 95.1699H116.888V95.1368C116.97 94.9019 117.543 93.3604 118.995 93.1818C119.421 93.1104 119.858 93.1612 120.255 93.328C120.651 93.4948 120.989 93.7704 121.228 94.1212L121.282 94.0848C121.323 94.0534 121.366 94.0246 121.411 93.9988C121.871 93.7085 122.415 93.5704 122.961 93.6052H123.067C123.473 93.6579 123.861 93.8029 124.2 94.0286C124.645 94.3191 124.983 94.7418 125.162 95.2339C125.342 95.726 125.354 96.2615 125.197 96.761L125.167 96.8602C125.166 96.8657 125.166 96.8713 125.167 96.8768C125.167 96.8768 126.965 97.6905 127.24 99.113C127.294 99.4587 127.264 99.8121 127.151 100.144C127.037 100.476 126.845 100.777 126.588 101.022L126.473 101.141C126.352 101.262 126.22 101.373 126.079 101.472C126.227 101.942 126.249 102.442 126.144 102.924C126.134 102.974 126.12 103.024 126.103 103.073C125.987 103.46 125.768 103.812 125.469 104.091Z" fill="#FFC501"/>
<path opacity="0.1" d="M121.624 100.489C121.222 100.123 120.797 99.782 120.352 99.4669C120.354 99.4889 120.354 99.511 120.352 99.5331C121.054 100.419 121.631 101.393 122.069 102.428C122.327 102.983 122.561 103.556 122.778 104.131C122.832 104.28 122.89 104.429 122.948 104.581L122.88 104.707C122.842 104.594 122.805 104.485 122.764 104.376C122.527 103.737 122.276 103.109 121.991 102.49C121.503 101.49 120.936 100.529 120.294 99.6157C120.285 99.6121 120.276 99.6063 120.269 99.5989C120.262 99.5914 120.257 99.5825 120.254 99.5728C120.255 99.5662 120.255 99.5594 120.254 99.5529L120.22 99.5033C120.19 100.633 120.054 101.758 119.813 102.864C119.69 103.549 119.565 104.23 119.429 104.909C119.361 105.239 119.307 105.57 119.236 105.901C119.182 105.878 119.131 105.848 119.08 105.822C119.141 105.547 119.209 105.276 119.263 105.011C119.399 104.349 119.524 103.688 119.646 103.046C119.871 101.842 120.033 100.627 120.132 99.4074H120.111C119.684 100.344 119.168 101.243 118.652 102.136C118.357 102.646 118.062 103.149 117.774 103.658C117.774 103.675 117.757 103.688 117.75 103.704C117.739 103.654 117.731 103.603 117.726 103.552H117.679L118.5 102.13C119.033 101.21 119.556 100.285 120.067 99.3544C119.47 99.7977 118.876 100.231 118.316 100.724C117.757 101.217 117.2 101.852 116.62 102.408C116.603 102.408 116.573 102.408 116.586 102.381C117.064 101.744 117.614 101.16 118.225 100.641C118.737 100.176 119.283 99.7477 119.86 99.361L119.704 99.3809C118.764 99.7109 117.847 100.1 116.959 100.545C116.454 100.803 115.958 101.084 115.48 101.389C115.222 101.551 114.978 101.72 114.73 101.902C114.713 101.839 114.703 101.779 114.693 101.723C115.413 101.223 116.173 100.781 116.966 100.4C117.702 100.024 118.465 99.6996 119.249 99.4305C118.527 99.5033 117.804 99.5364 117.081 99.5926C116.471 99.6422 115.857 99.7514 115.243 99.844C115.263 99.818 115.286 99.7937 115.31 99.7712C115.274 99.7432 115.239 99.7134 115.205 99.6819C115.779 99.6025 116.352 99.5264 116.932 99.4801C117.862 99.4074 118.791 99.361 119.721 99.2817L119.897 99.2287C118.02 99.2166 116.152 98.9743 114.337 98.5076C114.324 98.4828 114.313 98.4574 114.303 98.4315C115.143 98.6426 115.995 98.8061 116.854 98.9211C117.845 99.0402 118.846 99.0633 119.84 99.1295C118.873 98.7325 117.933 98.2429 117 97.7732C116.125 97.3333 115.253 96.8801 114.401 96.3905C114.401 96.3673 114.425 96.3475 114.435 96.3276C115.283 96.7709 116.131 97.2208 116.983 97.6508C117.94 98.1305 118.927 98.5605 119.884 99.0402C118.381 97.7544 116.749 96.6206 115.012 95.6561L115.073 95.6098C116.584 96.3434 117.99 97.2664 119.256 98.3554C118.832 97.889 118.435 97.3895 118.055 96.9032C117.61 96.3374 117.197 95.7489 116.817 95.1401H116.891V95.107C117.322 95.7289 117.753 96.3475 118.221 96.9429C118.802 97.6872 119.456 98.3587 120.064 99.0766C119.646 98.3562 119.353 97.5739 119.195 96.761C118.965 95.9222 118.859 95.0554 118.883 94.1874C118.885 94.1838 118.887 94.1808 118.891 94.1787C118.894 94.1766 118.898 94.1755 118.902 94.1755C118.906 94.1755 118.909 94.1766 118.913 94.1787C118.916 94.1808 118.919 94.1838 118.92 94.1874C119.008 95.799 119.399 97.3811 120.074 98.8549C120.074 98.8152 120.074 98.7821 120.074 98.7458C119.904 97.1083 120.525 95.5304 121.258 94.0451C121.299 94.0136 121.342 93.9849 121.387 93.9591C121.037 94.6791 120.739 95.4218 120.495 96.1821C120.322 96.7405 120.227 97.3191 120.213 97.9022C120.386 97.2451 120.644 96.6125 120.983 96.02C121.486 95.099 122.147 94.2689 122.937 93.5655H123.043C122.299 94.2611 121.669 95.0644 121.177 95.9472C120.704 96.7181 120.381 97.5669 120.223 98.4513C120.223 98.6068 120.244 98.7656 120.26 98.9277C121.105 97.4358 122.266 95.9704 123.741 95.0474C123.796 95.0144 123.857 95.0938 123.809 95.1368C123.108 95.7002 122.442 96.3056 121.818 96.9495C121.237 97.5909 120.719 98.2843 120.271 99.0203C120.271 99.0534 120.271 99.0865 120.271 99.1163C121.17 98.5102 122.114 97.9685 123.093 97.4953C123.765 97.1966 124.455 96.938 125.16 96.7213L125.129 96.8205C124.411 97.0699 123.707 97.3548 123.019 97.674C122.157 98.0973 121.322 98.5712 120.518 99.0931C121.443 98.943 122.381 98.8897 123.317 98.9343C124.397 98.9585 125.47 99.0994 126.517 99.3544C126.554 99.3544 126.537 99.4206 126.5 99.414C125.425 99.2214 124.338 99.1042 123.246 99.0633C122.407 99.0598 121.567 99.0996 120.732 99.1824C121.809 99.3113 122.869 99.5519 123.894 99.9002C124.809 100.185 125.697 100.546 126.547 100.982L126.432 101.101C125.578 100.678 124.695 100.314 123.789 100.009C122.67 99.6779 121.53 99.4182 120.376 99.232C120.373 99.2335 120.37 99.2342 120.367 99.2342C120.364 99.2342 120.361 99.2335 120.359 99.232C121.517 99.7025 122.619 100.294 123.646 100.995C124.516 101.553 125.339 102.175 126.11 102.858C126.099 102.908 126.086 102.958 126.069 103.006C125.271 102.292 124.425 101.629 123.538 101.022C122.499 100.382 121.42 99.8051 120.308 99.2949C120.307 99.3037 120.307 99.3126 120.308 99.3213C120.723 99.5815 121.111 99.8795 121.468 100.211C122.028 100.688 122.571 101.18 123.087 101.7C123.874 102.47 124.608 103.291 125.282 104.158L125.177 104.237C124.541 103.414 123.862 102.625 123.141 101.872C122.673 101.438 122.157 100.952 121.624 100.489Z" fill="black"/>
<path opacity="0.1" d="M120.525 98.3157C120.525 98.3253 120.521 98.3346 120.516 98.3426C120.51 98.3506 120.503 98.3571 120.494 98.3614C120.485 98.3657 120.475 98.3678 120.465 98.3673C120.455 98.3668 120.446 98.3639 120.437 98.3587C120.434 98.3611 120.43 98.3624 120.425 98.3624C120.421 98.3624 120.417 98.3611 120.413 98.3587C120.149 98.2198 119.919 98.0265 119.74 97.7923C119.56 97.5581 119.434 97.2886 119.372 97.0024C119.237 96.3305 119.273 95.6365 119.477 94.9813C119.479 94.9702 119.485 94.9601 119.493 94.9521C119.501 94.9442 119.511 94.9388 119.523 94.9366C119.534 94.9345 119.546 94.9357 119.556 94.9401C119.567 94.9445 119.576 94.952 119.582 94.9614C119.958 95.4323 120.235 95.9711 120.397 96.5468C120.559 97.1224 120.603 97.7236 120.525 98.3157Z" fill="black"/>
<path opacity="0.1" d="M120.322 100.036C120.323 100.027 120.327 100.018 120.333 100.011C120.339 100.003 120.347 99.9976 120.356 99.9942C120.365 99.9909 120.375 99.9899 120.384 99.9914C120.394 99.9929 120.402 99.9968 120.41 100.003C120.414 100 120.419 99.9992 120.423 99.9992C120.428 99.9992 120.433 100 120.437 100.003C120.685 100.167 120.893 100.382 121.048 100.633C121.202 100.884 121.298 101.164 121.329 101.455C121.394 102.137 121.285 102.824 121.014 103.456C121.009 103.466 121.001 103.474 120.991 103.48C120.982 103.486 120.971 103.489 120.96 103.489C120.948 103.489 120.937 103.486 120.928 103.48C120.918 103.474 120.91 103.466 120.905 103.456C120.254 102.437 120.044 101.206 120.322 100.036Z" fill="black"/>
<path opacity="0.1" d="M116.294 100.449C116.285 100.449 116.275 100.446 116.267 100.441C116.259 100.436 116.252 100.429 116.247 100.421C116.243 100.412 116.24 100.403 116.24 100.394C116.24 100.384 116.242 100.375 116.247 100.367C116.247 100.367 116.247 100.35 116.247 100.34C116.379 100.076 116.569 99.8423 116.803 99.6571C117.038 99.4719 117.311 99.3392 117.604 99.2684C118.286 99.103 118.999 99.103 119.68 99.2684C119.692 99.27 119.703 99.275 119.711 99.2828C119.72 99.2905 119.726 99.3006 119.729 99.3117C119.731 99.3228 119.73 99.3345 119.726 99.345C119.721 99.3556 119.714 99.3647 119.704 99.371C119.238 99.7623 118.696 100.059 118.11 100.244C117.525 100.429 116.908 100.499 116.294 100.449Z" fill="black"/>
<path opacity="0.1" d="M120.98 99.0236C120.889 99.0005 120.929 98.8715 121.018 98.8847C121.784 98.0676 123.019 98.0544 124.071 98.2231C124.115 98.2231 124.156 98.2793 124.125 98.319C123.403 99.2354 122.046 99.3015 120.98 99.0236Z" fill="black"/>
<path opacity="0.1" d="M116.746 97.6674C116.688 97.5946 116.803 97.5152 116.864 97.5781C117.987 97.4127 118.954 98.1603 119.677 98.9211C119.707 98.9542 119.707 99.017 119.657 99.0303C118.493 99.3148 117.394 98.5341 116.746 97.6674Z" fill="black"/>
<path d="M121.343 100.509C121.197 100.552 121.041 100.509 120.902 100.552C120.763 100.595 120.708 100.724 120.596 100.77C120.434 100.839 120.252 100.847 120.084 100.793C119.924 100.744 119.786 100.642 119.694 100.506C119.568 100.334 119.623 100.287 119.416 100.224C118.737 100.013 118.51 99.2618 119.076 98.8285C118.997 98.7254 118.954 98.6 118.954 98.4712C118.954 98.3424 118.997 98.217 119.076 98.114C119.2 97.9689 119.37 97.8676 119.559 97.8257C119.747 97.7839 119.945 97.8038 120.121 97.8824C120.207 97.7854 120.32 97.7147 120.446 97.6789C120.572 97.6432 120.706 97.6439 120.832 97.6811C120.958 97.7182 121.07 97.7901 121.154 97.8881C121.239 97.9861 121.293 98.1059 121.309 98.233C121.461 98.2259 121.611 98.2614 121.743 98.3353C121.875 98.4091 121.982 98.5183 122.052 98.6498C122.12 98.7952 122.132 98.9597 122.086 99.113C122.045 99.2287 121.896 99.328 121.865 99.4206C121.835 99.5132 121.916 99.7249 121.899 99.8639C121.884 100.008 121.826 100.145 121.733 100.258C121.63 100.376 121.495 100.464 121.343 100.509Z" fill="#263238"/>
<path d="M137.099 140.787H114.635L115.626 130.697L115.843 128.475H135.891L136.108 130.697L137.099 140.787Z" fill="#455A64"/>
<path d="M136.041 129.99L115.626 130.697L115.843 128.475H135.891L136.041 129.99Z" fill="#263238"/>
<path d="M137.174 126.582H114.561V129.262H137.174V126.582Z" fill="#455A64"/>
<path d="M57.6572 25.676C57.6572 25.971 57.7469 26.2595 57.915 26.5048C58.0832 26.7502 58.3222 26.9414 58.6018 27.0543C58.8814 27.1672 59.189 27.1968 59.4858 27.1392C59.7827 27.0816 60.0553 26.9396 60.2693 26.7309C60.4833 26.5223 60.629 26.2564 60.6881 25.967C60.7471 25.6776 60.7168 25.3777 60.601 25.1051C60.4852 24.8324 60.2891 24.5994 60.0374 24.4355C59.7858 24.2716 59.49 24.1841 59.1873 24.1841C58.7815 24.1841 58.3923 24.3413 58.1053 24.621C57.8184 24.9008 57.6572 25.2803 57.6572 25.676Z" fill="white"/>
<path d="M57.6572 25.6759C57.6572 26.0497 57.8094 26.4081 58.0805 26.6724C58.3515 26.9367 58.7192 27.0851 59.1025 27.0851C59.4858 27.0851 59.8534 26.9367 60.1245 26.6724C60.3956 26.4081 60.5478 26.0497 60.5478 25.6759C60.5478 25.3022 60.3956 24.9438 60.1245 24.6795C59.8534 24.4152 59.4858 24.2667 59.1025 24.2667C58.7192 24.2667 58.3515 24.4152 58.0805 24.6795C57.8094 24.9438 57.6572 25.3022 57.6572 25.6759ZM57.6572 25.6759C57.7182 23.5985 60.8159 23.582 60.8871 25.6759C60.8159 27.7666 57.7182 27.75 57.6572 25.6759Z" fill="#263238"/>
<path d="M55.7773 23.3406C56.9934 23.3406 57.9792 22.3794 57.9792 21.1937C57.9792 20.008 56.9934 19.0468 55.7773 19.0468C54.5612 19.0468 53.5754 20.008 53.5754 21.1937C53.5754 22.3794 54.5612 23.3406 55.7773 23.3406Z" fill="white"/>
<path d="M53.5718 21.1937C53.5709 21.5317 53.6551 21.8647 53.8168 22.1637C53.9786 22.4626 54.2131 22.7183 54.4997 22.9084C54.7864 23.0985 55.1164 23.2172 55.461 23.2541C55.8056 23.291 56.1543 23.2449 56.4764 23.1199C56.7985 22.9949 57.0842 22.7948 57.3086 22.5372C57.533 22.2796 57.6892 21.9722 57.7635 21.6421C57.8378 21.3119 57.828 20.969 57.7348 20.6434C57.6417 20.3179 57.4681 20.0195 57.2293 19.7745C55.9671 18.4216 53.5447 19.3478 53.5718 21.1937ZM53.5718 21.1937C53.5711 20.8237 53.6647 20.4593 53.8442 20.1334C54.0237 19.8074 54.2835 19.5301 54.6001 19.3262C54.9168 19.1224 55.2804 18.9984 55.6584 18.9655C56.0363 18.9326 56.4167 18.9918 56.7654 19.1378C57.1141 19.2837 57.4201 19.5119 57.656 19.8017C57.8918 20.0915 58.0501 20.4339 58.1166 20.7982C58.1831 21.1624 58.1558 21.5371 58.037 21.8885C57.9183 22.2398 57.7118 22.5569 57.4362 22.8113C57.1103 23.108 56.7028 23.3057 56.2636 23.3805C55.8243 23.4552 55.3722 23.4037 54.9625 23.2322C54.5528 23.0607 54.2031 22.7766 53.9562 22.4146C53.7092 22.0526 53.5757 21.6284 53.5718 21.1937Z" fill="#263238"/>
<path d="M37.5851 25.6131C47.3026 25.6131 55.1802 19.8948 55.1802 12.841C55.1802 5.78717 47.3026 0.0689087 37.5851 0.0689087C27.8677 0.0689087 19.9901 5.78717 19.9901 12.841C19.9901 19.8948 27.8677 25.6131 37.5851 25.6131Z" fill="white"/>
<path d="M20.4723 9.87377C18.4366 16.0034 23.0847 21.5608 28.6964 23.8103C31.4888 24.9446 34.4849 25.5253 37.5099 25.5185C40.5349 25.5117 43.5282 24.9175 46.3152 23.7706C49.9522 22.2522 53.3009 19.5132 54.5359 15.7587C57.1517 7.28033 48.3848 1.24328 40.6594 0.350123C32.9713 -0.705121 23.2815 2.15958 20.4723 9.87377ZM20.4723 9.87377C23.2713 2.1232 32.9713 -0.777896 40.6797 0.174801C44.69 0.684228 48.6765 2.18274 51.6317 4.9449C54.6343 7.65082 56.2085 11.9776 54.8582 15.8612C51.3094 25.5238 37.365 27.7699 28.6557 23.9062C23.0644 21.5906 18.4095 16.0134 20.4723 9.87708V9.87377Z" fill="#263238"/>
<path d="M37.6834 13.5324V14.7927C37.6867 14.9188 37.6636 15.0443 37.6154 15.1614C37.5672 15.2784 37.495 15.3847 37.4031 15.4736C37.3113 15.5625 37.2019 15.6321 37.0815 15.6783C36.961 15.7245 36.8322 15.7462 36.7029 15.7421C36.4449 15.7412 36.1978 15.6409 36.0154 15.4631C35.8329 15.2852 35.7301 15.0442 35.7292 14.7927V12.7749C35.7292 12.755 35.7495 12.755 35.7495 12.7352C35.7495 12.7153 35.7292 12.7153 35.7292 12.6955C35.7416 12.4482 35.8484 12.2144 36.0286 12.04C36.2087 11.8656 36.4492 11.7631 36.7029 11.7527C37.2941 11.7527 37.8611 11.5237 38.2791 11.1161C38.6971 10.7086 38.932 10.1558 38.932 9.57935C38.932 9.00295 38.6971 8.45015 38.2791 8.04257C37.8611 7.63499 37.2941 7.40601 36.7029 7.40601C36.3167 7.40496 35.937 7.50279 35.6018 7.68972C35.2666 7.87664 34.9876 8.14612 34.7928 8.47118C34.7281 8.58194 34.6415 8.67903 34.5379 8.75679C34.4344 8.83455 34.316 8.89141 34.1896 8.92405C34.0633 8.95669 33.9315 8.96447 33.8021 8.94691C33.6726 8.92936 33.5481 8.88684 33.4356 8.82183C33.3256 8.75842 33.2294 8.67443 33.1527 8.57468C33.0761 8.47493 33.0204 8.36138 32.9888 8.24057C32.9573 8.11977 32.9506 7.99407 32.969 7.87072C32.9875 7.74737 33.0308 7.62879 33.0964 7.52179C33.4441 6.93739 33.9354 6.44637 34.526 6.09286C35.1165 5.73935 35.7879 5.53442 36.4798 5.49649C37.1717 5.45855 37.8624 5.58879 38.4899 5.87551C39.1174 6.16223 39.662 6.59645 40.0748 7.13916C40.4876 7.68186 40.7557 8.31605 40.8549 8.98475C40.9541 9.65345 40.8814 10.3357 40.6433 10.9702C40.4052 11.6048 40.0091 12.1717 39.4907 12.62C38.9723 13.0684 38.3478 13.3842 37.6732 13.539L37.6834 13.5324ZM37.6834 17.7798V18.1305C37.6867 18.2566 37.6636 18.382 37.6154 18.4991C37.5672 18.6162 37.495 18.7224 37.4031 18.8113C37.3113 18.9002 37.2019 18.9699 37.0815 19.0161C36.961 19.0622 36.8322 19.0839 36.7029 19.0799C36.4449 19.079 36.1978 18.9787 36.0154 18.8008C35.8329 18.623 35.7301 18.382 35.7292 18.1305V17.7798C35.7335 17.5294 35.8375 17.2903 36.0192 17.1132C36.2009 16.9361 36.446 16.8347 36.7029 16.8304C36.8317 16.8282 36.9597 16.8512 37.0792 16.898C37.1988 16.9449 37.3075 17.0146 37.3989 17.1031C37.4903 17.1917 37.5626 17.2971 37.6115 17.4134C37.6603 17.5296 37.6848 17.6542 37.6834 17.7798Z" fill="#FFC501"/>
</svg>
