<svg width="32" height="29" viewBox="0 0 32 29" fill="none" xmlns="http://www.w3.org/2000/svg">
<path d="M11.6876 0H2.98236C1.33525 0 0 1.33525 0 2.98236V10.398C0 12.0451 1.33525 13.3803 2.98236 13.3803H11.6876C13.3348 13.3803 14.67 12.0451 14.67 10.398V2.98236C14.67 1.33525 13.3348 0 11.6876 0Z" fill="#26395B"/>
<path d="M8.96784 9.83948L8.0689 8.86685C7.84784 8.9307 7.60469 8.96264 7.33942 8.96264C6.86294 8.96264 6.42327 8.85211 6.02048 8.63106C5.62258 8.40511 5.30574 8.09317 5.06995 7.69527C4.83906 7.29248 4.72363 6.84054 4.72363 6.33948C4.72363 5.83843 4.83906 5.38896 5.06995 4.99106C5.30574 4.59317 5.62258 4.28369 6.02048 4.06264C6.42327 3.83669 6.86294 3.72369 7.33942 3.72369C7.82084 3.72369 8.26047 3.83669 8.65837 4.06264C9.06116 4.28369 9.37801 4.59317 9.6089 4.99106C9.83979 5.38896 9.95521 5.83843 9.95521 6.33948C9.95521 6.81106 9.85205 7.23843 9.64574 7.62159C9.44432 7.99985 9.16432 8.30438 8.80574 8.53527L10.0363 9.83948H8.96784ZM5.58574 6.33948C5.58574 6.71774 5.65942 7.05175 5.80679 7.34159C5.95906 7.62649 6.16784 7.84754 6.43311 8.00475C6.69837 8.15702 7.00047 8.23317 7.33942 8.23317C7.67837 8.23317 7.98047 8.15702 8.24574 8.00475C8.511 7.84754 8.71732 7.62649 8.86469 7.34159C9.01695 7.05175 9.09311 6.71774 9.09311 6.33948C9.09311 5.96123 9.01695 5.62965 8.86469 5.34475C8.71732 5.05985 8.511 4.84123 8.24574 4.68896C7.98047 4.53669 7.67837 4.46054 7.33942 4.46054C7.00047 4.46054 6.69837 4.53669 6.43311 4.68896C6.16784 4.84123 5.95906 5.05985 5.80679 5.34475C5.65942 5.62965 5.58574 5.96123 5.58574 6.33948Z" fill="#CCDAF3"/>
<path d="M11.6876 15.3803H2.98236C1.33525 15.3803 0 16.7156 0 18.3627V25.7783C0 27.4254 1.33525 28.7607 2.98236 28.7607H11.6876C13.3348 28.7607 14.67 27.4254 14.67 25.7783V18.3627C14.67 16.7156 13.3348 15.3803 11.6876 15.3803Z" fill="#26395B"/>
<path d="M7.84 19.3803V24.5014H7V19.3803H7.84Z" fill="#CCDAF3"/>
<path d="M28.3577 15.3803H19.6524C18.0053 15.3803 16.67 16.7156 16.67 18.3627V25.7783C16.67 27.4254 18.0053 28.7607 19.6524 28.7607H28.3577C30.0048 28.7607 31.34 27.4254 31.34 25.7783V18.3627C31.34 16.7156 30.0048 15.3803 28.3577 15.3803Z" fill="#26395B"/>
<path d="M23.6648 23.7719H26.0448V24.5014H22.67V23.8456L25.0427 20.1098H22.67V19.3803H26.0448V20.0361L23.6648 23.7719Z" fill="#CCDAF3"/>
<path d="M28.3577 0H19.6524C18.0053 0 16.67 1.33525 16.67 2.98236V10.398C16.67 12.0451 18.0053 13.3803 19.6524 13.3803H28.3577C30.0048 13.3803 31.34 12.0451 31.34 10.398V2.98236C31.34 1.33525 30.0048 0 28.3577 0Z" fill="#26395B"/>
<path d="M22.51 4V7.26421C22.51 7.65227 22.6107 7.94457 22.8121 8.14105C23.0185 8.33753 23.3034 8.43579 23.6669 8.43579C24.0353 8.43579 24.3202 8.33753 24.5216 8.14105C24.7279 7.94457 24.8311 7.65227 24.8311 7.26421V4H25.6711V7.24947C25.6711 7.66701 25.5802 8.02069 25.3985 8.31053C25.2167 8.60036 24.9736 8.81648 24.669 8.95895C24.3644 9.10142 24.0279 9.17263 23.6595 9.17263C23.2911 9.17263 22.9546 9.10142 22.65 8.95895C22.3504 8.81648 22.1121 8.60036 21.9353 8.31053C21.7585 8.02069 21.67 7.66701 21.67 7.24947V4H22.51Z" fill="#CCDAF3"/>
</svg>
