<svg width="61" height="79" viewBox="0 0 61 79" fill="none" xmlns="http://www.w3.org/2000/svg">
<path fill-rule="evenodd" clip-rule="evenodd" d="M16.5966 62.3907C19.5505 66.4868 23.0114 71.2861 27.0604 76.9999C28.5501 79.0947 31.7368 79.0949 33.2267 76.9999C37.2757 71.2861 40.7366 66.4868 43.6905 62.3907C57.2986 43.5202 60.1436 39.575 60.1436 29.9009C60.1436 13.7729 46.7121 0.69873 30.1436 0.69873C13.575 0.69873 0.143555 13.7729 0.143555 29.9009C0.143555 39.575 2.98851 43.5202 16.5966 62.3907ZM16.2236 32.7248L26.9728 43.4739C27.6185 44.1198 28.6656 44.1198 29.3115 43.474L48.3291 24.4562C48.9749 23.8104 48.9749 22.7633 48.3291 22.1175L45.9905 19.7788C45.3447 19.133 44.2976 19.133 43.6518 19.7788L28.1421 35.2884L20.901 28.0474C20.2552 27.4015 19.2081 27.4015 18.5623 28.0474L16.2236 30.3861C15.5779 31.0319 15.5779 32.079 16.2236 32.7248Z" fill="#007212"/>
</svg>
